<svg version="1.2" xmlns="http://www.w3.org/2000/svg" viewBox="0 0 1024 1024" width="1024" height="1024"><style>.a{opacity:.97;fill:#dffbfe}.b{opacity:1;fill:#0a3a82}.c{opacity:1;fill:#33a5ee}</style><path class="a" d="m494.1 48.9c-15.7 1-35.1 2.8-43.2 4.1-8 1.3-21.5 4-30 6.1-8.4 2-20.6 5.3-27.1 7.3-6.4 2.1-18 6-25.6 8.8-7.7 2.8-18.5 7.1-24.2 9.6-5.6 2.4-16.6 7.6-24.5 11.6-7.8 3.9-20.4 10.8-27.8 15.4-7.5 4.5-16.2 9.9-19.4 12-3.2 2.1-11.5 8.1-18.3 13.2-6.9 5.2-19.7 15.5-28.6 23-8.8 7.4-22.4 20.3-30 28.7-7.7 8.3-19 21.4-25.1 29-6.1 7.7-16 21.5-22 30.8-6.1 9.2-14.5 23.4-18.7 31.5-4.2 8-10.3 20.9-13.6 28.5-3.2 7.7-8.1 20.8-10.9 29.3-2.8 8.4-6.6 21.3-8.4 28.5-1.9 7.3-4.5 18.8-5.7 25.7-1.3 6.8-3.1 19-4 27.1-1 8-1.7 24.8-1.6 37.3 0 12.5 0.5 27.6 1 33.7 0.5 6 1.8 18.2 3 27.1 1.2 8.8 3 21 4.2 27 1.1 6.1 4 19.3 6.4 29.3 2.5 10.1 7.1 25.9 10.3 35.2 3.2 9.2 8.5 23.7 11.9 32.2 3.3 8.4 9.9 22.6 14.6 31.5 4.7 8.8 11.8 21.3 15.7 27.8 3.9 6.4 10 16 13.6 21.2 3.5 5.3 10.4 14.5 15.3 20.5 4.9 6 12.7 14.9 17.3 19.8 4.6 4.8 7.9 9.3 7.4 9.9-0.5 0.6-0.2 1.1 0.8 1.1 0.9 0 9.4 7.5 18.9 16.7 9.5 9.2 22.8 21.2 29.6 26.7 6.9 5.5 17.3 13.4 23.1 17.7 5.8 4.2 10.1 8.1 9.5 8.7-0.6 0.5-0.4 0.5 0.4 0 0.8-0.5 5.4 1.4 10.2 4.3 4.9 2.9 11.1 6.6 14 8.2 2.8 1.6 10 5.8 16.1 9.2 6 3.5 18.8 9.6 28.5 13.6 9.7 4 26.1 10 36.6 13.4 10.5 3.3 26.6 8 35.9 10.3 9.3 2.4 20.6 4.8 25.1 5.4 4.6 0.7 8.1 1.5 7.9 1.9-0.3 0.4 3.2 0.8 7.8 0.8 4.5 0 17.8 0.9 29.5 2 14.2 1.3 28.2 1.6 42.4 1 11.7-0.6 28.2-2 36.6-3.1 8.5-1.2 23.3-3.8 33-5.9 9.7-2.1 25.1-6.1 34.4-8.7 9.3-2.7 24.1-7.8 32.9-11.4 8.9-3.6 20.4-8.6 25.7-11.3 5.2-2.6 18.1-10 28.5-16.4 10.5-6.4 24.7-15.7 31.5-20.6 6.8-5 17.4-13 23.4-17.8 6.1-4.8 21.2-19 33.7-31.6 12.6-12.6 28.3-30.2 35.3-39.5 7-9.3 18.4-26.1 25.4-37.3 7-11.3 18.8-32.7 26.2-47.6 7.4-14.9 15.2-32.4 17.4-38.8 2.2-6.5 6.4-20 9.2-30 2.9-10.1 6.8-26.9 8.9-37.4 2-10.4 4.7-27.9 5.9-38.8 1.2-10.8 2.2-31.3 2.2-45.4 0-14.1-0.7-31.5-1.7-38.8-0.9-7.2-2.9-20.7-4.5-30-1.6-9.2-4.5-22.8-6.4-30-2-7.2-5.9-20.1-8.9-28.6-2.9-8.4-7.7-20.9-10.6-27.8-2.9-6.8-9.7-21.3-15-32.2-5.4-10.9-15.9-29-23.4-40.3-7.5-11.2-19.3-28-26.4-37.3-7-9.3-18.9-22.8-26.5-30-7.5-7.3-16.3-15.5-19.5-18.4-3.3-2.9-14.1-11.1-24.2-18.3-10.1-7.2-23.9-16.6-30.7-20.7-6.9-4.1-25-13.8-40.3-21.5-15.3-7.6-35.7-17-45.4-20.7-9.7-3.8-24.5-9.1-33-11.9-8.4-2.7-23.2-6.6-32.9-8.5-9.7-2-23.5-4.3-30.7-5.2-7.3-0.8-21.5-2-31.5-2.6-11-0.6-29.8-0.3-46.9 0.7z"/><path fill-rule="evenodd" class="b" d="m579.6 102.8c0.7 1.6 1.8 5.5 2.4 8.8 0.7 3.2 0.9 6.3 0.6 6.9-0.4 0.6 4.5 2.2 10.7 3.5 6.3 1.2 19.9 4.8 30.4 7.8 10.5 3.1 19.1 5.5 19.3 5.4 0.1-0.1-0.5-4.9-1.5-10.7-0.9-5.7-2.3-11-3-11.7-0.7-0.7-0.9 0-0.4 1.7 0.5 1.6 1.3 6.4 1.7 10.6 0.7 6.9 0.5 7.6-1.8 6.8-1.4-0.4-8.7-2.6-16.2-4.7-7.5-2.2-13.1-4.1-12.5-4.4 0.7-0.2 5.5 0.8 10.7 2.4 5.3 1.6 11.4 2.6 13.6 2.3 3.7-0.5 3.9-0.8 2.4-4.6-0.8-2.2-1.5-4.2-1.4-4.4 0-0.2-2.2-1.7-5-3.3-2.9-1.6-7-3-9.2-3l-4-0.2c7-2 6.8-2.2 0.7-3.9-3.9-1.2-9-1.5-12.4-1-3.3 0.6-9.2 0.5-13.2-0.1-4.4-0.6-8.5-2.3-10.2-4.1-2.8-3-2.9-3-1.7-0.1zm66.9 15.4c-0.1 1.2 0.4 5.3 1 9.1 0.7 4.8 1.7 6.8 2.9 6.3 1-0.5 3.3 0.5 5.2 2.2 1.8 1.6 3.8 2.9 4.6 2.9 0.7 0 1.1 0.3 0.7 0.8-0.3 0.4-3.2-0.3-6.4-1.5-3.3-1.3-6.2-2-6.6-1.6-0.4 0.4 1.2 1.5 3.6 2.3 2.4 0.9 12.3 4.9 22 9 9.7 4.1 20 8.6 23 10.1l5.5 2.8c0-5.1-0.7-9.2-1.6-12.4-1-3.2-2.8-7-4.1-8.4-1.3-1.5-6.9-4.3-12.6-6.4-5.6-2-13.8-4.6-18.3-5.7-4.4-1.1-9.3-2.5-10.9-3.2-2.2-0.8-2.7-0.7-1.9 0.6 0.6 1 0.5 3-0.2 4.4-1.1 2.1-1.7 1.3-3-4-0.9-3.6-1.9-7.3-2.2-8.1-0.3-0.8-0.6-0.5-0.7 0.8zm-101.9 4.3c2.5 0.6 7.4 1.3 11 1.4 3.6 0.1 6.3-0.1 5.9-0.4-0.4-0.3-5.4-0.9-11-1.3-6.2-0.5-8.5-0.4-5.9 0.3zm22 2.9c3.1 0.8 0.3 1.1-9.3 1-7.5-0.1-13.9 0.3-14.3 0.9-0.3 0.6-2.4 1.1-4.6 1.1-2.2 0-5.1 1.1-6.4 2.6-1.8 1.9-1.9 3.1-0.7 5 0.9 1.4 2.4 2.6 3.5 2.6 1 0 2.6 0.9 3.6 1.9 1 1 4.3 3.1 7.3 4.7 3 1.7 5.3 3.1 5.1 3.3-0.2 0.2-6.7-1.9-14.6-4.7-7.8-2.8-15.1-5.1-16.1-5.1-1 0.1 5.1 2.6 13.6 5.7 8.4 3.1 19.3 7.3 24.1 9.5 4.8 2.1 8.9 3.6 9 3.4 0.1-0.2 1.8-3.6 3.8-7.7 2-4 4.6-10.7 5.7-14.9 1.1-4.2 1.7-8 1.3-8.5-0.4-0.4-4-1.1-8.1-1.4-5.7-0.5-6.3-0.4-2.9 0.6zm13.9 7.8c-1 4.2-3.7 11.9-6 17.2-2.4 5.2-4.1 9.6-3.9 9.7 0.2 0.2 8 3.9 17.2 8.4 9.3 4.4 21.6 10.7 27.5 14l10.6 5.9c8.9-17.6 12.5-26.3 13.8-30.7 1.3-4.4 2.3-9.9 2.3-12.1 0-3.8-0.7-4.2-16.5-9-9-2.8-21.1-6.1-26.7-7.4-5.6-1.2-11.7-2.6-13.4-3-2.8-0.6-3.4 0.2-4.9 7zm119.1-0.4c0.4 1.2 1.8 5.5 3 9.5 1.2 4 2.5 10.3 3 13.9 0.9 6.6 0.9 6.6 14.4 13.9 7.4 4.1 20.4 11.9 28.9 17.4 8.4 5.6 17.8 12 20.9 14.3 3 2.3 5.6 4.2 5.8 4.2 0.2 0-0.2-4.8-0.8-10.6-0.7-5.8-1.9-11.6-2.7-12.8-1.3-2-1.4-2-0.8 0 0.4 1.2 1.2 6.5 1.8 11.7l1.2 9.5c-7.8-6.8-11.7-10-13.7-11.4-2-1.5-0.5-1 3.3 1.1l7 3.7c-0.1-5.1-0.4-8-0.8-9.9-0.4-1.8-1.5-3.2-2.5-3.2-1 0-2.9-1.7-4.1-3.8-1.2-2.1-6.3-7.4-11.3-11.7-5-4.4-8.7-6.8-8.2-5.4 0.5 1.4-2-0.1-5.5-3.3-4.8-4.3-5.3-4.6-2-1.1 2.4 2.7 3.5 4.8 2.5 4.8-1 0-4-1.9-6.6-4.1-2.6-2.2-8.6-6-13.3-8.4-5.9-3-7.7-4.6-5.8-4.9 1.9-0.4 1.1-1.1-2.5-2.2-3.5-1.2-5.9-3.3-7.7-6.8-1.4-2.8-3-5.5-3.5-5.9-0.5-0.4-0.5 0.3 0 1.5zm-52.5 15.7c-0.5 2.3-2.2 8.3-3.9 13.6-1.6 5.2-5.4 13.9-8.3 19.3-2.9 5.4-5 10.1-4.6 10.4 0.4 0.3 7.3 5 15.4 10.5 8 5.6 18.6 12.9 23.4 16.4l8.8 6.3c10.4-15.3 15.1-23 17.1-27 2.1-4.1 4.4-9.7 5.3-12.5 0.8-2.8 1.8-8.1 2.2-11.7l0.6-6.6c-23-10.6-34.7-15.7-41-18.2-6.2-2.5-12-4.5-12.7-4.5-0.8 0-1.9 1.8-2.3 4zm-112 4.3c2.8 1.1 9.4 3.9 14.5 6.1 5.1 2.1 8.6 4.1 7.7 4.3-0.9 0.2-3.5-0.6-5.7-1.6-2.2-1.1-8.3-3.5-13.6-5.2-6.8-2.3-12.3-3.1-19.6-2.8-9 0.4-10.4 0.8-13.1 4.5l-3.1 4c5.1 3.4 6.6 5.2 6.6 6.2 0 1 2.5 4.1 5.6 7 3 2.8 4.2 3.9 2.5 2.6-1.7-1.4-3.3-2.6-3.7-2.6-0.4 0.1-4.7-2.6-9.6-5.8-4.8-3.2-9.4-5.9-10.2-5.9-0.8 0 2.1 2.3 6.6 5.3 4.4 2.9 12.8 9 18.7 13.5 10.3 8 10.8 8.2 14.5 6 2.2-1.2 9.5-7.4 16.2-13.9 12.1-11.5 12.2-11.7 8.9-13.5-1.9-1-8.5-3.8-14.8-6.2-6.2-2.4-11.8-4.4-12.4-4.3-0.6 0.1 1.2 1.1 4 2.3zm16.1 26.5c-8.4 7.8-15.5 14.5-15.7 15-0.3 0.4 5.7 6 13.1 12.4 7.5 6.5 17.4 15.4 22.1 19.8 4.6 4.4 8.4 7.4 8.4 6.6 0-0.8-0.8-2.4-1.9-3.6-1.5-1.8-1.5-1.8 0.4-0.4 1.2 1 2.8 1.3 3.5 0.7 0.8-0.6 0.9 0.1 0.3 1.8-1.1 3-1.1 3 2.3 0.1 1.9-1.6 7.3-6.6 12.2-11 4.8-4.5 12.5-12.4 17.2-17.6l8.4-9.5c-11.9-7.5-23.9-13.9-34.4-19.1-10.5-5.2-19.4-9.4-19.8-9.4-0.4 0.1-7.6 6.5-16.1 14.2zm154.1-5.1c-0.2 2.6-1.3 7.7-2.6 11.3-1.2 3.6-5.9 12.9-10.3 20.5-4.4 7.7-9 15.2-10.2 16.8-2 2.8-1.2 3.7 15.1 16.5 9.4 7.4 25.4 20.7 35.5 29.5l18.3 16.1c6.6-10.7 10.1-17.4 12.1-21.8 1.9-4.4 4.6-11 5.8-14.6 1.2-3.7 3.1-10.9 4.2-16.1 1.1-5.3 2-11.7 2-14.3 0-3.9-1.1-5.6-5.8-9.2-3.2-2.4-6.2-4.2-6.6-4-0.4 0.2 1.9 2.4 5.2 4.8 3.2 2.4 5.9 5.5 5.8 6.9 0 1.8-1.9 0.6-6.2-4.2-3.5-3.8-6.1-7.4-5.9-8.1 0.2-0.7-6.4-5.7-14.6-11.2-8.3-5.5-20.6-13.1-27.5-16.8-6.8-3.8-12.8-6.8-13.3-6.9-0.4 0-0.9 2.1-1 4.8zm-214-2.7c-0.1 0.5 4.2 3.8 9.4 7.4 5.2 3.6 9.5 6.9 9.5 7.3 0 0.4-0.8 0.3-1.8-0.2-1-0.6-3.8-2.4-6.2-4.2-2.4-1.7-6.4-3.9-8.8-4.9-2.4-1-6.1-1.6-8.1-1.3-2 0.3-5.8 1.8-8.5 3.4-4.6 2.7-4.8 3.2-4 8.7 0.5 3.2 3.7 10 7.1 15.1 4.4 6.6 6.8 9 8.4 8.3 1.2-0.6 3.5-1.4 5.1-1.8 1.6-0.4 2.6-0.5 2.2-0.1-0.4 0.4-3.1 2.1-5.9 3.9l-5.1 3.2c-12.5-18.5-16.8-24.2-17.6-24.7-0.8-0.4-0.7 0.1 0.1 1.3 0.9 1.2 4.8 7.1 8.7 13.1 3.9 6 7.3 11.2 7.6 11.4 0.3 0.2 6.6-2.9 14-6.8 7.5-3.9 16.7-9.2 20.5-11.7l7-4.6c-15.4-11-22.9-16.3-26.6-18.9-3.8-2.6-6.9-4.3-7-3.9zm286.1 8.2c0.5 2 1.7 9.8 2.7 17.3l1.7 13.7c22.2 19.1 29.4 24.3 30.4 23.9 1-0.4 4.2 0.7 7 2.4 2.8 1.8 6.7 3.5 8.8 3.8 2.9 0.4 2.4-0.4-3-4-3.6-2.4-7.2-4.4-8-4.4-0.8 0-2.8-1.3-4.4-3l-2.9-3.1c10.7 4.7 14.2 5.9 14.6 5.7 0.4-0.2-0.6-1.8-2.2-3.7-1.6-1.8-2.6-3.9-2.2-4.7 0.4-0.8-0.9-1.8-2.9-2.2q-3.7-0.7-2.9-2.9c0.4-1.4-1.4-3.7-4.8-6.2-3-2.1-7.2-5.9-9.4-8.4-2.1-2.5-6.3-5.8-9.2-7.4-4.7-2.6-5.6-2.6-6.6-0.7-0.9 1.5-1.8-0.5-3-6.6-1-4.9-2.4-9.8-3.2-11-1-1.6-1.1-1.2-0.5 1.5zm-337.1 18.3c-4.2 2-8 4.8-8.4 6.2-0.4 1.4-0.6 6.6-0.4 11.7 0.4 8.2 0.8 9.2 4 10.5 2.1 0.8 6 2 8.8 2.7l5.2 1.3c-14.6 5.2-15.9 6-12.5 5.5 2.8-0.5 11.9-3.5 20.1-6.6 8.3-3.2 15.1-6 15.1-6.5 0-0.4-1.5-0.3-3.3 0.1-3.1 0.7-3.3 0.3-3.3-5.7 0-4.5-0.9-7.6-3-9.8-1.6-1.7-5-5.4-7.6-8.1-2.7-2.8-5.3-5-5.9-5-0.6 0.1-4.6 1.7-8.8 3.7zm179.3 5.4c-2.9 3.5-8 9.2-11.5 12.9-3.5 3.6-10.5 10.3-15.5 15l-9.2 8.4c8.6 8.5 18.7 19.2 28 29.3 9.3 10 23.3 25.4 31.1 34 7.8 8.7 20.4 23.7 28.1 33.3 7.6 9.7 14.4 17.6 15 17.5 0.6 0 3.7-2.4 6.9-5.3 3.2-2.9 10.5-9.7 16.1-15.1 5.7-5.3 14.2-13.9 18.9-19.1 4.8-5.2 11.4-12.9 14.7-17.2l6-7.7c-16.9-15.3-26.4-23.6-32.1-28.4-5.7-4.7-18.3-14.6-28-21.9-9.6-7.3-27.1-19.8-38.8-27.6-11.6-7.9-22-14.3-22.9-14.3-0.9 0-4 2.8-6.8 6.2zm-100.6 1.3c-5.2 3.2-14.1 8.2-19.8 11.2-5.6 3-9.2 5.6-8 5.9 1.2 0.3 2.8-0.1 3.6-1 0.7-0.9 2.1-1.6 2.9-1.6 0.9 0.1 0.2 1.1-1.4 2.3-2.6 1.9-2.7 2.7-1.1 6.9 1 2.6 1.6 4.9 1.4 5.1-0.1 0.2-2.3-2.3-4.7-5.6-2.4-3.2-4.5-5.9-4.7-5.8-0.2 0 0 0.8 0.6 1.8 0.5 1.1 8.1 13.2 16.8 27.1l15.9 25.3c7.4-3.7 17.7-10.2 27.8-16.9 10.1-6.7 20.3-13.8 22.7-15.9l4.4-3.6c-10.2-10.6-20.3-19.9-28.9-27.5-8.7-7.5-16.3-13.7-16.9-13.7-0.6 0.1-5.4 2.7-10.6 6zm262.3 13.6c-0.1 0.5-1.5 7.3-3.2 15.2-1.6 7.8-4.4 17.9-6.1 22.3-1.8 4.4-6 13.3-9.5 19.8-3.4 6.4-6.2 12.2-6.3 12.8 0 0.6 1.9 2.9 4.1 5.1 2.3 2.2 9.7 10 16.4 17.2 6.8 7.3 18.6 21.1 26.3 30.8 7.7 9.6 18.3 23.8 23.7 31.4 5.3 7.7 11.2 16.7 13.1 20.2 2 3.4 3.9 6.2 4.3 6.2 0.4 0 3.2-5.4 6.4-12.1 3.1-6.6 8.5-20.6 12-31.1 3.5-10.5 6.7-22.7 7.1-27.1 0.5-5.6 0.4-6.9-0.5-4.4-1.2 3.2-1.3 2.9-1.5-2.6 0-3.9-1.8-9.3-4.6-14.6-2.5-4.6-5.1-9.1-5.9-9.9q-1.5-1.4-0.5 1.5l1 2.9c-3.6-4.5-4.7-6.3-4.7-6.9 0-0.6-2.5-4.3-5.5-8.1-3.1-3.9-9.9-12-15.3-18-5.4-6-11.4-11.9-13.5-13.1-2.1-1.2-3.5-2.5-3.1-2.9 0.4-0.4 0-1.8-1-3-0.9-1.2 5.2 4.8 13.6 13.2 8.4 8.5 19.1 19.7 23.8 24.9l8.5 9.5c-11-14.4-22.2-27.1-32.1-37.5-9.8-10.4-18.7-18.9-19.7-18.9-1.4-0.1-1.3 0.7 0.3 2.5 2 2.5 2 2.5-0.3 0.8-1.4-1-2.3-2.3-1.9-2.9 0.4-0.6-3.7-5-9.1-9.9-5.4-4.8-11.2-10-12.9-11.4-1.8-1.5-3.3-2.3-3.4-1.9zm-300 11.5c1.1 1.8 2.2 3.6 2.3 4 0.1 0.4-2.2 0.5-5.2 0.2-3-0.3-8.1 0.3-11.4 1.2-3.2 1-6.2 1.4-6.6 0.9-0.4-0.4 0.6-1.2 2.2-1.6 1.6-0.5 5.4-2 8.4-3.4 3.1-1.3 5.2-2.6 4.8-2.8-0.4-0.2-6.2 1.9-12.8 4.7-6.6 2.8-17 6.5-23.1 8.3-6 1.8-10.3 3.5-9.5 3.8 0.8 0.2 7.7-1.4 15.2-3.8 7.6-2.3 13.4-3.6 12.9-2.9-0.6 0.7-1.6 1.3-2.5 1.3-0.8 0-5 1.3-9.5 2.9-5.9 2.2-8.8 4.2-10.8 7.7-2 3.4-2.6 6.8-2.3 12.1l0.6 7.3c-2.7-12.5-3.6-14.8-3.9-13.2-0.3 1.6 1.8 13.8 4.7 27.1 2.8 13.3 4.8 21.4 4.4 18-0.4-3.5-1.1-9.1-1.5-12.5-0.6-4.8-0.1-4 1.9 3.3 2.4 9.1 2.7 9.5 7.7 10.3 2.8 0.4 4.4 1.1 3.6 1.6-0.8 0.5-3.4 1.4-5.8 2-2.4 0.6-3.8 1.4-3 1.7 0.8 0.3 9.7-2.1 19.8-5.4 10.1-3.2 26.1-9.7 35.6-14.3 9.4-4.6 17.2-8.7 17.1-9.1 0-0.4-1.8-3.7-3.8-7.3-2.1-3.6-9.2-15.3-15.8-26-6.6-10.7-12.8-19.4-13.9-19.4-1.5 0-1.5 0.6 0.2 3.3zm86.8 22.4c-5.7 4.3-17.7 12.5-26.8 18.2-9 5.7-16.4 10.9-16.4 11.7 0 0.9 5.5 11.2 12.2 23.1 6.7 11.9 20.1 36.1 29.8 53.8 9.8 17.7 19.9 36.7 22.6 42.1 2.7 5.4 5.4 9.8 6 9.9 0.6 0 8.5-3.8 17.6-8.3 9-4.6 26-14.8 37.7-22.7 11.7-7.9 23.1-15.8 25.4-17.7 3.8-3 4-3.6 2.3-6.9-1.1-2.1-7.5-10.6-14.3-19.1-6.8-8.4-20.1-23.9-29.5-34.4-9.4-10.5-25.5-27.7-35.7-38.4-10.2-10.7-19-19.4-19.6-19.3-0.6 0-5.7 3.6-11.3 8zm-146.3 5.1c0.5 4.4 2 14.3 3.5 21.9 1.4 7.7 3 16.6 3.5 19.8 0.6 3.2 1.3 5.5 1.8 5.1 0.4-0.4-1-10.3-3.1-22-2.1-11.6-4.4-23.8-5.2-27-1.1-5.2-1.2-4.9-0.5 2.2zm-15.5-1.8c-1.8 0.3-5.8 3.1-8.8 6.2-3.1 3.2-6.4 5.8-7.5 5.8-1.1 0 0.9-2.6 4.6-5.8 5.2-4.6 5.9-5.8 3.6-5.8-1.6 0-5.9 1-9.5 2.2-3.6 1.3-7.6 2.9-8.8 3.5-1.2 0.6-4.3 4.3-7 8.3-2.6 3.9-4.7 8.4-4.7 10.1 0 1.6-1.1 4.5-2.6 6.5l-2.5 3.6c5.6-3.9 10.9-8.6 15.3-13.1 4.5-4.5 8.4-7.8 8.8-7.4 0.4 0.5-0.9 2-2.9 3.5-2 1.6-6.9 6.7-11 11.4-5.5 6.5-7.5 10.2-8.2 15.2-0.8 5-0.4 7.7 1.6 11 1.5 2.4 3.9 4.8 5.4 5.3 1.5 0.5 7 0.7 12.2 0.4 5.2-0.2 8.5-0.1 7.3 0.2-1.2 0.4-7.4 1.3-13.9 2-10.8 1.1-11.1 1.2-3.6 1.4 4.4 0.1 13.6-0.5 20.5-1.3 6.8-0.8 17.3-2.8 23.4-4.3 9.9-2.5 10.2-2.7 3.6-2.1-6.6 0.6-6.9 0.5-3.6-1.2 2-1 4.8-3.2 6.3-4.8 2.1-2.4 2.4-4.6 1.8-11.7-0.4-4.8-2.2-15-3.8-22.7-1.7-7.7-3.3-14.2-3.5-14.6-0.3-0.4-2.4-1.1-4.8-1.5-2.4-0.4-5.9-0.5-7.7-0.3zm96.6 36.4c-7.6 3.6-19.2 8.6-25.6 11.1-6.5 2.4-17.3 6.3-24.2 8.6-8.1 2.8-10.4 4-6.6 3.4 5.7-0.8 5.8-0.7 2.6 1.5q-3.3 2.3-3.5 7l-0.1 4.8c-2-8-3-10.6-3.5-11-0.5-0.4-0.4 1.9 0.2 5.1 0.6 3.2 2.9 14.4 5.3 24.9 2.3 10.5 4.2 19.2 4.2 19.4 0 0.2 3.7-1 8.4-2.8 4.6-1.7 14.3-5.7 21.6-8.8 7.2-3.1 12.5-5 11.7-4.2-0.8 0.8-10 5.1-20.5 9.7-10.5 4.5-19.2 8.3-19.4 8.4-0.3 0.2 1.6 8.5 4.1 18.6 2.4 10 6.5 25.5 9 34.4 2.4 8.8 5.1 16.7 5.8 17.6 0.9 0.9 1.2 0.1 0.8-2.2-0.3-2.1-0.4-2.9-0.1-1.9 0.3 1 2.5 2.7 5 3.7l4.4 1.8c-7.5 1.6-4.9 1.8 1 1.4 5.8-0.4 21.7-3 35.1-5.8 13.5-2.8 30.8-7.2 38.5-9.7 7.6-2.5 17.8-6.2 22.7-8.2 4.8-2 8.9-3.9 9.1-4.2 0.2-0.3-3.3-8-7.7-17-4.5-9.1-14.9-28.5-23.1-43.1-8.5-15.2-15.6-26.2-16.4-25.7-0.8 0.6-1 0.3-0.3-0.8 0.6-1.1-3.8-10.1-11-22.4-6.7-11.3-12.5-20.5-12.9-20.4-0.4 0.1-6.9 3.1-14.6 6.8zm-151.9 6.8c-1 5.8-1.6 10.9-1.2 11.3 0.4 0.4 1.4-4.1 2.2-10 0.9-5.9 1.4-11 1.2-11.3-0.2-0.3-1.2 4.2-2.2 10zm390.6 7c-6.1 7.4-20.4 22.4-31.9 33.4l-20.8 19.9c18.9 26.1 30.3 42.6 37.5 53.5 7.3 10.8 16.4 25 20.3 31.4 3.9 6.5 10.8 18.9 15.3 27.6l8.1 15.8c26.1-25.7 39.4-40 46.3-48.5 6.9-8.4 15.3-19.5 18.6-24.5l6.1-9.2c-11-18.7-20-32-27.1-41.7-7-9.6-18.2-23.8-24.8-31.5-6.6-7.6-17.6-19.7-24.3-26.7l-12.3-12.9zm-322.9 14.6c-2.4 0.8-14.6 2.7-27.1 4.4-12.5 1.6-23 3.3-23.4 3.8-0.4 0.5 1.9 0.5 5.1 0 3.2-0.5 11.5-1.3 18.3-1.9 6.8-0.5 12.1-0.6 11.7-0.2-0.4 0.4-5 1.2-10.2 1.7-5.3 0.5-12.7 1.4-16.5 2-3.9 0.6-7 1.6-7 2.2 0 0.6-0.8 1.1-1.8 1-1 0-3.3 1.5-5 3.3-1.8 1.9-4 5.7-4.9 8.5-1.5 4.6-1.4 5.5 1.7 8.6l3.5 3.5c-7.3-4.7-7.4-4.7-8.5 0-0.6 2.6-1.1 13.8-1.1 24.9 0 11 0.4 20.8 0.8 21.6 0.4 0.8 2.2 1.1 4 0.7l3.3-0.8c-5.3 2.9-7.1 5-7.6 6.7-0.4 1.6-0.4 5.5 0.1 8.7 0.4 3.3 1.2 8.2 1.6 11 0.5 2.8 2.3 6.6 4.1 8.3 1.8 1.8 4.9 3.5 6.9 3.8 2 0.4-0.6 0.9-5.8 1.1l-9.6 0.4c15.9 2.2 37.7 2.8 58.6 2.8 20.9 0 42.4-0.7 47.6-1.4 8.9-1.3 9.1-1.4 2.9-1.6-3.6-0.2-5.8-0.7-4.8-1.3 1-0.6 2.4-4.1 3-7.7l1.2-6.6c3.3 10.8 4.5 13.7 4.7 13.5 0.2-0.1-4.5-19.1-10.5-42-6-23-12.7-50.2-15-60.4-2.3-10.3-4.4-18.2-4.6-17.6-0.3 0.6 0.2 4.7 0.9 9.2 0.8 4.4 1.2 8.3 0.9 8.7-0.2 0.4-1.5-2.7-2.8-6.9-1.8-6.2-2.9-7.7-5.6-7.9-1.8-0.1-6.2-0.2-9.8-0.1h-6.6c10.2-2.8 14.1-4 15.3-4.5 1.6-0.6 1.4-0.8-0.7-0.8-1.6 0-4.9 0.6-7.3 1.3zm456.1 14.2c0 1.4-2.9 11.1-6.4 21.6-3.5 10.4-9.8 25.8-13.9 34l-7.5 15c11.2 21 17.5 34 21.2 42.5 3.7 8.4 9.6 24.3 13.1 35.1 3.6 10.9 6.9 22.4 7.5 25.7l1 5.8c6.9-13.6 12-25.8 15.8-35.9 3.8-10 7.3-20.6 7.8-23.4 0.5-2.8-0.8-0.5-2.8 5.1-1.9 5.7-3.9 11.4-4.3 12.8-0.4 1.5-1.4 2.6-2.2 2.6-0.8 0-1.1 1-0.7 2.2 0.4 1.2 0 2.2-0.8 2.2-0.9 0-1.1-2.2-0.5-5.5 0.5-3 1.4-6.5 2-7.7 0.7-1.2 1.7-3.5 2.3-5.1 0.6-1.6 1.3-5.9 1.5-9.5 0.2-3.6 0.8-9.6 1.3-13.2 0.8-5.5 0.3-7.8-3-13.9-2.2-4-11.5-18.5-20.7-32.2-9.1-13.7-16.5-25.1-16.2-25.3 0.2-0.2 3.1 3.4 6.4 8.1 3.3 4.6 12.2 17.7 19.8 29 7.5 11.4 14.5 21.9 15.4 23.5 1.5 2.2 1.5 1.8 0.4-2.4-0.7-2.8-1.6-10-1.8-16.1-0.4-6.7-1.2-11.1-2.3-11.3-0.9-0.2-1.7-2-1.7-4.1 0-2-2-8.4-4.4-14.2-2.5-5.9-5.9-14.3-7.6-18.7-2.5-6.7-3.2-7.6-4.2-5.1-0.6 1.6-1.2 2.1-1.2 1.1-0.1-1-1.4-4.8-3.1-8.4-2.5-5.8-3.2-6.4-5.3-4.8-1.3 1-2.8 1.6-3.3 1.4-0.5-0.3-1.4 0.7-2 2.1-0.8 2-0.9 1.7-0.5-0.9 0.4-2.1 1.1-6.2 1.6-9.2 0.4-3 0.5-5.5 0.1-5.5-0.5 0-0.8 1.2-0.8 2.6zm-523.4 17.8c-0.5 0.7-1.1 10.7-1.4 22.3-0.3 11.5-0.2 18 0.1 14.4 0.4-3.6 1.1-13.7 1.7-22.3 0.5-8.7 0.9-15.7 0.7-15.7-0.2 0-0.7 0.5-1.1 1.3zm-10.4 27.9c-0.5 12.5-0.7 24.4-0.4 26.4 0.3 2 1.1-7.9 1.7-22 0.6-14.1 0.8-25.9 0.4-26.3-0.4-0.4-1.2 9.5-1.7 21.9zm333.1-10.5c-5.2 3.9-15.3 11.1-22.6 15.9-7.2 4.9-20.4 13-29.3 18.1-8.8 5.1-17.9 9.8-20.1 10.5-2.2 0.6-4 1.5-4 1.9 0 0.4 11.7 24.6 26.1 53.8 14.4 29.2 29.3 60.2 33 68.8 6.3 14.8 7 15.7 10 14.5 1.9-0.7 8-3.6 13.6-6.4 5.6-2.8 17.2-9.2 25.6-14.3 8.5-5 20.7-12.8 27.1-17.2 6.4-4.5 16.2-11.9 21.6-16.4 5.5-4.4 9.9-8.6 9.9-9.2 0-0.6-2.9-6.9-6.4-13.9-3.6-7.1-11-20.4-16.6-29.7-5.6-9.2-15-24.1-20.9-32.9-5.9-8.9-16.1-23.9-22.7-33.3-6.5-9.5-12.5-17.2-13.4-17.2-0.8 0-5.7 3.1-10.9 7zm166.1 45.4c-1.7 3-8.6 12.3-15.3 20.8-6.7 8.4-21.1 24.5-32 35.7l-19.9 20.3c13.4 27.5 21.1 45 25.7 56.7 4.7 11.7 10.9 29.2 13.8 38.8 2.9 9.7 5.6 17.8 6 18 0.3 0.2 8.3-8.1 17.7-18.3 9.3-10.3 22.4-26 29-34.8 6.6-8.9 13.8-19.1 15.9-22.7 2.1-3.6 3.9-7.9 3.9-9.5 0-1.6-1.5-9.5-3.5-17.6-1.9-8.1-6.6-23.2-10.4-33.7-3.7-10.4-11.1-27.6-16.4-38-5.2-10.5-9.9-19.5-10.5-20.1-0.5-0.6-2.3 1.4-4 4.4zm-261.9 9.9c-6.4 2.7-19 6.9-27.8 9.5-8.9 2.5-25.4 6.5-36.6 8.7-11.3 2.3-24.4 4.7-29.1 5.4-4.7 0.6-8.8 1.5-9 1.9-0.3 0.4 2 0.5 4.9 0.2l5.3-0.5c-6.3 6.4-7.1 6.6-8.1 4.7-1.1-1.8-1.3-1.8-1.3 0.4-0.1 1.4 2.3 10.6 5.2 20.5 2.8 9.8 10.5 33.7 16.9 53.1 6.4 19.3 14 41.7 16.8 49.7 2.8 8.1 5.5 15.7 6 16.9 0.5 1.5 0.9 1.6 1.3 0.3 0.3-1 1.7-1.8 3.1-1.8 2.2 0.1 2.3 0.3 0.4 1.5-1.7 1.1-1.4 1.4 1.5 1.4 2 0.1 11.9-1.6 21.9-3.6 10.1-2 25.9-5.8 35.2-8.3 9.2-2.5 27.4-8.5 40.2-13.3 12.9-4.8 25.9-10 29-11.5l5.5-2.8c-7.7-17.6-15-33.6-21.2-46.8-6.3-13.3-19.1-39.2-28.4-57.6-9.4-18.3-17.7-33.2-18.5-33.1-0.8 0.1-6.8 2.4-13.2 5.1zm-270.9 11.6c4 1.1 8.7 1.9 10.3 1.9 1.6 0-0.4-0.9-4.4-2-4.1-1.1-8.7-2-10.3-1.9-1.6 0.1 0.4 1 4.4 2zm-43.9 12.1c-1.5 3-2.7 7.5-2.8 10.1-0.1 2.5-1.5 6.1-3.1 7.9-1.6 1.8 3-0.5 10.3-5.2 7.2-4.7 14.7-9.5 16.5-10.8 1.8-1.3 3.6-2 4-1.6 0.4 0.4-6.7 5.7-15.8 11.9-15.9 10.9-16.4 11.4-16.7 16.8-0.1 3.1-0.5 7-0.7 8.6-0.4 2.3 2.6 4.7 14.9 12 8.4 5 16.3 9.8 17.5 10.6 1.3 0.9-1.7-0.3-6.5-2.7-4.9-2.3-12.8-6.6-17.6-9.5-4.8-2.9-9.1-5.3-9.5-5.3-0.4 0-0.8 8.8-0.8 19.6 0 10.8-0.5 19.4-1.1 19.1-0.6-0.3-0.7 3.2-0.3 7.8 0.4 4.6 2.4 11.9 4.4 16.1 2 4.3 4.6 7.7 5.8 7.7 1.2 0 2.5 0.8 2.8 1.8 0.4 1 0.7 0.7 0.8-0.7 0-1.4-0.8-4.4-1.9-6.6-1.1-2.2-2.5-5.7-3-7.7-0.5-2 1.7 1.5 4.9 7.7 4.7 8.9 7.1 12 11.4 14.2 3 1.6 5 2.9 4.4 2.9-0.6 0.1-5.2-1.6-10.2-3.6-5.1-2.1-9.3-3.5-9.5-3.3-0.2 0.2 6.4 3.2 14.6 6.6 8.3 3.4 19.6 7.5 25.3 9.3 5.6 1.7 18.4 5 28.5 7.4 10.1 2.3 19.6 4.1 21.2 4.1q3-0.1-2.2-2.1c-4-1.5-4.4-2-1.8-2.1 1.9 0 4-1.5 5-3.4 0.9-1.8 1.6-5.9 1.6-9.1-0.1-4.4 0.6-2.7 2.8 6.6 1.6 6.8 3.1 12.1 3.4 11.7 0.3-0.4-1.4-11.6-3.8-24.9-2.4-13.3-5.6-33.4-7.2-44.7-1.5-11.2-3-22.4-3.4-24.9-0.3-2.4-0.7-0.5-0.9 4.4l-0.4 8.8c-1.8-11.3-2.3-17.6-2.3-21.2 0.1-6.5 0.1-6.6 1.2-1.5l1.1 5.1c0.3-10.9 0.1-11.1-13.2-19.2-7.4-4.6-18.2-11.5-23.8-15.3-5.6-3.9-10.7-7.1-11.3-7.1-0.6-0.1-0.8 3.4-0.4 7.6l0.6 7.7c-2.1-10.2-3.5-16-4.6-19.5-1.1-3.6-2.8-6.3-4.1-6.3-1.2-0.1-6.5-0.4-11.8-0.7l-9.7-0.6zm30.3-0.8c0.3 2.3 6.7 7.4 21.7 17.5 11.7 7.9 22.4 14.4 23.8 14.4 1.4 0 2.8 0.8 3.2 1.8 0.3 1.1 0.6-1.4 0.5-5.4-0.1-6.8-0.1-7-1.1-2.2l-1 5.1c-1.7-6.8-3.2-11.4-4.4-14.7-1.2-3.2-3-6.7-3.9-7.8-1-1-3.5-2.9-5.7-4-2.3-1.1-4.9-1.7-5.9-1.2-1 0.4-7.1-0.9-13.5-3-6.5-2-12.3-3.7-13-3.7-0.6 0-1 1.4-0.7 3.2zm58.3 3.4c0.4 0.4 9.6 1.7 20.5 2.9l19.8 2c-22.7-0.2-31.1-0.1-33.3 0-3.7 0.2-4.1 0.8-4.8 6.8-0.4 3.6-1.4 6.6-2.2 6.6-0.8 0-1.6-3.2-1.7-7l-0.3-6.9c-0.8 10.2 0.3 25.3 1.9 40.2 1.7 14.9 5.1 39 7.5 53.5 2.4 14.5 5.4 29.9 6.5 34.4l2.1 8c-1.2-11.3-1.8-16.3-2.2-18.3-0.4-2 0.5-0.3 1.9 3.7 1.5 4 4.2 9.3 6.1 11.7 1.8 2.4 5.1 5.2 7.3 6.1 3.7 1.7 3.6 1.7-2.7 2-5.9 0.3-5.4 0.5 5.1 2.3 6.4 1.1 20.9 2.6 32.2 3.5 11.3 0.8 27.4 1.5 35.9 1.5 8.4 0 26.2-1 39.5-2.3 13.3-1.2 24.3-2.4 24.5-2.5 0.2-0.2-8.2-26-18.6-57.5-10.4-31.4-21.3-64.8-24.1-74.3l-5.2-17.2c-16.5 1.7-37.7 2.2-57.8 2.2-20.2 0-41.6-0.5-47.6-1.1-6.1-0.7-10.7-0.8-10.3-0.3zm550 49.5l-9.9 20.7c2.7 21.6 4 36.8 4.7 47.6l1.1 19.8c-0.6-50.8-0.6-51.2 2.1-48.3 1.5 1.6 2.4 2.3 2 1.4-0.4-0.8 1.1-5.4 3.4-10.2 2.2-4.8 5.4-14.4 7.1-21.2 1.6-6.9 3.4-16.4 3.8-21.3l0.8-8.7c-2.3 12.4-4 20.7-5.3 26.3-1.3 5.6-2.7 11-3.2 12-0.5 0.9-0.9-2.8-0.9-8.2v-9.9c-5.2 7-7 11.3-7.5 14.2-0.4 2.8-1.4 6.6-2.1 8.4-0.8 1.8-1.5 5.4-1.6 8-0.1 3.9-0.4 3.4-1.5-2.5-1.2-6.9-1-8 4.4-18.3 3.2-6.1 7.4-15.2 9.2-20.3 1.9-5.1 3.5-9.5 3.4-9.8 0-0.3-4.5 8.9-10 20.3zm-137.9-2.5c-2.4 2-9.2 7.4-15.3 11.9-6 4.6-19.2 13.5-29.3 19.9-10 6.4-25.8 15.6-35.1 20.4-9.3 4.9-17 9.1-17.2 9.4-0.2 0.2 3.6 10.2 8.5 22 4.9 11.9 14.1 35.5 20.3 52.4 6.3 16.9 12.9 35.2 14.6 40.6l3.1 9.9c18.7-10.9 29.4-17.6 35.9-22 6.4-4.3 17.2-12.2 24.1-17.5 6.8-5.2 18.2-15.1 25.3-22 9.7-9.3 12.9-13.4 12.8-16.1 0-2-2.3-10.9-5-19.8-2.6-8.8-7.3-22.7-10.4-30.7-3-8.1-8.3-20.9-11.7-28.6-3.4-7.6-8.4-18.3-11.2-23.6l-5.1-9.8zm115.2 42.5c-4 6.3-14.2 19.7-22.7 29.7-8.5 10.1-20.3 23.6-26.3 30.1l-11 11.7c4.4 24.9 6.2 40.6 6.8 50.9 0.6 10.2 1.5 18.6 2.1 18.6 0.6 0 1.1-0.8 1-1.8-0.1-1-0.1-3.1 0-4.8 0.1-2.4 0.4-2.5 1.5-0.7 1.1 1.9 2.2 1.5 6.9-2.2 3.1-2.4 8.3-7 11.5-10.3 3.2-3.3 8.6-9.6 11.9-13.9 3.3-4.4 7.8-11 9.9-14.6 2-3.6 5.8-10.5 8.4-15.4 2.5-4.8 4.8-10.7 5.2-13.1 0.3-2.5 1.1-7.1 1.8-10.3l1.3-5.8c0.7 17.3 0.8 17.2 2 4.3 0.8-7.2 0.9-22 0.4-32.9-0.4-10.9-1.4-22.3-2.1-25.3l-1.2-5.6zm-230.1 27c-5.3 2.4-18.4 7.6-29.3 11.5-10.9 3.9-27.7 9.2-37.3 11.8-9.7 2.6-26.5 6.6-37.4 8.9-10.9 2.3-19.9 4.3-20.2 4.6-0.2 0.2 5.3 15.2 12.3 33.3 7 18.1 18.3 46.1 25 62.2 6.8 16.1 12.5 29.5 12.7 29.7 0.1 0.3 7.8-0.9 17.1-2.6 9.2-1.7 21.4-4.4 27.1-6 5.6-1.5 16.1-4.6 23.4-6.7 7.2-2.1 15.6-4.7 18.7-5.8 4.2-1.5 5.2-2.6 4.6-4.6-0.7-2.1-0.6-2.1 0.6-0.3 1.3 1.9 2.3 1.8 8.6-0.6 3.8-1.5 13.1-5.6 20.6-9.1l13.5-6.4c-13.4-39.2-19.6-56.5-22.4-63.7-2.7-7.3-9.5-23.9-15.1-37.1-5.5-13.1-10.7-23.7-11.5-23.6-0.8 0.1-5.8 2.1-11 4.5zm-391 6.1c0.4 0.5 6 3.2 12.5 6 6.4 2.9 10.7 5.3 9.5 5.4-1.2 0-4.2 0.3-6.6 0.5-2.4 0.2-5.2-0.2-6.2-0.9-1-0.6-2.5-0.9-3.3-0.5-0.8 0.4-1.8-0.2-2.2-1.4-0.5-1.4-1.9-1.9-3.7-1.5-1.6 0.4-2.9 1.6-2.9 2.6-0.1 1 2.4 4.9 5.4 8.8 3.1 3.8 5.1 7.4 4.5 8-0.6 0.6-1.9-0.7-2.9-2.9-1-2.2-3-4.3-4.4-4.8-2.4-0.6-2.5 0.2-1.7 9.2 0.5 5.4 2.5 15.3 4.4 21.9 1.9 6.7 3.5 13.3 3.5 14.7 0 1.7 1.1 2.5 3.3 2.4 1.8-0.1 6.7-1.9 11-4.1 4.2-2.1 9-3.8 10.6-3.8 2 0 3.1 1.2 3.6 4 0.4 2.2 2.1 5.4 3.8 7 1.7 1.6 4 4.6 5 6.6 1 2 6.6 10.4 12.3 18.6 5.7 8.3 10.4 15.4 10.4 15.8 0 0.4-1.5-1.1-3.4-3.3-1.9-2.2-7.5-10-12.5-17.2-5-7.3-9-14-9-15 0-1-1.3-2.5-2.9-3.3-1.6-0.8-3.8-3.8-4.8-6.6-1.4-4.1-2.4-5-4.7-4.3-1.6 0.5-7.1 3-12.1 5.5-5.1 2.6-9.2 4.6-9.2 4.6 0 0 1 3 2.3 6.6 1.2 3.7 3.2 8.1 4.4 9.9l2.1 3.3 7.6-6.6c-6 10.2-6 10.3-3.1 15 1.6 2.6 3.3 4.8 4 4.8 0.6 0 3.4 2 6.2 4.4 3 2.5 6.1 4 7.7 3.6 1.6-0.4 2.5 0.1 2.5 1.5 0 1.2 0.8 3 1.9 4 1 1 6.7 4.3 12.8 7.3 6 3 12.1 5.5 13.5 5.5 1.4 0 4.1 0.6 5.9 1.4 1.8 0.7 6.1 2.2 9.7 3.2 3.5 1.1 6.6 2.5 6.9 3.1 0.3 0.6-1.6 0.5-4.2-0.3-2.6-0.8-5.4-1.5-6.2-1.4-0.8 0 0.2 0.8 2.2 1.6 2 0.8 11.2 3.3 20.5 5.6 9.2 2.3 20.1 4.6 24.1 5 6.7 0.8 6.5 0.6-2.9-1.8l-10.2-2.7c20.2 0.2 20.5 0.2 20.3-3.4 0-2-0.6-7-1.2-11l-1.1-7.3c10.3 20.4 13.3 25.9 13.3 25.2 0.1-0.6-0.9-3.2-2.3-5.8-1.3-2.6-6.2-14.3-10.8-26-4.6-11.7-11.7-31.8-15.8-44.7-4-12.8-8.6-27.8-10-33.1l-2.7-9.7c-29.5-6.2-47.9-10.8-60-14.3-12.1-3.4-26.3-8-31.5-10.2-5.2-2.1-10.5-4.3-11.7-4.8-1.2-0.4-1.9-0.4-1.5 0.1zm117.3 32.3c5.2 1.4 6.1 2 4 2.8-1.5 0.6-2.9 2.8-3.2 5.1l-0.5 4c-2-7.4-3.1-9.5-3.7-9.5-0.6 0 0.6 6.1 2.7 13.5 2 7.5 6.7 22.5 10.4 33.4 3.6 10.8 9.4 26.6 12.9 35.1 3.5 8.5 8.1 19.3 10.1 24.2 2.1 4.8 4.2 8.4 4.6 8 0.3-0.4-1-4.5-3-9.1-2-4.7-3.7-9-3.6-9.6 0-0.6 1.1 0.9 2.4 3.3 2.2 4.3 2.3 4.3 4.3 1.5 1.8-2.7 1.9-2.3 1.9 3.7 0 3.6 0.8 7.4 1.9 8.5 1 1.1 5.2 2.9 9.2 4 4 1.2 8.9 2.2 11 2.4 2 0.1 5.3-0.3 7.3-0.9l3.6-1.1c-6 4.3-8.1 4.4-16.8 3.2-5.6-0.8-11.7-1.4-13.5-1.3-1.9 0.1 2.3 1 9.1 2.1 6.9 1.1 19.7 2.7 28.6 3.6 8.8 0.8 30.9 1.5 49 1.5 18.1 0 39.9-0.7 48.3-1.6 8.5-0.9 15.6-1.9 15.8-2.2 0.2-0.4-1.9-6.1-4.7-12.7-2.7-6.7-7.6-18.4-10.8-26-3.3-7.7-11.6-28.4-18.5-46.2-6.9-17.7-13.4-34.1-14.4-36.4-1.7-4.1-2-4.2-9.8-3.3-4.5 0.5-18.6 1.6-31.5 2.5-12.9 0.9-33.6 1.2-46.1 0.7-12.5-0.5-31.5-1.9-42.1-3.1-10.7-1.1-19.9-2-20.5-1.9-0.6 0 1.9 0.9 5.6 1.8zm425.1 22.5c-7.2 6.8-21.1 18.4-30.9 25.8-9.8 7.4-26 18.3-35.9 24.3-9.9 5.9-18.1 10.9-18.3 11-0.1 0 1 4.4 2.4 9.6 1.5 5.2 3.3 9.4 4 9.3 0.7-0.1 2.9-0.6 4.9-1.1 3.3-0.9 3.2-0.7-0.8 1.6l-4.3 2.6c11.5 47.2 11.7 47.7 14.6 45.5 2.4-1.9 2.5-2.2 0.4-1.5-1.9 0.5-2.6-0.1-2.6-2.2 0-1.8 0.7-2.7 1.8-2.1 1 0.4 5.2-1 9.2-3.2 4-2.2 9.8-5.5 12.8-7.4 3-1.9 5.8-3.1 6.2-2.7 0.4 0.4-4.6 3.8-11.1 7.7-6.6 3.8-12.2 7.4-12.5 8-0.3 0.6 1.6 0 4.2-1.3 2.6-1.3 11-6.5 18.7-11.5 7.6-4.9 21.1-14.7 30-21.6 8.9-6.9 17.8-14.4 19.8-16.6 2-2.2-1.6 0.3-8.1 5.5-6.4 5.2-13.3 10.3-15.4 11.3-2.2 1.2-1-0.4 3-4 3.6-3.3 8.7-7.5 11.2-9.3 2.6-1.9 6.7-6.3 9.2-9.9 3.6-5.4 4.5-8.3 4.7-15.4l0.3-8.8c1.7 16.7 1.9 11.3 1.6-4.4-0.3-14-1.6-30.6-2.9-38.1-1.3-7.2-2.6-13.2-2.8-13.3-0.2-0.2-6.2 5.3-13.4 12.2zm73.9 6.6c-1.8 2.6-9.9 12.2-18 21.4-8.2 9.1-15.7 18-16.8 19.7-1.1 1.8 1.1-0.1 4.9-4.1 3.7-4 12.4-13.9 19.3-22 6.8-8 13-15.8 13.7-17.2 0.7-1.4 1-2.5 0.7-2.5-0.3 0-2 2.1-3.8 4.7zm-166.1 58.1c-0.7 0.8-8.8 4.8-17.9 8.9-9 4-24.2 10-33.6 13.3-9.5 3.3-27.5 8.5-39.9 11.7-12.5 3.2-26 6.3-29.9 6.9-3.9 0.6-7.4 1.7-7.8 2.5-0.3 0.8 3.8 10.4 9.2 21.3 5.4 10.8 13 25.5 16.9 32.5 4 7.1 7.5 12.8 7.9 12.8 0.4 0 0.5-0.8 0.2-1.8-0.4-1.3 1.2-1.7 5.5-1.4 3.3 0.3 7 0.7 8.2 0.9 1.2 0.2-0.1 1.2-2.9 2.1l-5.1 1.7c9-1.3 20.6-4.6 31.4-8.3 10.9-3.7 27.7-10.1 37.4-14.3 9.6-4.2 22.2-10.3 27.8-13.5l10.2-5.8c-0.5-10.7-3.3-23.8-6.5-36.1-3.1-12.2-6.6-25.1-7.7-28.6-1.3-4.2-2.4-5.8-3.4-4.8zm-387.9 13.1c4 1.5 9.6 3.1 12.4 3.7 4 0.7 3.6 0.3-2.2-1.8-4-1.5-9.6-3.2-12.4-3.7-4.1-0.7-3.6-0.3 2.2 1.8zm481.7 12.9c-7.3 6-24.1 18.1-37.4 26.9-13.2 8.8-25.4 16.9-27 18.2-1.7 1.2 2-0.5 8-3.8 6.1-3.4 16.3-9.8 22.7-14.3 6.5-4.4 16.7-11.8 22.7-16.4 6-4.5 14.3-11.3 18.3-15 4-3.7 7-6.7 6.6-6.7-0.4 0-6.7 5-13.9 11.1zm-491.6-7.6c2.6 1.2 13.1 4.6 23.4 7.4 10.3 2.9 20.6 6.3 23.1 7.5 2.4 1.2 6.7 3.5 9.5 5.1l5.1 2.9c-7.9-1.6-11.9-3.5-13.9-5.2-2-1.8-8.6-4.4-14.7-5.9-6-1.4-13.2-2.8-16.1-3.2-2.8-0.3-5.7 0.1-6.5 1-0.9 0.8-2.5 1.1-3.7 0.6-1.2-0.4-3.2 0.2-4.4 1.5-1.2 1.3-1.5 2.4-0.7 2.3 0.8 0 0.4 0.6-0.8 1.3-1.8 1.1-1.4 2 2.2 5.2 2.4 2.1 7.1 5.2 10.3 6.8l5.8 3c-7.9-1.4-11.5-2.8-13.1-4-1.6-1.1-4.6-3.2-6.6-4.6l-3.7-2.5c4 5 4.8 7.1 4.4 7.9-0.4 0.8 0.4 1.8 1.8 2.2 1.4 0.3 6.4 3.8 11 7.6 4.6 3.9 12.2 9.8 16.8 13.1 4.7 3.3 10.5 7 12.9 8.2 2.4 1.2 6.5 2.6 9.1 3.1 4.7 0.9 4.9 0.7 10.6-9.7 3.2-5.8 5.5-11.4 5.1-12.4-0.4-1.1 0.2-1.5 1.5-1.1 1.8 0.6 0.9 3.2-4.4 13.2-3.6 6.8-6.6 12.8-6.6 13.2 0 0.4 5.5 2.3 12.1 4.2 6.7 2 18 5 25.3 6.7 7.2 1.7 18.1 3.5 24.1 3.9l11 0.9c11.4 14.6 14.8 18.8 15 18.7 0.2 0-4.4-7.1-10.2-15.8-5.9-8.7-15.9-25.1-22.3-36.5-6.5-11.4-11.9-20.4-12.1-20.1-0.2 0.3 1.6 4.6 4 9.4 2.4 4.8 4.1 8.8 3.7 8.8-0.4 0-2.1-2.6-3.7-5.9-1.6-3.2-4.4-6.6-6.2-7.6-1.8-0.9-4.6-2.9-6.2-4.4-1.7-1.5-4-2.8-5.2-2.9-1.2-0.1-3.2-0.3-4.4-0.4-1.2-0.2-6.1-1.1-10.9-2.1-4.9-1-9.8-2.1-11-2.4-1.2-0.4-1.9-1-1.5-1.3 0.4-0.3 5 0.3 10.3 1.3 5.2 1.1 13.4 2.3 18.3 2.8 4.8 0.4-2.1-1.4-15.4-4.2-13.3-2.7-34.7-7.9-47.6-11.5-12.9-3.6-24.7-7-26.4-7.5-1.6-0.4-0.7 0.2 1.9 1.4zm124.1 27c2.4 0.7 3.2 1.3 1.8 1.4-1.4 0.1-3.6 2.3-4.9 4.9-2.2 4.5-2.2 5.2 0.7 11 1.7 3.4 2.8 6.2 2.4 6.2-0.4 0-3.4-4.9-6.6-10.9-3.2-6.1-6.2-10.7-6.6-10.3-0.4 0.4 3.5 8.2 8.6 17.2 5.2 9.1 10.1 16.3 11 16.1 0.9-0.2 1.2 0.5 0.7 1.5-0.5 1 3.4 8.1 8.6 15.7 5.3 7.7 10.8 14.9 12.3 16.1 2.4 1.8 2.5 1.8 0.9 0-1.1-1.2-1.9-2.7-1.9-3.3 0-0.6 1.5-0.7 3.3-0.2 1.9 0.5 4.3 2.2 5.5 3.7 1.2 1.5 6.2 3.8 11 5 4.9 1.3 14.4 2.7 21.3 3.2l12.4 0.9c-6.2-7.7-12.5-15.9-18.1-23.2-5.5-7.2-11.3-15.1-12.7-17.5-1.5-2.5-2.1-3.9-1.3-3.2 0.7 0.7 3.3 4.1 5.7 7.6 2.5 3.5 9.7 13 16.1 21 9 11.2 12.6 14.7 15.4 14.9 3.4 0.1 3.4 0.2 0.8 1.4-2.1 0.9-0.1 1.3 6.5 1.3 5.3 0.1 18.1-0.9 28.6-2.1 10.5-1.2 26.4-3.5 35.5-5.1 9.1-1.6 16.5-3.2 16.5-3.6 0-0.4-4-8.2-8.9-17.2-4.9-9.1-13-25-18-35.3l-9-18.8c-15.9 1.6-32.4 2.5-46.9 3-14.4 0.5-36.5 0.5-49 0-12.5-0.5-28-1.3-34.4-1.8-7.5-0.5-10.1-0.4-7.3 0.4zm267.2 43.1c-10.1 5-26.9 12.1-37.4 15.9-10.4 3.8-24.3 8.5-30.7 10.6-6.4 2.1-9.7 3.5-7.3 3.1 2.4-0.3 6.3-1 8.8-1.6 3.3-0.7 3.8-0.6 2.2 0.6-2 1.4-2 1.6 0 1.7 1.8 0 1.7 0.3-0.3 1.8-1.4 1-2.6 2.3-2.6 2.9 0 0.6 0.6 0.8 1.4 0.4 0.8-0.4 2.9-0.2 4.8 0.6 1.9 0.8 2.3 1.4 1.1 1.5-1.3 0-2.4 1.4-2.6 3-0.3 2.6 0.4 2.9 7.3 2.7 4.2-0.1 9.7-0.6 12.1-1.3 4.2-1 4.2-1.1 0.7-1.4-2.2-0.2-0.1-1.1 5.1-2.2 4.9-1 7.2-1.9 5.2-2-2-0.1-8 0.5-13.2 1.2-5.2 0.7-9.9 1.1-10.3 0.8-0.4-0.4 1.9-1.3 5.2-2.1 3.2-0.8 9.6-2.2 14.2-3 4.8-0.8 8.1-2.2 7.7-3-0.4-0.8 0.5-1.5 1.9-1.6 1.4-0.1 3.2-0.1 4-0.1q1.5 0.2 0-6.4c-0.8-3.6-2-6.5-2.6-6.5-0.6 0-2.9 0.7-5.1 1.5-2.2 0.8-4.2 1.3-4.4 1.1-0.2-0.2 5.8-3 13.2-6.1 7.4-3.2 19.3-8.6 26.3-12.1 7.1-3.5 13.2-7 13.5-7.8 0.4-0.8 0.6-1.5 0.4-1.4-0.2 0.1-8.5 4.2-18.6 9.2zm-109.8 36.1c-6.9 1.5-22.7 3.8-35.2 5.1-12.5 1.3-24.3 2.7-26.3 3.1-3.4 0.7-3 1.1 4.4 5.5 4.4 2.6 13.8 7.8 20.8 11.6 7.1 3.8 13.3 6.9 13.9 6.9 0.6-0.1-1.5-1.7-4.7-3.8-4.3-2.7-4.9-3.4-2.2-2.7 2 0.5 8.6 0.1 14.6-0.9 6.1-1 13.6-2.3 16.9-2.9 3.2-0.6 4.5-1.1 2.9-1.2-1.6-0.1-8.5 0.5-15.4 1.4-8 1-14.5 1-18.3 0.1-5.8-1.3-5.8-1.3 2.9-1.4 4.9 0 12.8-0.8 17.6-1.6 4.8-0.9 13.6-2.2 19.4-3.1 9-1.2 10.4-1.8 9.2-3.7-0.8-1.2-1.2-2.8-0.8-3.6 0.4-0.8-0.2-1.2-1.4-0.8-1.2 0.4-2.6 0.1-3-0.7-0.4-0.8 0.3-1.5 1.5-1.5 1.2 0 1.9-0.6 1.5-1.4-0.4-0.8-2.1-1.2-3.7-0.8-1.6 0.5-2.9 0.3-2.9-0.3-0.1-0.6-3.8-0.6-8.5 0-4.6 0.6-9 0.9-9.8 0.6-0.8-0.3 2.8-1.3 8-2.2 5.3-0.9 11.2-2.2 13.2-3 3-1.2 3.1-1.4 0.7-1.4-1.6 0-8.5 1.3-15.3 2.7z"/><path fill-rule="evenodd" class="c" d="m505.8 59.8c-4.4 0.7-13.3 3.9-19.7 7.1-6.5 3.1-13.1 6.7-14.7 7.9-2.8 2.1-2.8 2.2 0.8 1.4 2-0.5 6.3-0.1 9.5 0.9 5.3 1.6 7.1 1.4 19-2.5 7.3-2.4 17.5-5.4 22.7-6.7 5.2-1.3 16.4-3.1 24.9-4 8.5-1 21.6-1.4 29.3-0.9 10.4 0.6 12.2 0.4 7.3-0.6-3.6-0.7-19.1-2-34.4-2.8-15.3-0.8-29.8-1.4-32.2-1.3-2.4 0.1-8 0.8-12.5 1.5zm-38 2.1c-8.5 1-15.9 1.9-16.5 2-0.6 0-1.1 0.7-1.1 1.5 0 0.8 0.8 1.2 1.8 0.9 1-0.3 3.8-1 6.2-1.6 2.9-0.6 3.9-0.4 2.7 0.5-0.9 0.7-4.9 1.7-8.8 2.1-3.8 0.3-9 1.9-11.4 3.4-2.4 1.5-5.9 4.2-7.7 6-1.8 1.9-3.1 3.6-2.9 3.9 0.2 0.3 5.6-0.4 12-1.5 7.5-1.3 15.5-4 22-7.3 5.6-2.9 13.9-6.8 18.3-8.7 5.5-2.3 6.9-3.4 4.4-3.3-2 0.1-10.6 1-19 2.1zm-39.9 7.3c1.1 0.4-0.1 2.5-3.3 5.8-4.6 4.5-6.2 5.2-14.3 5.7-5 0.3-7.7 0.3-5.9 0 1.8-0.3 3.3-1.3 3.3-2.1 0-0.8-0.1-1.4-0.3-1.4-0.2 0-3 0.9-6.3 2.1-3.2 1.1-6.1 2.8-6.5 3.8-0.6 1.4 0.7 1.6 5.1 0.9 3.2-0.5 9.8-1.3 14.6-1.8 8-0.8 9.2-1.4 12.8-6.3 2.2-2.9 3.7-5.8 3.3-6.4-0.4-0.6-1.5-1.1-2.5-1-1.5 0.1-1.5 0.2 0 0.7zm107.9 1.6c-8 1.2-21.2 4.3-29.2 6.9l-14.7 4.7c10.8 5 13.8 6.8 13.6 7.2-0.2 0.4-4.4-0.7-9.2-2.4-7.8-2.9-9.3-3-13.9-1.3-2.8 1.1-9.1 4.3-13.9 7.1-4.8 2.8-13.9 8.5-20.2 12.6-6.3 4.1-11.2 7.6-11 7.8 0.3 0.3 4.4-1.3 9.2-3.3 4.9-2.1 14.4-5.4 21.3-7.3 6.8-1.9 18.3-4.9 25.6-6.6 7.2-1.7 19.1-4 26.3-5.1 7.3-1.1 20.8-2.5 30.1-3.1l16.8-1c-13-11.6-16.8-15.6-16.8-16.4 0-0.8 4.1 2.6 9.1 7.5l9.2 9c20.4 1.5 33.2 2.9 41.7 4.1 8.4 1.2 16.7 2.5 18.3 3 2 0.6 0.8-1.4-3.7-5.9-3.6-3.8-11.8-9.6-18.3-13l-11.7-6.1c-35.5-0.5-49.5 0.2-58.6 1.6zm72.9-1.3c-1.2 0.7 1.2 3.1 7 6.9 4.9 3.2 11.4 8.8 14.4 12.5 5.2 6.1 6.4 6.8 17.9 9.4 6.8 1.5 15.1 4 18.5 5.5 3.5 1.4 7.1 2.7 8.1 2.7 1.3 0.1 1.2-0.6-0.4-2.4-1.2-1.4-6.8-5.5-12.4-9.1-5.7-3.7-15.2-8.8-21.3-11.5-6-2.7-12.4-4.9-14.2-4.9-1.8 0-6-1.6-9.2-3.6-3.2-2.1-5.6-4.4-5.3-5.2 0.3-0.8 0.2-1.4-0.4-1.4-0.5 0-1.7 0.5-2.7 1.1zm5.5 0.8c0.4 0.3 8 3 16.8 6 8.9 3.1 19.4 7.2 23.5 9.2 4 2 11.6 7.4 16.8 12.1 7.1 6.3 13.2 10 24.2 14.7 8 3.4 22.2 10 31.4 14.7 9.3 4.6 20.3 10.8 24.6 13.7 4.2 2.9 7.6 4.9 7.6 4.5 0-0.4-1.5-2.2-3.3-4-1.9-1.8-6.6-6.8-10.6-11.2-4-4.3-6-7.2-4.4-6.4 1.7 0.9 6.8 5.6 11.4 10.5 4.6 4.9 8.4 9.6 8.4 10.4 0 0.8 4.1 4 9.2 7.1 5 3.1 15.4 10.9 23 17.3 7.7 6.5 19.5 17.3 26.4 24.1 6.8 6.7 17.7 19.5 24.1 28.3 6.5 8.8 12.2 16.9 12.8 17.9 0.7 1.1 0.8 2 0.4 2-0.4 0-6.9-7.8-14.4-17.3-7.5-9.4-21.5-24.6-31.1-33.6-9.6-9.1-24-21.4-32.1-27.4-8-6-14.8-10.8-15.1-10.6-0.2 0.1 1.5 3.6 3.9 7.6 2.3 4 5.1 10.1 6.2 13.5 1.3 3.8 2.5 5.5 3.1 4.4 0.5-1 1.6 0.6 2.4 4 0.8 3.3 1.9 8.2 2.5 11 0.7 3.8 1.3 4.6 2.2 3 1-1.9 1.9-1.9 6.6 0.7 2.9 1.6 7.1 4.9 9.2 7.4 2.2 2.5 6.4 6.3 9.4 8.4 3.4 2.5 5.2 4.8 4.8 6.2q-0.8 2.2 2.9 2.9c2 0.4 3.3 1.4 2.9 2.2-0.4 0.8 0.6 2.9 2.2 4.7 1.6 1.9 2.6 3.5 2.2 3.7-0.4 0.2-3.9-1-7.7-2.7l-6.9-3c4.5 4.8 6.5 6.1 7.3 6.1 0.8 0 4.4 2 8 4.4 5.4 3.6 5.9 4.4 3 4-2.1-0.3-6-2-8.8-3.8-2.8-1.7-5.6-3.2-6.2-3.2-0.6 0-1.4 0.5-1.8 1.1-0.4 0.6 7.3 9 17.1 18.7 9.8 9.7 16.8 16.4 15.7 14.9-1.2-1.4-1.6-2.6-1-2.5 0.6 0 5.3 5.1 10.5 11.4 5.3 6.2 9.4 11.7 9.3 12.1-0.1 0.4 0.3 1.9 0.8 3.3 0.6 1.5 1.7 2.1 2.8 1.4 1.1-0.6 1.4-0.5 0.8 0.4-0.6 0.8 0.6 3.9 2.6 7 1.9 3 4 5.4 4.7 5.5 0.6 0 0.5-5.8-0.1-12.9-0.7-7-2.2-17.4-3.4-23-1.2-5.7-3.4-12.9-4.8-16.1-1.5-3.3-4.4-9.5-6.4-13.9-2.1-4.5-7.2-12.1-11.3-16.9-4.2-4.8-10.3-12.7-13.6-17.6-3.3-4.8-9.2-12.7-13.1-17.5-3.9-4.9-10.5-12.4-14.7-16.8-4.2-4.3-6.4-7-4.8-5.9 1.6 1.1 4.8 3.7 7 5.8 2.3 2 4.1 3 4.1 2.2 0-0.8-1.2-2.4-2.8-3.6-1.5-1.2-9-7.2-16.5-13.3-7.6-6-17.7-14-22.5-17.6-4.8-3.6-13.1-9-18.3-11.8-5.2-2.9-16.8-9.2-25.6-14-8.9-4.9-22.7-11.8-30.8-15.5-8-3.6-19.2-8.6-24.9-11-5.9-2.6-10.5-3.9-11-3-0.4 0.8-2.8 0.2-5.8-1.5-2.8-1.6-11.9-5.2-20.1-8.1-8.3-2.9-16.5-5.3-18.4-5.3-1.8 0-2.9 0.2-2.5 0.5zm-200.6 6.1l-3.7 2.1c5.7 0.1 8.7-0.8 10.3-2l2.9-2.2c-4.5 0-7.5 1-9.5 2.1zm54.4 2.2c-3 0.4-7.8 2.5-10.6 4.5-2.7 2.1-11.7 10.5-19.9 18.7-8.2 8.2-14.5 14.9-13.9 14.9 0.5 0 4.4-2.4 8.6-5.5 4.2-3 13.5-9.2 20.5-13.7 7.1-4.6 16.8-10.3 21.7-12.7l8.7-4.4c-7.4-2-12-2.2-15.1-1.8zm-32.5 6c-2.8 0.7-6 1-7.2 0.7-1.5-0.4-3 1.7-4.8 6.3-1.4 3.7-3.7 10.6-5.1 15.2-1.4 4.6-2 8.4-1.3 8.4 0.7 0 8.6-7.2 17.4-16.1 16-16 16.1-16.1 11.1-15.9-2.7 0-7.2 0.7-10.1 1.4zm-19.7 1.3c-2.4 0.7-7.4 1.2-11 1.4-3.6 0.1-7.6 0.7-8.8 1.5-1.9 1.1-1.9 2.2 0.5 9.1 1.5 4.3 4.6 11.1 6.9 15.1 3.6 6.6 4.2 7.1 5.5 4.4 0.7-1.6 2.5-6.5 4-11 1.4-4.4 4-11.1 5.7-15 1.8-3.8 2.9-6.8 2.4-6.7-0.5 0-2.8 0.6-5.2 1.2zm-42.1 7.4c-6 2.5-6.8 3.3-5.9 5.9 0.7 1.9 3.8 3.9 8.4 5.5 4.1 1.4 11.5 5.3 16.5 8.7 5.1 3.4 9 5.7 8.8 5.1-0.2-0.6-2.1-4.4-4.2-8.4-2.1-4-4.8-10.1-5.9-13.6-1.8-5.5-2.5-6.2-6.4-6.2-2.4 0.1-7.5 1.4-11.3 3zm155.3 0.5c-6.9 0.9-13 2.1-13.4 2.6-0.5 0.5 0.1 3.5 1.3 6.6 1.2 3.1 2.2 7.3 2.1 9.3v3.7c26.7-1.4 32.1-1.2 29.3-0.6-3.4 0.7-1.1 0.9 6.6 0.6 7.1-0.4 10-0.1 7.3 0.5-3.7 1-2.8 1.3 5.9 2.2 5.6 0.6 11.9 1.3 13.9 1.5 2 0.2 2.8 0.2 1.8-0.1-1-0.3-1.6-1-1.2-1.6 0.3-0.6 0.1-3.7-0.6-6.9-0.6-3.3-1.7-7.2-2.4-8.8-1.2-2.9-1.1-2.9 1.7 0.1 1.7 1.8 5.8 3.5 10.2 4.1 4 0.6 9.9 0.7 13.2 0.1 3.4-0.5 8.5-0.2 12.4 1 6.1 1.7 6.3 1.9 2.9 2.9l-3.6 1c6.2 0.2 10.5 1.6 13.5 3.2 3 1.7 5.3 3.1 5 3.3-0.2 0.2 0.3 2.2 1.1 4.4 1.5 3.8 1.3 4.1-2.4 4.6-2.2 0.3-8.3-0.7-13.6-2.3-5.2-1.6-10-2.6-10.7-2.4-0.6 0.3 5 2.2 12.5 4.4 7.5 2.1 14.8 4.3 16.2 4.7 2.3 0.8 2.5 0.1 1.8-6.8-0.4-4.2-1.2-9-1.7-10.6-0.5-1.7-0.3-2.4 0.4-1.7 0.7 0.7 2.1 5.6 3 11 1.4 8.1 1.7 8.7 1.8 3.9 0.1-3.2-0.7-9.2-1.8-13.2-1.1-4-2.9-8.8-4-10.6-1.2-1.8-4.1-3.9-6.5-4.7-2.4-0.7-9-2-14.6-2.9-5.7-0.9-17.2-2.2-25.6-2.9-8.5-0.8-23-1.4-32.3-1.3-9.2 0-22.5 0.8-29.5 1.7zm-42.9 8.9c-10.5 2.7-29 8.3-41 12.5-12.1 4.2-22.3 8-22.7 8.4-0.4 0.5 1.9 0.4 5.1-0.2 3.2-0.5 10.1-1.6 15.4-2.4 5.2-0.8 17.4-2.4 27.1-3.6 9.6-1.2 24.3-2.2 32.5-2.2h15c-2.3-8.5-3.8-12.5-4.8-14.3-1-1.9-3-3.3-4.7-3.2-1.6 0.1-11.5 2.3-21.9 5zm154.4 0.4c0.9 1.5 2.5 6.2 3.6 10.7 1.2 4.4 2.2 6.7 2.3 5.1 0.1-1.6 0.5-2.3 0.8-1.5 0.3 0.8 1.3 4.5 2.2 8.1 1.3 5.3 1.9 6.1 3 4 0.7-1.4 0.8-3.4 0.2-4.4-0.8-1.3-0.3-1.4 1.9-0.6 1.6 0.7 6.5 2.1 10.9 3.2 4.5 1.1 12.7 3.7 18.3 5.7 5.7 2.1 11.3 4.9 12.6 6.4 1.3 1.4 3.1 5.2 4.1 8.4 0.9 3.2 1.6 7.3 1.6 9.1 0 1.8-0.6 3-1.4 2.6-0.8-0.4-1.5-0.4-1.5 0 0 0.4 2.2 1.7 4.8 2.9 2.6 1.2 5 1.9 5.3 1.5 0.4-0.4-0.1-0.8-1.1-0.8-0.9 0-1.7-1.4-1.7-3.2 0-2.8-0.3-3-1.6-1.1-1.1 1.6-1.3 0.2-0.7-5.2 0.6-5.4 0.4-6.5-0.6-4.4-1.2 2.3-1.3 1.6-0.7-2.9 0.6-4.4 0.4-5.3-0.8-3.7-1.1 1.7-1.3 1.2-0.6-2.1 0.7-3.5 0.5-4-0.8-2.2-1.3 1.7-1.5 1.4-0.6-1.5 0.8-2.7 0.6-3.4-0.6-2.6-1 0.6-1.8 0.5-1.8-0.3 0-0.8 0.7-1.8 1.5-2.2 0.8-0.4 2.6 1.7 4 4.7 1.9 4 4 6 7.7 7.2 3.6 1.1 4.4 1.8 2.5 2.2-1.9 0.3-0.1 1.9 5.8 4.9 4.7 2.4 10.7 6.2 13.3 8.4 2.6 2.2 5.6 4.1 6.6 4.1 1 0-0.1-2.1-2.5-4.8-3.3-3.5-2.8-3.2 2 1.1 3.5 3.2 6 4.7 5.5 3.3-0.5-1.4 3.2 1 8.2 5.4 5 4.3 10.1 9.6 11.3 11.7 1.2 2.1 3.1 3.8 4.1 3.8 1 0 2.1 1.4 2.5 3.2 0.4 1.9 0.7 4.8 0.7 6.6l0.1 3.3c-10.8-6-13.3-7.1-12.5-6.4 0.8 0.8 3.9 3.2 7 5.4 3 2.2 5.1 4.4 4.7 5.1-0.4 0.6 0.4 2.2 1.9 3.7 1.4 1.4 3.2 2.5 4 2.5 0.8 0 0.6-0.6-0.4-1.1-1.1-0.7-2.1-4.8-2.4-9.9-0.3-4.8-0.9-10.4-1.5-12.5-0.8-2.9-0.7-3.1 0.6-1.1 0.8 1.5 2.1 7.1 2.8 12.5 0.9 7.6 1.3 8.5 1.4 4 0.2-3.2-0.9-10.4-2.4-16.1-1.4-5.6-5.3-14.8-8.7-20.5-3.3-5.6-7.9-12-10.2-14.1-2.2-2.1-7.1-5.7-10.7-7.9-3.6-2.2-12.8-7.2-20.5-11-7.6-3.7-18.7-8.6-24.5-10.7-5.9-2.1-11.3-3.5-12.1-3.1-0.8 0.4-1.4 0.2-1.4-0.4 0-0.6-1.8-1.9-4-2.9-2.3-1-12.2-4.1-22.1-7-9.8-2.8-18.6-5.1-19.4-5.1q-1.5 0 0 2.5zm-289.4 5.5c-5.5 2.7-12.6 6.6-15.9 8.5l-5.8 3.6c27.8-1.2 36-0.7 46.1 1.2 7.7 1.4 16.6 2.8 19.8 3.2l5.8 0.7c-9-7.3-14.6-10.9-18.3-12.8-3.6-1.8-10-4.7-14.2-6.3l-7.6-3zm-18.7 1.7c-4.8 2.8-9.8 6.3-11 7.8-1.2 1.5-4.5 3.1-7.3 3.7-2.8 0.6-6.8 2-8.8 3-2 1.1-3 2-2.2 2.1 0.8 0 4.8-0.9 8.8-2.1 4-1.2 8.4-3.5 9.7-5.1 1.3-1.7 3.2-3 4.4-3 1.1 0 5.5-2.7 9.7-5.9 4.2-3.2 7.2-5.8 6.6-5.8-0.6 0-5.1 2.4-9.9 5.3zm157.4 9.6c-10.9 0.5-28.3 2.3-38.8 4-10.5 1.6-19.4 3.3-19.8 3.8-0.4 0.6 3.2 0.7 8.1 0.4 4.8-0.4 15.3-0.1 23.4 0.6 8.1 0.7 20.6 2.6 27.8 4.1 7.3 1.6 14.5 2.9 16.1 3 2.2 0 3.9-2 6.3-7.4 1.8-4 3.1-7.8 2.9-8.4-0.2-0.6-1.7-1.1-3.3-1.1-1.6 0-11.8 0.4-22.7 1zm29.5-0.1c-0.1 1.1-1.9 5.6-3.9 10-2 4.5-3.5 8.3-3.3 8.5 0.2 0.2 3 0.6 6.2 0.8 3.3 0.2 10.3 2 15.8 4 6.2 2.3 9.2 4 8 4.7-1 0.7 0.2 0.8 2.6 0.3 3.1-0.7 3.7-0.5 2.2 0.5-1.9 1.2-1.8 1.5 0.7 2.3 1.6 0.5 3.2 0.6 3.6 0.2 0.3-0.4-0.4-0.8-1.5-0.8-1.5 0-1.6-0.3-0.3-1.1 1.2-0.7-0.1-2.1-3.7-4-2.9-1.6-6.2-3.7-7.2-4.7-1-1-2.7-1.9-3.7-1.9-1-0.1-2.5-1.2-3.4-2.6-1.3-1.9-1.1-3.1 0.7-5.1 1.3-1.4 4.2-2.5 6.4-2.5 2.2 0 4.3-0.5 4.6-1.1 0.3-0.6 6.7-1 14.3-0.9 8.2 0.1 11.9-0.3 9.3-0.9l-4.4-1c6.8-1.2 3.5-1.3-3-1.1-9 0.3-10.3 0.1-5.8-0.8 4.7-1 4-1.1-3.7-0.6-6.6 0.4-8.8 0.1-7.3-0.9 1.6-1-0.8-1.5-8.4-1.5-5.9 0-11.5-0.4-12.6-0.9-1.1-0.5-2.1 0-2.2 1.1zm-183.3 4.9c-1.2 0.3-4.6 0.9-7.6 1.4-4.9 0.7-6 1.7-9.2 8.1-2 4.1-3.7 7.7-3.7 8.1 0 0.4 2.5-0.2 5.5-1.3 3.1-1.2 13.4-3.9 23.1-6 9.7-2.2 22.6-4.4 28.7-4.9 11.1-1 11.1-1 5.9-2.8-2.9-1-13.2-2.1-22.9-2.5-9.7-0.4-18.5-0.4-19.8-0.1zm238.8 0.3c1.3 0.3 2.9 3 3.6 6 1.1 5.2 1.2 5.2 2.2 1.8 0.6-2 1.2-4.7 1.2-5.9 0-1.3-0.5-1-1.2 0.7-1.2 2.8-1.3 2.8-1.4-0.3-0.1-2.5-0.9-3.3-3.4-3.1-2.1 0.1-2.4 0.4-1 0.8zm71.9 5.9c-0.1 3.7 0.5 6.7 1.6 7.4q1.8 1.1 0.7-0.8c-0.6-1-0.9-1.8-0.7-1.8 0.2-0.1 3 1 6.2 2.2 3.2 1.3 6.1 2 6.5 1.5 0.3-0.4 0-0.8-0.7-0.7-0.8 0-2.9-1.3-4.7-3-1.8-1.6-4.3-2.6-5.5-2.2-1.6 0.5-2.3-0.6-2.7-4-0.4-3.9-0.5-3.7-0.7 1.4zm-57.3-2.6c-3.3 0.9-2.8 1.2 3.6 2.6 4 0.9 7.6 1.4 7.9 1 0.4-0.3-0.3-0.6-1.4-0.7-1.3-0.1-0.9-0.6 0.8-1.4 2.2-1 1.4-1.2-2.9-0.6-4.4 0.5-5.1 0.3-2.9-0.7 1.8-0.9 2.1-1.4 0.7-1.3-1.2 0-3.8 0.5-5.8 1.1zm-304.4 5.1c-5.9 2.8-10.8 5.5-10.9 6-0.1 0.4 1.1 0.2 2.7-0.5 1.6-0.7 7.2-3.4 12.4-5.9 5.2-2.5 8.8-4.6 8-4.6-0.8 0-6.3 2.2-12.2 5zm15.2 1.6c-11.9 4.8-17.3 7.8-20.5 11.5-2.4 2.8-6.2 7.6-8.4 10.7-2.3 3.1-3.9 5.8-3.7 6 0.2 0.2 5-2 10.6-5.1 5.6-3 15.1-7.5 20.9-9.9 10.2-4.2 10.9-4.8 14.1-12.1 1.9-4.3 3.3-7.7 3.2-7.7 0 0.1-7.4 3-16.2 6.6zm127-4.1c0.4 0.6 2.4 1.6 4.6 2.2 2.1 0.6 11.9 5 21.8 9.7 9.8 4.7 20.7 10.3 24.1 12.4l6.2 3.9c10.8-8.8 15.6-13.1 17.6-15.1 3.5-3.6 3.6-3.7 0.7-4.5-1.6-0.4-10.1-2.1-19-3.6-8.9-1.6-23.7-3.3-32.9-3.8-9.3-0.6-18.4-1.3-20.3-1.7-1.9-0.4-3.2-0.2-2.8 0.5zm-46.5 2.7c-4.8 1-9.3 1.6-9.9 1.3-0.6-0.4-6.5 0.4-13.2 1.6-6.6 1.3-19.2 4.4-28 7l-15.9 4.6c1.4 10.3 2.1 13.4 2.5 13.6 0.5 0.2 6.2-2.2 12.9-5.3 6.6-3.2 21-9 31.8-13.1 10.9-4 21.5-7.8 23.5-8.4 2.1-0.5 4.2-1.6 4.7-2.3 0.6-0.7 0.9-1.2 0.7-1.1-0.2 0.1-4.3 1-9.1 2.1zm194.8 3.6c-0.6 2.8-2.7 8.2-4.6 12-1.9 3.9-3 6.8-2.4 6.5 0.6-0.3 2-2.8 3.1-5.5 1.6-4 2.3-4.5 3.4-2.8q1.4 2.2 0.3-1.5c-0.7-2.1-0.6-3.2 0.2-2.7 0.8 0.5 1.2-0.8 1-2.9-0.3-3.4-0.2-3.5 1-0.9q1.4 2.8 1.4 0.7c0-1.2-0.5-3.5-1.2-5.1-0.9-2.5-1.3-2.2-2.2 2.2zm-149.3 7.8c6.4 5.9 15.2 15.1 19.7 20.5 6.5 7.9 8.6 9.6 10.9 8.8 1.7-0.6 7.6-3.6 13.2-6.8l10.3-5.8c-10.2-6.5-20.8-11.6-30-15.6-9.3-3.9-18.5-7.7-20.5-8.3-2.7-0.9-3.4-0.7-2.6 0.6 0.8 1.2-0.1 1.2-3.5-0.1-2.5-1-4.8-2.4-5.1-3-0.3-0.6-1.3-1.1-2.3-1.1-0.9 0 3.5 4.9 9.9 10.8zm-13.3-4.2c0.4 2.4 1.7 12.3 3 22 1.2 9.7 2.6 19.7 2.9 22.3l0.7 4.8c15.3-5.5 22.2-8.1 25.3-9.4l5.5-2.3c-6.8-9.7-15.4-19.1-23.5-27.1-13.1-13.1-14.6-14.2-13.9-10.3zm-38.1 2.4c-6.4 2.3-16.6 6.1-22.6 8.5-6.1 2.4-16.1 6.6-22.4 9.5-6.2 2.9-11.3 6.1-11.3 7.1 0.1 1 1.9 3.9 4.1 6.4l3.9 4.6c15.9-12.3 24.5-18.6 29.3-22 4.8-3.3 14.2-8.6 20.9-11.6 6.6-3.1 12.1-5.9 12.1-6.3 0-0.4-0.5-0.7-1.1-0.6-0.6 0-6.4 2-12.9 4.4zm14.3 7.5c-6.4 6.7-17.1 18.3-23.7 26-6.6 7.6-11.5 14.4-10.8 15 0.7 0.7 6.2 1.6 12.2 2l11 0.9c10-26.9 15.3-39.5 18.3-45.4 3-5.8 5.3-10.6 5.1-10.6-0.2 0-5.6 5.5-12.1 12.1zm10.9 0.7c-2.8 6.3-7.5 18.1-10.4 26.4-2.9 8.2-5.2 15.5-5.2 16.1-0.1 0.6 5.2 0.6 11.7 0 6.4-0.6 13.2-1.7 15-2.4 3.1-1.2 3.2-1.8 2.2-12.1-0.6-5.9-2.1-17.2-3.3-25-1.2-7.9-2.8-14.3-3.5-14.3-0.7 0-3.6 5.1-6.5 11.3zm-21.5-2.8c-6.8 3.8-18 11-24.9 16-6.8 5-14.7 11.1-17.6 13.5l-5.1 4.4c8 3.2 11.9 4.6 13.9 5.2 3.3 0.8 4.9-0.5 14.2-11.2 5.7-6.8 15-16.5 20.5-21.8 5.5-5.2 11.4-10.3 13-11.2 2-1.3 2.2-1.8 0.7-1.8-1.3 0.1-7.8 3.2-14.7 6.9zm123 0.4c-4.4 4.2-6.7 6.6-5.1 5.5 2.6-1.8 2.7-1.7 1.1 0.6-1 1.4-2.3 2.3-3 1.9-0.6-0.4-2.7 0.4-4.7 1.7-3.6 2.3-3.6 2.4-0.7 4.4 1.6 1.2 4.2 2.7 5.8 3.5l2.9 1.5c-4.5-3.6-5.3-4.6-4.7-4.6 0.6 0 3.4 1.3 6.2 2.9 2.8 1.7 4.8 3.6 4.4 4.4-0.4 0.8 0.1 2 1.1 2.6 1.3 0.8 1.4 0.5 0.3-1-1-1.6-0.9-2 0.8-1.4 1.2 0.5 2.2 1.7 2.2 2.9 0 1.2 1.2 1.9 3 1.6 1.5-0.2 4.2 0.8 5.9 2.2 1.6 1.5 0.5 0.4-2.6-2.5-3-2.8-5.6-5.9-5.6-6.9 0-1-1.5-2.8-3.3-4l-3.3-2.2c5.9-7.7 7.2-8.1 16.3-8.5 8.4-0.4 12.1 0.3 22.5 4.2 6.9 2.5 14.5 4.6 16.9 4.5 4.4 0 4.3 0-4.4 8.8-4.8 4.8-12 11.2-15.9 14.1-6.5 4.9-7.5 5.2-10.3 3.4-2.9-1.8-2.9-1.8-0.9 0.5 1.3 1.5 3.4 2.2 5.1 1.7 1.6-0.4 9.5-7 17.6-14.5l14.6-13.8c-9.6-4.9-12.9-6.3-13.5-6.2-0.6 0 1.2 1.3 4 3 2.8 1.6 4.4 2.7 3.6 2.5-0.9-0.3-7.3-2.8-14.2-5.6-7-2.8-12.4-5.6-12-6.2 0.4-0.6-0.5-1.5-1.9-1.9-1.4-0.4-2.8-0.4-3.2 0-0.3 0.4 0.3 0.8 1.4 0.8 1 0 1.6 0.3 1.3 0.7-0.3 0.4-1.8 0.4-3.2 0-1.4-0.4-2.2-1.4-1.8-2.2 0.4-0.8-0.9-1.8-2.9-2.2-2-0.4-4.5-0.2-5.5 0.4q-1.8 1.1-0.7-0.8c0.6-1 0.4-1.8-0.4-1.8-0.8 0-2.3-0.3-3.3-0.7-1-0.4-5.5 2.6-9.9 6.7zm-233 1.1c-1.9 1.4-6.6 4.4-10.4 6.6-3.8 2.1-7 4.2-7 4.6 0 0.4 1 0.3 2.2-0.2 1.4-0.6 2-0.4 1.5 0.7-0.4 0.9-2.4 1.7-4.4 1.7-2 0-6.3 1.7-9.5 3.7-3.3 2-6.4 4.5-7 5.5-0.5 1 1.6 0.2 4.8-1.8 4-2.5 5.1-2.8 3.6-1-1.5 1.8-1.6 2.5-0.3 2.5 1-0.1 3.3-1.7 5.1-3.7 1.8-2 3.8-3.3 4.4-2.9 0.6 0.3 0.6 1.6 0 2.7-0.6 1.1-5.7 5.1-11.4 8.9-9.3 6.4-9.9 6.6-6.4 2.4 2.4-2.9 3-4.6 1.8-4.6-1.1 0-2 0.7-2 1.5 0 0.8-3.7 3.9-8.3 7-4.6 3-8.5 6.6-8.8 8-0.2 1.4-1.4 2.6-2.6 2.6-1.4 0-1.8 0.7-1.1 1.8q1 1.8-0.8 0.7c-1-0.6-2.6-0.7-3.6-0.2-1.3 0.7-1.4 1.2-0.2 1.9 1 0.5-2.7 4.8-9.1 10.4-6 5.2-12 11.2-13.3 13.2-1.7 2.5-0.5 1.9 4.1-2.2 3.6-3.2 9.1-8.1 12.3-10.8 3.2-2.7 13.1-10.4 21.9-17.1 8.9-6.7 20.4-14.7 25.7-17.8 7.1-4.3 10.2-7.2 12.4-11.8 1.6-3.3 4.9-8 7.2-10.5 2.4-2.5 3.9-4.5 3.5-4.5-0.4 0-2.3 1.2-4.3 2.7zm30.8 3c-5.1 2.2-15.1 7.1-22.2 10.9-11.6 6.2-12.9 7.4-14.3 12.3-0.8 3.1-1.4 8.2-1.5 11.4 0 3.2 0.3 6.2 0.8 6.6 0.4 0.4 10.1-5.4 21.6-12.9 11.5-7.5 22.3-14 24.2-14.3 3.1-0.6 3.2-1.2 2.3-9.1-0.5-4.6-1-8.5-1.2-8.7-0.1-0.1-4.5 1.6-9.7 3.8zm392.2 12.6c3.4 2 7 3.7 8 3.6 1 0 2.2 0.3 2.6 0.7 0.4 0.4 0.2 4.2-0.4 8.5-0.6 4.2-2.8 11.3-4.8 15.8-2.1 4.4-7.2 13.2-11.3 19.4-7.5 11.2-7.6 11.5-4.8 13.9q2.8 2.5 1.2 0.3c-1.3-1.7-0.4-4 4.1-10.9 3.2-4.9 8.6-14.3 12-21.1 4.1-8.1 6.2-14.2 6.2-17.9 0-3.1 0.5-5.7 1.1-5.7 0.6 0 0.8-0.7 0.4-1.5-0.4-0.8-0.4-1.4 0-1.4 0.4 0 2 0.6 3.6 1.4 1.6 0.8 3 1.2 3 0.8 0-0.4-2.7-2.1-5.9-3.7-3.2-1.6-6.7-2.5-7.7-2.1-1 0.5-4-0.2-6.6-1.4-2.6-1.3-5.2-2.3-5.8-2.3-0.6 0 1.7 1.6 5.1 3.6zm-221.8 5.7c-13.2 7.3-13.4 7.6-11.3 10.8 1.1 1.8 2.8 3 3.6 2.5 0.8-0.4 1.1 0.3 0.7 1.5-0.4 1.2 0.1 2.7 1.1 3.3 1.3 0.8 1.4 0.5 0.4-1.1-1.1-1.6-1-1.9 0.3-1.1 1 0.6 1.5 1.8 1.1 2.6-0.4 0.8 0.3 2.9 1.5 4.7 1.2 1.8 3 3.3 3.9 3.3 1 0 2.1 1 2.5 2.2q0.8 2.2-1 1.1c-1-0.6-1.8-0.9-1.8-0.7 0 0.2 1.1 1.3 2.5 2.6 2.2 1.9 2.3 1.9 1.1 0-1-1.6-0.9-1.9 0.5-1.1 1 0.6 1.5 1.9 1.2 2.9-0.3 1 0 2.8 0.7 4 0.7 1.2 2.1 2.2 3 2.2 1 0 2.1 1 2.6 2.2 0.6 1.7 0.2 1.8-1.4 0.7-1.5-1-1.8-0.9-1 0.4 0.6 1 2.3 1.6 3.7 1.3 1.4-0.3 4.8-2 7.7-3.8 2.8-1.8 3.8-3 2.2-2.6-1.7 0.4-4 1.2-5.2 1.7-1.6 0.7-3.9-1.6-8.3-8.2-3.4-5.1-6.6-11.9-7.1-15.1-0.9-5.5-0.6-6.1 4-8.8 2.6-1.6 6.5-3.1 8.5-3.3 2-0.3 5.6 0.3 8.1 1.3 2.4 0.9 6.3 3.2 8.7 4.9 2.5 1.7 5.4 3.7 6.6 4.4 1.8 1.1 1.9 0.9 0.4-0.8-1-1.2-1.5-2.6-1.1-3.2 0.4-0.6-3.2-3.7-8.1-7-4.8-3.2-9.4-5.5-10.2-5.1-0.8 0.4-1.3 0-1.1-0.8 0.2-0.9-1-2.5-2.6-3.5-2.5-1.6-4.6-0.9-16.4 5.6zm88.9 0.5l-8 8.5 16.1-15.6c9.6 4.7 12.9 6 13.5 6 0.6-0.1-1.6-1.7-4.8-3.7-3.3-2-6.6-3.6-7.4-3.6-0.8 0-5 3.8-9.4 8.4zm-254 1.6c-4.1 2.2-12 7.3-17.6 11.3-5.6 4-13.1 9.3-16.6 11.7-6 4.1-6.4 4.7-5.5 9.5 0.5 2.8 2.3 7.7 3.9 11 1.7 3.2 3.9 7.1 5.1 8.7 2 2.8 2.6 2.5 13.4-8.9 6.3-6.5 17-16.8 23.9-22.9l12.4-11.1c-7.4-8.1-9.5-11.2-9.5-12 0-0.8-0.5-1.4-1.1-1.4-0.6 0-4.4 1.9-8.4 4.1zm517.1 11.6c4.8 5.5 11.7 14.2 15.4 19.4 3.7 5.3 8.2 10.9 10 12.5 1.8 1.6 5.7 6.2 8.7 10.2 3 4 7.6 11.6 10.3 16.9 2.6 5.2 7.9 13.1 11.7 17.5 3.8 4.5 9.6 12.2 13 17.2 3.3 5.1 6.4 9.2 6.8 9.2 0.4 0-1-4.1-3.1-9.2-2.1-5-4.8-10.1-6-11.3-1.3-1.2-1.9-1.4-1.4-0.4 0.5 1 0.5 1.9-0.1 1.9-0.6 0-2-1.8-3.1-4-1.9-3.9-1.9-4 0.6-1.9 2.4 2 2.4 2 1-0.7-0.9-1.7-7.5-11.5-14.7-22-7.2-10.5-13.9-19-15-19-1 0-2.3-1-2.7-2.2-0.6-1.7-0.2-1.9 1.4-0.8 1.1 0.8 0.6-0.7-1.2-3.3-1.8-2.6-3.6-4.7-4-4.7-0.4 0 0.4 1.8 1.8 4 2.4 3.9 2.4 4-0.2 1.8-1.5-1.2-5.7-6.1-9.4-11-3.6-4.8-11-13.5-16.3-19.4-5.3-5.9-10.2-10.7-10.9-10.6-0.8 0 2.6 4.5 7.4 9.9zm-578.8 0c-6.6 4.7-15.7 11.2-20.2 14.7-4.5 3.4-9.1 8-10.2 10.2-1.2 2.2-2.8 8-3.7 12.8-0.9 4.9-1.6 11.3-1.6 14.3v5.5c25.5-23.7 36.7-33.5 41.3-36.9l8.3-6.3c0.1-17.6-0.3-22.7-0.9-22.7-0.6 0-6.5 3.8-13 8.4zm202.2-1c-3.2 1.5-10.3 4.3-15.8 6.1-9.2 3.1-9.8 3.6-9.2 7 0.4 2 1.2 7.6 1.7 12.4 0.7 6.3 1.3 8.2 2.3 6.6 0.9-1.4 1.1 0.6 0.6 5.9-0.5 6.4-0.4 7.1 0.7 3.6 1-3.3 1.2-2.2 0.6 4.8-0.6 8-0.3 9.1 1.9 9 1.4 0 5.2-1 8.4-2.1l5.9-2c-9 1.1-8.1 0.5-1.5-1.9l8.8-3.1c-7.9-2-11.9-3.2-13.9-4-3.3-1.3-3.7-2.3-4-10.6-0.2-5-0.1-10.2 0.3-11.6 0.4-1.5 4.4-4.3 8.8-6.3l8.1-3.6c7.9 5.6 10.2 7.9 10.2 8.8 0 0.8 1.5 2.8 3.3 4.4 2.5 2.3 3.3 4.7 3.3 9.5v6.4c10.2-1 13.4-1.6 13.6-2 0.2-0.4-3-5.9-7.2-12.1-4.1-6.3-8.2-12-9-12.8q-1.5-1.5-0.4 0.7c0.6 1.2-0.2 0.5-1.9-1.5-1.6-2-2.6-4.1-2.3-4.7 0.4-0.6-0.7-3.1-2.3-5.5-1.6-2.4-3.4-4.4-4-4.3-0.6 0.1-3.7 1.4-7 2.9zm-134.3 16.7c-9.1 8.3-19.6 18.8-23.4 23.3-3.9 4.5-6.8 8.5-6.6 8.7 0.2 0.3 2.3 1.9 4.7 3.6 2.4 1.7 9.4 4.8 15.4 6.8 6 2.1 11.5 3.8 12.1 3.8 0.6 0 2-2.2 3-4.8 1.1-2.6 4.8-9.7 8.3-15.7 3.5-6.1 9.6-15.9 13.5-22 3.9-6 6.9-11.1 6.7-11.2-0.2-0.1-4.2-1.9-8.8-3.9l-8.5-3.7zm206.2-12.7c0.4 1-0.1 1.8-1.2 1.7-1.4 0-1.4 0.4 0 2.2 1.5 1.8 1.5 2.8 0.1 4.8-1.5 2.2-1.4 2.3 0.3 0.8 1.1-1 3.1-1.9 4.3-1.9 1.8 0 1.6 0.5-0.6 2.3-2.9 2.2-2.9 2.3 0.3 0.8 2.4-1.1 3-2.3 2.3-4.2-0.9-2.3-0.7-2.3 1.8-0.3 1.6 1.3 2.3 1.4 1.7 0.3-0.5-1-2.9-3.2-5.3-5-2.4-1.8-4-2.4-3.7-1.5zm-104.9 6.8c-0.3 0.4-7.2 1.4-15.2 2.4-8.1 0.9-14.8 1.7-14.9 1.9-0.1 0.1-2.8 9.8-6 21.4-3.2 11.7-6.2 23.1-6.7 25.3-1 3.9-0.8 4 5.6 4 3.6 0 6.6-0.5 6.6-1.1 0-0.6 2.5-0.9 5.5-0.8 4.9 0.3 5.1 0.2 1.8-1-2.8-1-1.7-1.2 4.4-0.7 6.2 0.4 7.2 0.3 4.4-0.8-3.1-1.2-2.7-1.3 2.2-0.8 3.2 0.4 7.8 0.3 10.3-0.2 3.9-0.8 4-1 1.4-2.1-2-0.8-1-1 3.2-0.8 3.4 0.1 6.2-0.2 6.3-0.8 0-0.6 0-3.6-0.1-6.6-0.1-4.4-0.3-4.9-1.3-2.6-0.9 1.9-1 0.4-0.5-4.4 0.4-4 0.2-6.5-0.5-5.6-0.7 1-1.2-1.5-1.3-5.9 0-4.1-0.4-10.6-0.9-14.5-0.5-3.8-1.6-6.9-2.3-6.9-0.7 0-1.6 0.3-2 0.6zm-71.5 14.8c-4.9 7.6-10.9 18-13.4 23-2.5 5-5.7 10.3-7 11.7-1.3 1.4-1.8 3.1-1.2 3.7 0.7 0.6 8.3 1 16.9 0.9 9.8-0.1 14 0.3 11.2 1-3.1 0.8-1.5 1 5.7 0.9l10.1-0.3c9.6-36.3 12.8-47.8 13.3-49 0.8-1.8-1.3-2.5-11.1-4-6.7-1-12.9-1.9-13.9-1.9-0.9 0-5.7 6.3-10.6 14zm439.4-6.6c-0.3 5.2 0.4 7.2 3 9.5 2.5 2.2 2.9 2.3 1.5 0.3-1-1.4-1.2-2.7-0.4-2.9 0.9-0.2 0.9-1.1 0-2.5-1.1-1.9-1.4-1.8-1.6 0.7-0.1 1.6-0.7-0.4-1.3-4.4l-1-7.3zm-19.9-1.5c0.8 1.2 1.4 2.6 1.4 3.1 0 0.5 3 4.1 6.6 8.1 6.2 6.8 6.4 6.9 5.5 2.7-0.6-2.6-0.4-3.8 0.3-2.9 0.8 0.8 1.6 3.4 2 5.8 0.6 4.2 0.6 4.2 0.8-0.7 0.1-4-0.7-5.7-3.9-7.9-2.1-1.6-6.2-4.6-9-6.6-2.8-2.1-4.4-2.8-3.7-1.6zm-512.5 11.2c-5.7 4.6-17 15-25.2 23.1-14.2 14-14.9 15-13.8 19.2 0.6 2.4 2.9 7.6 5.1 11.7 2.1 4 7.1 10.6 11 14.6l7.2 7.3c16-23.8 25.3-36.5 31-43.5l10.3-12.8c-7.7-12-10.5-18.2-11.3-21.6-0.8-3.5-2-6.3-2.8-6.3-0.7 0-5.9 3.8-11.5 8.3zm305.2-2.4c0 0.4 6.1 6.5 13.6 13.5l13.6 12.7c5.7-6.1 6.1-6.8 4.7-5.7-2.3 1.9-2.6 1.9-2.5 0 0-1.2-0.5-1.7-1.1-1.1-0.6 0.6-2.1 0.3-3.3-0.7-1.9-1.4-1.9-1.4-0.4 0.4 1.1 1.2 1.9 2.8 1.9 3.6 0 0.8-3.5-1.8-7.7-5.9-4.3-4-10.2-9.6-13.2-12.4-3.1-2.8-5.6-4.8-5.6-4.4zm-350.6 9.5c-1.2 2.8-2.8 5.5-3.7 5.9-0.9 0.4-0.8-0.5 0.1-2.6 1.2-2.5 0.7-2.3-2.3 1.1-2.1 2.4-5.8 6.5-8.1 9.2-2.4 2.6-5 4.4-5.8 4-0.8-0.4-2.2 0.4-3.3 1.8-1.5 2.2-1.5 2.4 0.5 1.1 1.2-0.8 1.1-0.5-0.3 0.7-1.4 1.3-2.1 2.8-1.6 3.6 0.6 0.7 0.3 0.9-0.7 0.3-1.2-0.6-4.1 1.8-7.5 6-3.1 3.9-6 7.6-6.5 8.4-0.4 0.9-2.2 7.8-3.9 15.4-2.1 9.5-3 17.8-2.7 26.1l0.4 12.2c14.9-22.3 24.9-36.5 31.9-46 9.8-13.2 12.8-18.3 12.8-21.9 0-2.6 0.9-10.6 1.9-17.6 1-7 1.7-12.8 1.5-12.8-0.3 0-1.5 2.3-2.7 5.1zm577.8-1.1c0.1 1.4 0.6 3.9 1.1 5.5 0.5 1.7 2 3 3.3 3 1.3-0.1 6.2 2.8 11 6.4 4.7 3.5 7.5 5.1 6 3.6-1.4-1.5-2.2-3.1-1.8-3.5 0.4-0.4-1.7-3-4.6-5.8-2.9-2.9-4.9-4.3-4.4-3.3 0.5 1 0.5 1.8-0.1 1.9-0.6 0-2.1-1-3.3-2.3-1.2-1.3-1.6-2.3-0.8-2.2 0.8 0.1 0.2-1.3-1.4-2.9-1.6-1.7-3.4-3-4.1-3-0.6 0-1 1.2-0.9 2.6zm-290.4 1.2c-2.2 1.1-3.7 2.8-3.3 3.6 0.4 0.8 1.5 0.9 2.5 0.3 1.2-0.7 1.5-0.4 0.8 1.1-0.5 1.2 0 3.6 1.2 5.2 2.1 2.7 2.1 2.7 0.6-0.8-1.5-3.3-1.3-3.3 2.3 0.8 2.8 3.1 3.6 3.5 2.8 1.4-0.6-1.6-1.5-4.1-2-5.5-0.6-1.6 0.1-3.3 2-4.7 1.6-1.2 2.1-2.1 1.1-2.2-1 0-2.1 0.6-2.5 1.4-0.4 0.8-1.9 1.5-3.3 1.5-2.3 0.1-2.3-0.2 0.3-2.1 1.6-1.2 2.6-2.2 2.2-2.2-0.4 0-2.5 1-4.7 2.2zm75 8.5c4.4 4.8 7.1 8.3 5.9 7.9-1.6-0.5-2.2 0.3-2.2 2.7 0 1.9 0.3 3.5 0.7 3.5 0.4-0.1 1.9-1.2 3.3-2.6 1.5-1.4 2.6-1.9 2.6-1.1 0 0.9-0.5 2.2-1.1 3-0.6 0.8-0.2 0.6 1.1-0.4 1.8-1.6 0.7-3.2-8.1-11.7-9.8-9.5-9.9-9.6-2.2-1.3zm-87.5-2.6c-1 0.3-1.5 1.1-1.1 1.7 0.3 0.6-1.8 2.3-4.8 3.8-3 1.5-6.4 2.5-7.6 2.1-1.3-0.5-2.2 0.1-2.2 1.3 0 1.5 0.9 1.8 3.6 1 2.1-0.7 7.2-1.2 11.4-1.2 6.9 0 7.6-0.3 6.8-3-0.7-2.5-0.3-2.4 2.4 0.8l3.2 3.6c-3.4-5.7-5.1-7.5-6-7.7-0.9-0.2-2.1-0.3-2.8-0.4-0.6 0-0.1-0.6 1.1-1.4 2-1.3 2-1.4 0-1.3-1.2 0-3 0.3-4 0.7zm113.4 6.5c-2.1 2.4-4.1 5.7-4.3 7.3-0.2 1.8 1.4 4.6 4 7l4.4 4c-7.9-8.4-8.3-9.5-6.6-10.2 2-0.7 2-0.9 0-1.7-1.7-0.7-1.1-1.9 2.9-5.8 2.7-2.8 4.7-5 4.3-5-0.4 0-2.5 1.9-4.7 4.4zm-139.4 4.4l-2.9 1.2c4.5 0.4 0.9 2.1-5.1 4-6.1 1.9-11.7 3.5-12.5 3.5-0.8 0-0.4-0.6 0.8-1.4 1.2-0.8 1.5-1.4 0.7-1.4-0.8 0-2.3 0.4-3.3 1-1.3 0.8-1.5 3.3-0.9 8.4 0.7 5.4 1.3 6.6 2 4.4 0.8-2.2 1.5-0.9 2.7 5.1l1.6 8.1c-0.9-12.4-0.3-16.1 1.5-19.3 1.9-3.3 4.9-5.4 10.9-7.6 4.5-1.7 8.8-3.1 9.7-3.1 0.8 0 1.7-0.7 2.2-1.5 0.4-0.9-0.6-1.1-2.6-0.6-2.6 0.7-2.9 0.5-1.1-0.7 1.2-0.9 1.5-1.5 0.7-1.5-0.8 0.1-2.8 0.7-4.4 1.4zm-184.4 11.4c-4.8 6.2-13.6 18.2-19.5 26.6-5.9 8.5-10.7 15.9-10.6 16.5 0 0.6 2.5 2.5 5.5 4.2 3 1.7 8.5 4.8 12.1 6.8 3.6 2.1 10.9 5.3 16.1 7.2 5.2 2 10.2 3.3 11 3 0.8-0.4 3-4.5 5-9.3 1.9-4.7 8.2-18.2 13.9-29.8 5.6-11.7 10.5-21.6 10.7-22 0.2-0.4-2.7-1.6-6.5-2.6-3.9-1-11.6-4.2-17.3-7-5.6-2.8-10.5-5-10.9-5-0.4 0-4.7 5.2-9.5 11.4zm308.7-2.3l-2.7 3.3c4.9-4 6.7-5.1 7.2-5.1 0.4 0 0.4 0.8-0.2 1.8-0.5 1-0.3 1.3 0.4 0.7 0.7-0.6 6.9 4.3 13.8 11l12.4 12.1c-20.4-21-26.7-27.1-27.2-27.1-0.5 0-2.1 1.5-3.7 3.3zm-159.4 0.7c-3.5 0.5-4 0.9-2.2 2.1 1.6 1 0.7 1.1-2.9 0.5-3.9-0.7-4.6-0.5-3 0.7 1.7 1.1 0.6 1.4-4.4 0.8-5.2-0.6-5.8-0.4-2.9 0.7 2.8 1 1.6 1.2-5.1 0.8-6.6-0.5-7.7-0.3-4.4 0.7 3.2 0.9 1.6 1.1-5.9 0.7-8-0.4-9.1-0.3-5.1 0.7 4.1 1.1 3.3 1.2-4 0.7l-9.2-0.7c-4.7 22.1-5.7 29.4-5.2 30.4 0.5 1 0.2 1.8-0.6 1.8-0.9 0-1.2 2.6-0.8 6.3 0.6 4.8 0.4 5.5-0.7 3.3-1.2-2.3-1.3-1.6-0.7 3.2 0.4 3.9 0.2 6-0.7 5.5-0.9-0.4-1.8 3.1-2.3 8.5-0.5 5-0.6 9.1-0.4 9.1 0.3 0 6.7-0.4 14.4-0.8 12.2-0.7 12.8-0.9 5.1-1.3l-8.8-0.5c18.2-1.9 24.4-2.8 25.6-3.2 1.2-0.4-2.1-0.4-7.3-0.2-5.2 0.3-10.7 0.1-12.2-0.4-1.5-0.5-3.9-2.9-5.4-5.3-2-3.4-2.4-6-1.6-11 0.7-5 2.7-8.7 8.3-15.2 4-4.7 8.9-9.8 10.9-11.4 2-1.5 3.3-3 2.9-3.5-0.4-0.4-4.3 2.9-8.7 7.4-4.5 4.5-9.8 9.2-11.8 10.6l-3.6 2.5c4-5.6 5.1-8.5 5.1-10.2 0-1.6 2.1-6.1 4.7-10 2.7-4 5.8-7.7 7-8.3 1.2-0.7 5.2-2.2 8.8-3.5 3.6-1.2 7.9-2.3 9.5-2.2 2.3 0 1.6 1.2-3.6 5.8-3.7 3.2-6 5.8-5.2 5.8 0.8 0 4.5-2.7 8.1-6 5.7-5.2 7.4-6 13.2-5.9 3.6 0 7 0.6 7.6 1.2 0.5 0.7 2.3 7.4 4 15.1 1.7 7.6 3.4 17.9 3.8 22.7 0.6 7.1 0.3 9.3-1.8 11.7-1.5 1.6-4.3 3.7-6.3 4.6-3.2 1.5-2.3 1.7 5.8 1.4 6.3-0.2 9.6-0.9 9.6-2 0-1-0.3-3.9-0.5-6.6-0.4-4-0.7-4.3-1.7-1.8-1 2.5-1.4 2-2.4-2.9-0.7-3.2-1.2-9.8-1.2-14.7 0.1-5.4-0.2-7.3-0.8-5.1-0.8 2.8-1.4 1.2-3-7.3-1-6-2-14.4-2-18.7 0-4.2-0.4-7.6-0.8-7.4-0.5 0.1-2.8 0.4-5.2 0.8zm398.7 3.3c1 1.2 1.4 2.6 1 3-0.4 0.4 1 1.7 3.1 2.9 2.1 1.2 8.1 7.1 13.5 13.1 5.4 6 12.2 14.1 15.3 17.9 3 3.9 5.5 7.5 5.5 8.2 0 0.6 1.1 2.4 2.4 4l2.3 2.9c-1.6-4.9-1.5-5.4-0.5-4.4 0.8 0.8 3.4 5.3 5.9 9.9 2.8 5.3 4.6 10.7 4.6 14.6 0.2 5.3 0.4 5.7 1.4 2.6l1.1-3.7c0.2 5.7 0.5 7 0.8 6.6 0.3-0.4 1-4.2 1.5-8.4 1-7.6 0.9-7.7-6-14.6-3.8-3.9-5.6-6-4-4.8 2.2 1.7 2 1-0.9-2.9-2.2-2.8-4.5-5.2-5.2-5.2-0.7 0-2.1-0.5-3.1-1.1-1-0.6-1.8-1.9-1.9-2.9 0-1.3 0.7-1.2 2.6 0.4 1.9 1.5 1.8 1.2-0.3-1.1-1.6-1.8-3.3-3-3.7-2.6-0.4 0.5-2.2-0.7-4-2.5-1.9-1.8-3.4-4-3.4-4.8 0-0.8 1.5-0.1 3.4 1.4 1.8 1.6 1 0.5-1.8-2.5-2.8-3.1-5.3-5.5-5.5-5.5-0.2 0-0.1 0.7 0.4 1.5 0.4 0.8 0.5 1.5 0.3 1.5-0.2 0-6.2-5.7-13.4-12.8-7.2-7.1-12.3-11.9-11.4-10.7zm-505.8 16.4c-4.2 8.3-10.7 22.4-14.4 31.2-5 11.8-6.4 16.5-5.2 17.6 0.9 0.8 4.8 1.5 8.8 1.5 4 0 6.3 0.5 5.4 1.2-1 0.6 1.6 0.8 5.6 0.3 5.4-0.6 6.6-0.4 4.4 0.7-2.1 1.1-0.1 1.3 7.3 0.8 6.7-0.4 8.7-0.2 5.9 0.6-3.3 0.8-1.6 1.2 6.9 1.3 6.3 0.1 12.4 0.5 13.6 0.9 1.3 0.4 2.4-0.3 2.8-1.8 0.3-1.4 0.9-5.9 1.4-9.9 0.5-5.5 0.4-6.4-0.6-3.7-1.2 3.2-1.3 3-0.7-1.4 0.4-2.8 1.1-8.1 1.7-11.7 0.8-5.4 1.2-6.1 2.2-3.7 0.8 1.9 1 0.6 0.5-3.7-0.6-5-0.4-5.9 0.8-3.6 1.1 2.2 1.3 1.4 0.8-3.7-0.5-4.8-0.3-6 0.8-4.4 1.1 1.7 1.3 1.1 1-2.4-0.3-2.5 0-4.3 0.6-4 0.6 0.3 1.5-1.6 1.9-4.2 0.4-2.6 0.7-5.7 0.7-7 0-1.7-3.5-2.3-18.7-3.2-10.3-0.6-20.3-1.4-22.3-1.9-3.4-0.8-4.2 0.1-11.2 14.2zm-151-11.6c-0.8 1-3.9 6.4-6.8 12.1-2.9 5.6-4.2 8.6-2.7 6.7 1.4-2 4.6-7.4 7.2-12.1 2.5-4.7 4.4-8.5 4.2-8.5-0.3 0-1.1 0.8-1.9 1.8zm40.5 8.7c-2.8 3.5-9.1 11.9-14 18.7-4.8 6.9-12.7 18.4-17.4 25.7-7.5 11.7-8.4 13.7-7.5 18.3 0.5 2.8 3.8 10.7 7.2 17.5 3.4 6.9 8.7 16.1 11.7 20.5 3 4.5 5.8 7.9 6.2 7.7 0.4-0.2 4.3-7.4 8.6-16.1 4.3-8.6 12.3-23.6 17.8-33.3 5.4-9.7 11.8-20.4 14.1-23.8l4.2-6.2c-8.2-7.4-12.7-12.5-15.3-16.1-2.6-3.6-5.6-8.9-6.7-11.7-1-2.8-2.3-5.7-2.8-6.3-0.5-0.7-3.3 1.7-6.1 5.1zm677.4 8.5c1.2 6 2.1 17.7 2.2 26v15c13.3 22.1 19.4 33.2 22.3 38.8 2.8 5.6 7.4 15.8 10.2 22.7 2.8 6.8 6.5 16.6 8.3 21.6 1.7 5 3.1 10.9 3.1 13.2 0 3.1 0.3 3.5 1.4 1.8 0.8-1.2 1.5-7.8 1.5-14.6 0-6.9-0.7-18.8-1.5-26.4-0.8-7.7-2.7-18.5-4.3-24.2-1.5-5.6-4.9-16.1-7.5-23.4-3.1-8.5-8.2-18.1-14.3-27.1-5.2-7.6-11.1-16.9-13-20.5-2.2-4.1-3.2-5.2-2.8-2.9 0.8 3.5 0.7 3.5-1.3 0.7-1.1-1.6-1.8-3.4-1.4-4 0.4-0.6-0.6-2.6-2.2-4.4l-2.9-3.3zm-724.4 5.4c-0.5 1.5-1.4 5.3-1.9 8.5-0.7 4.1-1.4 5.2-2.2 3.7-0.9-1.8-1.4-1.6-2.7 1.1-0.9 1.8-2.3 2.9-3.1 2.5-0.8-0.4-1.1 0.1-0.7 1.1 0.5 1-0.5 5.7-2.2 10.3-1.6 4.6-3.5 8.1-4.1 7.7-0.6-0.4 0.1-3.5 1.5-7 1.5-3.4 2.3-6.5 1.9-6.9-0.5-0.4-2.5 3.2-4.6 8-2.2 4.9-5.8 14.7-8.1 22-2.8 8.9-4.2 16.3-4.2 22.7 0 5.9-0.5 8.9-1.3 8-0.8-0.8-1.7-2.8-2.1-4.4-0.4-1.6-0.8 0.7-0.9 5.2-0.2 4.4-0.9 9.3-1.6 10.9-1 2.4-1.3 2.1-1.4-2.2 0-2.8 0.9-10.7 2.2-17.5 1.2-6.9 1.9-12.8 1.6-13.2-0.4-0.4-1.5 2.6-2.4 6.6-0.9 4-2 14.6-2.5 23.4-0.4 8.9-0.4 21.2 0.1 27.5 0.6 6.2 1.5 11.3 2.1 11.3 0.6 0 2-4.1 3.2-9.1 1.1-5.1 5.5-17.4 9.6-27.5 4.1-10.1 11.2-25.2 15.9-33.7 4.7-8.4 8.5-16.7 8.6-18.3 0-1.6-0.4-8.5-1-15.3-0.6-7.1-0.4-15.7 0.4-19.8 0.8-4 1.3-7.5 1.2-7.8-0.2-0.3-0.8 0.7-1.3 2.2zm286.4 17.3q0.1 11.7 1.2 8.1c0.8-2.7 0.9-2.2 0.4 1.8-0.6 4.9-0.3 5.5 2.6 5.5 2.6-0.1 2.8-0.3 1.1-1.4-1.8-1-1.6-1.4 1.1-2.1 1.8-0.5 4.8-0.5 6.6-0.1 2.6 0.7 2.8 0.5 1.1-0.7-1.2-0.8-1.5-1.6-0.7-1.7 0.8-0.2-0.9-0.7-3.7-1.2-4.9-0.8-5.2-1.3-7.5-10.4l-2.3-9.5zm-215.1 17.9c-5.6 9.5-15.6 28.1-22.3 41.4l-12.2 24.2c12 10.8 21.4 18 28.7 22.9 7.2 4.9 17.6 11.1 23.1 13.8 5.4 2.8 10.3 5 10.9 5 0.6 0 2.7-7.7 4.6-17.2 1.9-9.5 6-26.1 9-37 3.1-10.9 8-26.2 10.9-34 4.1-11.4 4.7-14.3 3-14.3-1.2 0-8-2.5-15-5.6-7.1-3-16.6-8-21.2-10.9-4.7-3-8.7-5.5-8.9-5.5-0.3 0-5.1 7.8-10.6 17.2zm218.2 1.4c-0.7 0.5-1.1 2.3-0.9 4 0.2 2.5 0.5 2.7 1.6 0.9 1-1.8 1.5-1.3 2.3 2.1 0.5 2.5 1.2 5.1 1.4 5.9 0.3 0.8 0.6-0.7 0.6-3.3 0.1-3.2 1.2-5.5 3.4-7 3.2-2.2 3.1-2.3-2.5-1.5-4.3 0.6-5.1 0.5-3-0.5 2.2-1.1 2.4-1.4 0.7-1.5-1.3-0.1-2.9 0.3-3.6 0.9zm-13.2 3c-3.7 0.6-3.9 0.9-1.4 1.8 2.2 0.8 0.9 1.6-5.9 3.3l-8.8 2.3c10.2-0.1 14.7 0 16.5 0.1 2.7 0.2 3.8 1.7 5.6 7.9 1.3 4.2 2.5 7.4 2.8 7 0.3-0.5-0.1-4.1-0.9-8.1-0.7-4-1.1-9.1-0.8-11.4 0.3-2.2-0.2-3.9-1.1-3.8-0.9 0.2-3.5 0.6-6 0.9zm-143.9 4.8c-0.3 1.2-2.9 8.8-5.6 16.8-2.8 8.1-6.6 20.3-8.6 27.1-1.9 6.9-5.5 22.3-7.9 34.4-2.5 12.1-4.1 22.3-3.6 22.7 0.4 0.4 4.2 1.9 8.4 3.3 4.1 1.4 8.8 2.2 10.4 1.7 2.5-0.6 2.6-0.5 0.8 0.9-1.8 1.4-1.5 1.6 1.6 1.2 2.1-0.3 3.7-0.2 3.4 0.2-0.3 0.4 3.4 1.9 8.2 3.3 4.8 1.4 9.5 2.2 10.6 1.7 1-0.6 5.7-0.1 10.6 0.9 7 1.6 8.2 2.2 5.8 3.2-1.9 0.8-0.9 0.9 3 0.4 3.2-0.5 7.6-0.5 9.8 0 2.3 0.4 3.7 1.4 3.3 2.2-0.4 0.9 1.3 1.7 3.8 1.9 2.4 0.2 4.6 0.2 4.7 0.1 0.2-0.1-0.2-10-0.8-22-0.6-11.9-0.6-31.2 0-42.9 0.9-18.1 1.2-20 2-12.5 0.8 6.9 0.9 6 0.5-4.4-0.2-8.8 0.1-12.2 1-10.2 0.9 2 1.1-0.4 0.7-7.3-0.3-6.1-0.1-9.1 0.7-7.3 0.8 2.1 1.2 0.8 1.2-4.4l0.2-7.4c-24.1 1.5-28.3 1.4-25.7 0.7 3.7-1.1 3.2-1.2-3.1-1-4.2 0.2-7.3 0-7.1-0.4 0.3-0.4-5.9-1.7-13.6-2.9-12.5-2-14.1-2-14.7 0zm592.5 1.4c-0.1 2.1-0.3 6.7-0.5 10.3-0.1 3.6-0.6 8.9-1.2 11.7-0.5 2.8-0.5 3.9 0.1 2.5 0.6-1.5 1.5-2.5 2-2.2 0.5 0.2 1.9-0.4 3.3-1.4 2.1-1.6 2.8-1 5.3 4.8 1.6 3.6 3 7.4 3 8.4 0.1 1 0.7 0.5 1.3-1.1 0.9-2.4 1.6-1.6 4.2 5.1 1.7 4.4 5.1 12.8 7.5 18.7 2.5 5.8 4.5 12.2 4.5 14.3 0 2 0.8 3.8 1.7 4 1 0.2 1.9 4.6 2.2 11.3 0.3 6.1 1.2 13.3 1.9 16.1 1.1 4.2 1 4.6-0.4 2.4-0.9-1.6-7.9-12.1-15.5-23.5-7.5-11.3-16.4-24.4-19.7-29-3.3-4.7-6.2-8.3-6.5-8.1-0.2 0.2 7.1 11.6 16.3 25.3 9.1 13.7 18.4 28.2 20.6 32.2 3.4 6.1 3.9 8.4 3.1 13.9-0.5 3.6-1.1 9.6-1.3 13.2-0.3 3.6-0.9 7.9-1.5 9.5-0.6 1.6-1.6 3.9-2.3 5.1-0.6 1.2-1.6 4.7-2.1 7.7-0.5 3.3-0.3 5.5 0.6 5.5 0.8 0 1.1-1 0.7-2.2-0.4-1.2-0.1-2.2 0.7-2.2 0.9 0 1.5-1 1.5-2.2 0-1.2 0.8-2.7 1.7-3.3 1.3-0.8 1.5-0.1 0.7 2.6-0.8 2.9-0.8 3.1 0.5 1.1 0.8-1.4 1.2-3.2 0.8-4-0.4-0.8 0.3-5.6 1.6-10.6 1.8-6.9 2.8-8.7 3.8-7 1 1.6 1.3 1.2 0.9-1.7-0.3-2.1-0.1-3.6 0.3-3.3 0.4 0.2 1.5-3.3 2.5-7.9 1.1-4.6 1.9-11.5 1.9-15.3 0-3.8-2.3-14.5-5.2-23.8-2.8-9.2-7.6-22.6-10.6-29.6-3-7.1-9.5-19.9-14.3-28.6-4.8-8.7-9.9-17.2-11.3-19l-2.5-3.3zm-523.1 6.9c-0.4 2.3-0.5 7.7-0.1 12.1 0.4 5.9 0.3 7.1-0.7 4.4-1.2-3.5-1.3-3.5-1.4 1.1-0.1 2.6 0.3 4.5 0.9 4.2 0.6-0.4 0.5 9.7-0.3 22.3-1.4 21.8-1.6 22.4-2.4 11.9-0.7-9.1-0.9-7.5-1.1 9.6-0.1 11.2-0.2 21.8-0.2 23.4 0 1.6 0 8.2-0.1 14.6-0.2 11.7-0.2 11.7 3.2 10.7 1.9-0.6 7.1-1.2 11.5-1.3 4.5-0.1 6.4-0.5 4.4-0.9-2-0.4-5.1-2.1-6.9-3.8-1.8-1.8-3.6-5.5-4.1-8.3-0.4-2.8-1.2-7.8-1.6-11-0.4-3.2-0.5-7.2 0-8.8 0.4-1.6 2.2-3.8 4.1-4.8l3.4-1.8c-5.1 1.1-6.9 0.8-7.3 0-0.4-0.8-0.8-10.5-0.8-21.6 0-11.1 0.5-22.2 1.1-24.9 1.1-4.6 1.2-4.7 4.8-2.3l3.7 2.4c-6.5-6.7-6.7-7.5-5.2-12.2 0.9-2.8 2.8-6.6 4.3-8.4 1.4-1.8 3.7-3.3 5-3.3 1.4 0 2.5-0.5 2.4-1.1 0-0.6 3.2-1.5 7-2.1 3.8-0.6 11.3-1.5 16.5-2 5.2-0.5 9.8-1.3 10.2-1.7 0.4-0.4-4.8-0.3-11.7 0.2-6.8 0.5-15.1 1.3-18.3 1.6-4.7 0.6-5.1 0.4-2.2-0.6 2.8-1 1.2-1.3-6.8-1.4-10.3-0.2-10.4-0.1-11.3 3.8zm-208.6 16.3c-4.9 10.2-10.9 23.5-13.2 29.5-2.4 6-6 17.1-8.1 24.5-2.1 7.5-3.8 15.2-3.8 17.2 0 2 2 9.8 4.6 17.2 2.5 7.5 6.2 16.9 8.2 20.9 2 4 6.2 11.6 9.3 16.8 3.1 5.3 7.2 11.5 9.1 13.9l3.5 4.4c1.6-17 3.7-30.2 5.7-40.2 2-10.1 7.6-30 12.4-44.3 4.8-14.3 8.7-26.7 8.7-27.5 0-0.8-2.9-5.9-6.5-11.3-3.5-5.5-9.2-15.3-12.6-21.9-3.4-6.6-6-13-5.8-14.2 0.1-1.2-0.3-2.5-1.1-2.9-0.8-0.4-5.4 7.6-10.4 17.9zm348.1 3.8c-0.3 0.4-9.5 4.4-20.3 8.8-13.9 5.6-19.9 8.8-20.3 10.6-0.2 1.7 0 2 0.8 0.9 0.6-0.9 9.7-5.4 20.2-9.9 10.5-4.5 19.7-8.9 20.4-9.6 0.8-0.8 1.1-1.5 0.6-1.5-0.4 0-1 0.4-1.4 0.7zm436.2 30.8c0.4 8.2 0 20.5-1.1 27.8-1.5 11.3-1.4 14.4 0.5 21.3 1.3 4.4 4 17.6 6 29.3 2.7 15.3 3.7 26.5 3.7 40.2 0 12.7-0.8 22.5-2.4 29.3-1.3 5.6-4.4 16.5-6.9 24.2-2.4 7.6-8.1 21.1-12.7 30-4.6 8.8-11.6 21-15.6 27.1-6.5 9.8-7.3 12.1-8.3 21.9-0.6 6.1-2.1 16-3.3 22-1.3 6-4.3 16.9-6.6 24.2-3.2 9.5-3.7 12.5-2 10.9 1.2-1.2 2.2-3 2.2-4 0-1 0.6-1.8 1.4-1.8 0.8 0 3.9-3.8 6.9-8.4 3-4.7 10.2-18 16-29.7 6.2-12.3 12.5-27.7 15.1-36.6 2.5-8.4 6.8-25.6 9.6-38.1 2.8-12.4 5.7-29.2 6.5-37.3 0.8-8.1 2.2-24.5 3.1-36.6 0.9-12.1 1.6-31.2 1.6-42.5-0.1-11.2-1.1-27.7-2.4-36.6-1.2-8.8-3.3-19.7-4.5-24.1-1.3-4.5-3.5-12.4-5-17.6l-2.6-9.5zm-824.1-1.9c-0.1 1.9-0.3 9.6-0.6 17.3-0.2 7.6-0.8 18.1-1.2 23.4-0.5 5.2-1.3 20.4-1.8 33.7-0.5 13.2-1.5 24.8-2.3 25.6-0.8 0.9-0.7 7.2 0.3 16.1 0.8 8 1.6 14.7 1.8 14.9 0.1 0.1 0.6-12.4 1.2-27.8 0.6-19.4 1.9-33.3 4.1-44.9 3-15.7 3.1-18.1 1.5-33.7-1-9.3-1.7-19.3-1.7-22.4 0.1-3-0.1-5.4-0.5-5.4-0.4 0-0.8 1.4-0.8 3.2zm237.8 15.1c0 7.2 0.2 10.5 0.5 7.3 0.4-3.2 0.4-9.2 0.1-13.2-0.3-4-0.6-1.4-0.6 5.9zm-165.8 15.8c-5.2 15.6-10.3 34.8-12.5 46.4-2 10.9-4.1 24-4.7 29.3l-1.1 9.5c10.1 12.2 17.9 20 24 25.2 6 5.2 17.2 13.6 24.9 18.7 7.6 5 17.5 11 21.9 13.4 4.5 2.3 8.4 4.3 8.8 4.5 0.4 0.3 1.4-13.9 2.1-31.4 0.7-17.5 1.4-35.9 1.5-40.9 0-5.2 0.6-8.3 1.3-7.3 0.7 0.9 0.9-2.6 0.5-7.8-0.4-5.7-0.2-8.4 0.5-6.6 1.1 2.6 1.2 2.6 1.3-0.8 0.1-2 1.4-11.2 3-20.5 1.6-9.2 2.7-16.8 2.6-16.8-0.2 0-3.5-1.5-7.3-3.3-3.8-1.8-7.8-2.8-8.8-2.2-1 0.7-1.4 0.5-0.7-0.4 0.5-0.8-1.7-2.7-5.2-4.3-3.3-1.7-6.6-2.8-7.2-2.6-0.6 0.2-0.7-0.5-0.1-1.4 0.8-1.3 0.4-1.5-1.4-0.8-1.6 0.7-2.3 0.5-1.8-0.4 0.4-0.8-0.5-2.1-1.9-2.9-1.4-0.7-3.1-0.9-3.9-0.3-0.7 0.6-0.9 0.2-0.3-0.8 0.5-1 0.1-2.1-0.9-2.4-1-0.3-7.2-4.9-13.8-10.1l-11.9-9.7zm77.5 26.3c-0.9 5-2.9 19-4.5 31.1-1.6 12.1-3.5 32.9-4.4 46.1-0.8 13.3-1.5 29.3-1.5 35.6v11.3c9.1 4.5 12.1 5.9 12.5 5.9 0.4 0 0.4-0.7 0-1.5-0.4-0.8 0.2-1.1 1.4-0.7 1.2 0.4 1.9 1.4 1.5 2.2-0.4 0.8 0.2 1.8 1.4 2.2 1.3 0.4 2.7 0.7 3.3 0.7 0.6 0 0.2-0.7-1.1-1.6-1.6-1.2-1.3-1.3 1.5-0.5 2 0.5 5.3 1.9 7.3 3.1 2.4 1.3 2.6 1.8 0.8 1.1-1.6-0.5-4-1.2-5.2-1.6-1.2-0.4-0.5 0.3 1.5 1.5 2 1.2 5.3 1.9 7.3 1.4 2.7-0.5 3.1-0.4 1.5 0.7-1.9 1.2-1.9 1.5 0.4 2.3 1.4 0.5 3 0.9 3.6 0.9 0.6 0 0.1-0.7-1.1-1.5-1.9-1.2-1.9-1.4 0-1.5 1.2 0-0.3-1.3-3.3-2.9-4.3-2.3-6.7-5.3-11.4-14.2-3.2-6.3-5.4-9.7-4.9-7.7 0.5 2 1.9 5.5 3 7.7 1.1 2.2 1.9 5.2 1.9 6.6-0.1 1.4-0.4 1.7-0.8 0.7-0.3-1-1.6-1.8-2.8-1.8-1.2 0-3.8-3.5-5.8-7.7-2-4.2-4-11.5-4.4-16.1-0.4-4.7-0.3-8.2 0.3-7.9 0.6 0.4 1.1-8.2 1.1-19 0-10.8 0.4-19.6 0.8-19.6 0.4 0 4.6 2.4 9.5 5.3 4.8 2.9 12.7 7.2 17.5 9.5 4.9 2.3 7.8 3.5 6.6 2.7-1.2-0.8-9.1-5.6-17.5-10.6-12.3-7.3-15.3-9.7-14.9-12 0.2-1.7 0.6-5.5 0.7-8.6 0.2-5.4 0.8-6 16.7-16.8 9.1-6.2 16.2-11.6 15.8-12-0.4-0.4-2.2 0.3-4 1.6-1.9 1.3-9.3 6.2-16.5 10.9-7.3 4.6-11.9 7-10.3 5.1 1.6-1.8 3-5.3 3.1-7.9 0.1-2.5 1.4-7 2.9-10.1l2.8-5.5c14.8 1 20 1.3 21.2 1.3 1.3 0.1 3 2.8 4.1 6.4 1 3.5 2.5 9.2 3.3 12.9l1.3 6.6c-1-12-0.8-15.4-0.2-15.4 0.6 0.1 5.7 3.2 11.3 7.1 5.6 3.9 16.3 10.8 23.8 15.3 13.3 8.2 13.5 8.4 13.3 13.8l-0.1 5.5c-2.2-10.2-2.2-10.2-2.3-3.7 0 3.7 0.4 9.9 1 14 1 7 1.1 6.7 1.9-5.9 0.5-7.2 0.4-16.8-0.2-21.2-1.1-7.6-1.1-7.8-1.4-2.2-0.2 3.2-0.6 5-1 4-0.3-1-1.7-1.8-3.1-1.9-1.5 0-12.2-6.4-23.8-14.3-15.5-10.4-21.4-15.2-21.6-17.6-0.2-1.7 0.1-3.2 0.7-3.2 0.6 0 6.4 1.7 12.8 3.8 6.4 2 12.5 3.4 13.5 2.9 1.1-0.4 3.9 0.2 6.3 1.4 2.4 1.2 5.3 3.7 6.4 5.5 1.1 1.8 2.9 5.9 3.9 9.1 0.9 3.2 2.3 7.2 2.9 8.8 0.7 2.1 1.4 0.1 2.1-6.6 0.6-5.2 0.8-12.1 0.5-15.3l-0.5-5.8c-17-2.9-22.6-3.5-23.4-3.1-0.8 0.3 0.1 0.6 2.1 0.7 1.9 0 3.3 0.4 2.9 0.9-0.3 0.4-3.2 0.3-6.4-0.2-4.2-0.7-5.3-1.3-3.7-2.1 1.4-0.8-0.6-1.2-5.1-1-4.1 0.1-9.2-0.3-11.4-0.8-2.2-0.6-3.7-1.8-3.3-2.6 0.4-0.8-2.5-2.1-6.6-2.9-4-0.8-8.1-1-9.1-0.4-1.3 0.8-1.4 0.6-0.4-1 1.2-1.8 0.8-2-2.2-1.1-2 0.6-3.1 0.6-2.5 0 0.7-0.7-2.9-2.6-7.9-4.4-5-1.9-9.3-3.3-9.5-3.3-0.1 0-1 4.1-1.9 9.1zm-139.7-6.2c-0.5 1.2-2 9.4-3.3 18.3-1.6 10.2-2.6 25.9-2.7 43.2-0.1 21.1 0.5 29.8 2.5 39.5 1.5 6.9 4.7 17.1 7.3 22.7 2.5 5.7 7.5 14.9 11.1 20.5 3.5 5.6 10.6 15.5 15.6 22 5 6.4 10.2 12.7 11.6 13.9 1.3 1.2 2.4 1.5 2.3 0.7 0-0.8-1-6.1-2.2-11.7-1.2-5.6-3.2-21.1-4.5-34.4-1.7-17.3-2.1-30.4-1.3-46.1l0.9-22c-9.9-13.6-15.8-22.8-19.5-29.3-3.6-6.4-8.2-16-10.3-21.2-2.1-5.2-4.4-11.5-5.2-13.9-1.1-3.1-1.8-3.7-2.3-2.2zm344.1 4.4c-0.5 3.6-1.8 7.1-2.8 7.6-1 0.6 1.1 1.2 4.7 1.4l6.6 0.2-14.6 2c10.7 0.4 14.1 0 14.4-0.6 0.3-0.6 0-2.4-0.6-4-0.8-2.1-1.3-2.3-1.4-0.8-0.1 1.2-1.4-1.1-2.8-5.1l-2.6-7.3zm14.6 2.6c0.3 1.8-0.1 2.9-0.9 2.5-0.8-0.4-1.5-0.4-1.5 0 0 0.4 0.3 1.7 0.7 2.9 0.5 1.5 2.5 2.2 6.3 2l5.4-0.1-10.2-2.2 10.2-0.5c-7.4-3.9-9.8-5.7-10-6.5-0.3-0.8-0.3 0 0 1.9zm447.2 12.5c-2 8.2-3.5 16.1-3.3 17.5 0.2 1.6-0.3 2.1-1.4 1.4-1.3-0.8-1.4-0.1-0.5 2.6 1 3 0.9 3.4-0.7 2.2-1.7-1.2-1.8-0.8-0.8 2.2 1 2.7 0.8 3.4-0.4 2.5-1.1-0.6-2.1 0-2.5 1.5-0.4 1.4-0.4 2.9 0 3.3 0.5 0.4 0.8-0.2 0.7-1.5 0-1.2 0.3-1.8 0.8-1.4 0.4 0.4-0.2 3.5-1.5 6.9-1.2 3.5-2.9 5.9-3.7 5.5-0.8-0.4-1 0.1-0.6 1.1 0.5 1-1.8 7.3-5.1 13.9-3.3 6.7-6.8 11.9-7.8 11.7-1.1-0.2-1.9 1.2-2 3.3l-0.1 3.7c1.3-6.5 1.9-5.3 3.3 1.5 1.3 6.5 1.8 7.5 1.9 4 0.1-2.6 0.8-6.2 1.6-8.1 0.7-1.8 1.7-5.6 2.1-8.4 0.5-2.8 2.3-7.1 4.2-9.6l3.3-4.6c0 15.4 0.4 19.1 0.9 18.1 0.5-0.9 1.9-6.3 3.2-11.9 1.3-5.7 3-13.9 3.8-18.3l1.5-8.1c-1.3 13.6-3 23.2-4.6 30-1.7 6.9-4.9 16.4-7.2 21.3-2.2 4.8-3.7 9.4-3.3 10.2 0.4 0.8-0.5 0.2-2-1.5-2.7-2.8-2.8-2.4-2.5 22 0.2 21 0.1 22.5-0.7 9.5l-1-15.3c-0.6 31.7-1.2 44.4-1.8 48.6-0.7 5.7-0.6 7.1 0.7 5.8 0.9-0.9 6-9.6 11.3-19.3 5.4-9.7 11.7-23.2 14.2-30 2.5-6.9 5.8-17.4 7.4-23.5 1.6-6 3.5-17.9 4.2-26.3 0.9-9.7 0.9-20.8 0-30-0.8-8.1-2.5-20.9-3.8-28.6-1.3-7.6-2.8-15-3.3-16.4-0.6-1.4-2.4 3.5-4.5 12.5zm-489.1-2.3c2.8 0.3 7.7 0.3 10.9 0 3.3-0.3 1-0.6-5.1-0.6-6 0-8.7 0.3-5.8 0.6zm-83.3 11c0.2 8.4 0.3 8.7 1.3 3.3l1-5.9c0.3 10.8 1.1 13.9 1.9 13.9 0.8 0 1.8-2.9 2.2-6.6 0.7-5.9 1.1-6.6 4.8-6.8 2.2-0.1 10.6-0.1 18.6-0.1l14.7 0.2c-29.5-3.1-38.8-4.1-39.6-4.1-0.8-0.1-0.4-0.8 0.8-1.6 1.7-1.1 1.3-1.4-1.9-1.4-4-0.1-4 0-3.8 9.1zm126.9-5.3c0.4 2.3 1 4.5 1.3 4.9 0.3 0.4 0.5-0.6 0.5-2.2 0-2.3 0.2-2.5 1.3-0.7 1.1 1.9 1.8 1.7 4.7-1.1l3.5-3.4c-6.3 0.1-9-0.3-10-0.8-1.5-0.7-1.8 0.1-1.3 3.3zm-21.7-0.9c4.5 0.5 6.8 1.1 5.2 1.2-2.5 0.2-2.6 0.5-0.8 1.7 1.2 0.8 3.7 1.4 5.5 1.4 2 0 3.3 1 3.3 2.2 0 1.3 0.5 2.5 1.1 2.8 0.6 0.3 0.8-1.5 0.4-4-0.6-3.2-1.8-4.7-4.4-5.5-2-0.6-7-1-11-0.9l-7.3 0.1zm-59.3 1.1c8 0.2 21.5 0.2 30 0 8.4-0.3 1.9-0.5-14.7-0.5-16.5 0-23.4 0.2-15.3 0.5zm-237.8 63.3c-0.3 6.8-0.2 20.7 0.3 30.7 0.5 10.1 1.9 25.6 3.1 34.5 1.2 8.8 3.1 20 4.2 24.8 1.1 4.9 2.7 10.2 3.5 11.8 0.9 1.6 6.7 7.8 13.1 13.7 6.3 5.9 16.8 14.7 23.2 19.5 6.5 4.8 17 11.9 23.5 15.8 6.4 3.9 16.9 9.6 23.4 12.5 9.6 4.5 11.5 5 10.3 2.7-0.7-1.5-3.9-12.6-7-24.7-3.1-12.1-7.2-31.8-9.1-43.9-1.9-12.1-4-28.5-4.7-36.4l-1.2-14.3c-16.8-9.1-22-11.1-23.1-10.5-1.1 0.7-1.4 0.5-0.8-0.3 0.5-0.8-2.1-3.5-5.9-5.9-3.8-2.4-7.5-4.2-8.3-3.9-0.8 0.3-1 0-0.4-0.7 0.6-0.7-3.4-4.3-8.8-8-5.4-3.7-15.4-11.9-22.3-18.3l-12.4-11.6zm-46.9 42.1c0.1 2.2 0.5 3.1 0.9 1.9 0.5-1.4 2.8 1.7 6.4 8.4 3.2 5.8 5.8 11.1 5.8 11.7 0 0.6-2-1.2-4.4-4-2.5-2.8-4.8-7.1-5.3-9.5-0.4-2.5-1.1-4.1-1.4-3.7-0.4 0.4 2.1 10.9 5.4 23.4 3.3 12.5 9.3 30.3 13.2 39.6 4.4 10.2 11.6 23.3 18.5 33.6 7 10.4 17.3 22.9 27.1 32.9 13.4 13.7 15.4 15.3 13 10.3-1.6-3.2-5.5-12.4-8.7-20.5-3.2-8-7.2-18.6-8.8-23.4-1.7-4.8-4.8-15.4-7.1-23.4-3.8-14-4.4-15.1-13.6-24.9-5.3-5.7-13.9-16.2-19-23.5-5.2-7.2-11.5-17.6-14.1-23-2.6-5.4-5.4-9.9-6.3-9.9-1 0-1.7 1.8-1.6 4zm135.5 13.2c0.3 3 1.6 14.4 2.8 25.3 1.3 10.8 3.7 26.3 5.3 34.4 1.6 8 3.9 18.2 5.1 22.7 1.2 4.4 3.9 13.8 6.1 20.8l3.9 12.9c18.2 8.2 25.2 10.7 27.4 10.8 2.1 0.1 3.6 0.6 3.2 1.2-0.3 0.6 0.6 1.2 2 1.4 1.4 0.1 3.7 0.1 5.1 0 1.7-0.2 2.2 0.4 1.5 1.5-0.8 1.2-0.1 1.4 2.6 0.4 3-1 3.4-0.9 2.2 0.8-1.2 1.7-0.9 1.9 1.4 1 1.7-0.6 6.7-0.1 11.7 1.4 7.2 2 8.3 2.7 5.9 3.7q-2.9 1.2 2.2 0.4c3.8-0.7 4.6-0.5 2.9 0.7-1.8 1.3-1.7 1.5 0.8 1.7 1.6 0.2 5.3 0.3 8.2 0.4 3 0.1 5.2-0.2 5-0.6-0.3-0.4-3.3-1.6-6.8-2.7-3.6-1.1-7.9-2.5-9.7-3.3-1.8-0.7-4.5-1.3-5.9-1.3-1.4 0-7.5-2.5-13.5-5.5-6.1-3-11.8-6.3-12.8-7.3-1.1-1-1.9-2.8-1.9-4 0-1.4-0.9-1.9-2.5-1.5-1.5 0.4-4.7-1.1-7.7-3.7-2.8-2.4-5.6-4.3-6.2-4.3-0.7 0-2.4-2.2-4-4.8-2.9-4.7-2.9-4.8 0.1-9.9l3-5.1-7.6 6.6c-3.3-5.1-5.3-9.6-6.5-13.2-1.3-3.6-2.3-6.6-2.3-6.6 0 0 4.1-2.1 9.2-4.6 5-2.5 10.5-5 12.1-5.5 2.3-0.7 3.3 0.1 4.7 4.3 1 2.8 3.2 5.7 4.8 6.6 1.6 0.8 2.9 2.2 2.9 3.2 0 1.1 4 7.8 9 15.1 5 7.2 10.6 14.9 12.5 17.2 1.9 2.2 3.4 3.7 3.4 3.3 0-0.4-4.7-7.5-10.4-15.8-5.7-8.2-11.3-16.6-12.3-18.7-1-2-3.3-4.9-5-6.5-1.7-1.7-3.4-4.8-3.8-7-0.5-2.8-1.6-4-3.6-4-1.6 0-6.4 1.7-10.6 3.8-4.3 2.1-9.2 4-11 4.1-2.2 0.1-3.3-0.7-3.3-2.4 0-1.4-1.6-8-3.5-14.7-1.9-6.6-3.9-16.5-4.4-21.9-0.8-9-0.7-9.9 1.7-9.2 1.4 0.4 3.4 2.6 4.4 4.8 1 2.2 2.3 3.5 2.9 2.9 0.6-0.6-1.4-4.2-4.4-8-3.1-3.9-5.6-7.8-5.5-8.8 0-1 1.3-2.2 2.9-2.6 1.8-0.5 3.2 0.1 3.7 1.5 0.4 1.2 1.4 1.8 2.2 1.4 0.8-0.4 2.3-0.2 3.3 0.5 1 0.7 3.8 1.1 6.2 0.9 2.4-0.2 5.4-0.5 6.6-0.6 1.2-0.1-0.3-1.1-3.3-2.3-3.7-1.4-5.1-2.7-4.4-4 0.8-1.3 0.4-1.4-1.1-0.5-1.4 0.8-4.1 0.3-7.6-1.5-3-1.5-5.2-3.2-4.8-3.8 0.4-0.6-0.3-1.5-1.5-1.9-1.2-0.4-3-0.2-4 0.4-1.1 0.6-1.4 0.5-0.8-0.4 0.5-0.8-0.6-2.2-2.6-3.2-2-1.1-4.2-1.9-4.9-1.9-0.7 0-1 2.5-0.7 5.5zm121.6 3.3c0.5 2.8 1 9.1 1.1 13.9 0.1 7.4 0.5 8.8 2.7 8.8 1.4 0 5.3-0.2 8.8-0.5 6.1-0.5 6.1-0.5 2.3-2.2-2.1-0.9-5.4-3.7-7.3-6.1-1.9-2.4-4.6-7.7-6-11.7-1.8-5.2-2.3-5.9-1.6-2.2zm-12.4 2.2c0.1 3.2-0.6 7.3-1.5 9.2-1 1.8-3.2 3.3-5 3.4-2.6 0-2.3 0.5 1.8 2 4.5 1.8 4.7 2 1.5 2.1-2 0-3.4 0.3-3 0.6 0.4 0.4 3.9 1 7.7 1.6 6 0.7 7 0.5 7-1.7-0.1-2.2-0.3-2.2-1.4-0.4-0.9 1.6-2.1-1.4-4.2-10.2-2.2-9.3-2.9-11-2.9-6.6zm532.3 17.6c-0.5 3.2-1.2 7.8-1.6 10.2-0.3 2.4-2.6 8.4-5.2 13.2-2.5 4.8-6.3 11.8-8.4 15.4-2.1 3.6-6.5 10.1-9.9 14.5-3.3 4.4-8.6 10.7-11.9 13.9-3.2 3.3-8.3 8-11.4 10.4-4.7 3.7-5.8 4-7 2.2-1-1.8-1.3-1.7-1.5 0.7-0.1 1.6-0.1 3.8 0 4.8 0.1 1-0.5 1.8-1.3 1.8-0.8 0-1.3 2-1.1 4.4 0.2 2.4-0.3 4.3-1.1 4.3-0.8 0-1 0.5-0.4 1.1 0.6 0.7 3.6-1.4 6.6-4.6 3-3.2 3.9-4.5 1.9-3l-3.7 2.9c4.5-5.1 6.2-6.3 6.6-5.9 0.4 0.4 1.6 0.1 2.6-0.7 1-0.8 1.5-2.1 1.1-2.9-0.4-0.8 0.4-2.8 1.8-4.4 1.4-1.6 2.9-2.6 3.3-2.2 0.4 0.3 3.3-2.1 6.6-5.5 3.2-3.4 4.3-4.8 2.5-3.2-1.9 1.6-3.4 2.2-3.3 1.4 0-0.8 1.5-3 3.3-4.8 1.8-1.8 3.7-3 4.1-2.5 0.4 0.4 2.3-1.1 4.4-3.2 2-2.1 2.7-3.3 1.5-2.6-1.6 1-1.9 0.8-1.4-0.8 0.5-1.2 1.4-2.2 2.2-2.2 0.7 0 2.1-0.5 3.1-1.1 1.1-0.6 1.6-1.6 1.3-2.2-0.4-0.6 0.7-2.8 2.3-4.8 1.6-2 2.4-2.6 1.7-1.4-0.9 1.5-0.7 1.8 0.6 1.1 1-0.6 1.5-2 1-3-0.4-1 0.4-2.8 1.8-4 2.2-1.9 2.4-1.9 1.4 0-0.6 1.2 0 0.9 1.3-0.7 1.3-1.6 4-5.6 6-8.8 3.4-5.6 3.5-6.5 2.4-19.8-1-11.8-1.4-13-2.2-8zm-531.9 8c-2.4 0.6-3.4 1.2-2.2 1.3 1.2 0.2 3.7 1.7 5.4 3.5 1.8 1.8 3.9 5.4 4.8 8 0.8 2.7 1.9 4.6 2.4 4.4 0.5-0.2 0.1-3.8-0.7-8-1.1-5.3-2.4-7.9-4.2-8.3-1.8-0.4-1.6-0.6 0.8-0.7 2-0.1 3.4 0.8 3.8 2.4q0.5 2.7 0.3-0.4c-0.1-1.8-1.2-3-3-3.1-1.7-0.1-5 0.3-7.4 0.9zm19.4 2.4c-2.2 0.3-4 1.2-4 2 0 0.8 0.8 1.5 1.8 1.5 1-0.1 2.5 2.1 3.2 4.7 1.3 4.5 1.4 4.6 1.8 1.1 0.3-2 2-4.4 3.8-5.4l3.3-1.7-7.3-0.5c6.5-2 6.6-2.3 4.4-2.2-1.6 0-4.8 0.3-7 0.5zm438.4 2.8c-0.1 1.6-3.7 6.5-7.9 10.9l-7.6 8.1c14.7-13.9 16.8-16.9 16.3-19l-0.7-3zm-371.3 1.8c5.6 0.3 14.2 0.3 19 0 4.9-0.2 0.3-0.5-10.2-0.5-10.5 0-14.4 0.3-8.8 0.5zm-273 18.4c0 0.6 3.8 12.8 8.6 27 4.7 14.3 12.3 33.9 16.9 43.6 4.5 9.7 10 19.5 12.2 21.8 2.2 2.3 7.6 6.9 12 10.3 4.5 3.3 10.7 8.1 13.9 10.7 3.2 2.6 10.2 7.3 15.4 10.6 5.2 3.3 17.1 9.8 26.4 14.5 9.2 4.8 21.1 10.4 26.3 12.5 5.2 2.1 9.7 3.8 9.9 3.8 0.2 0-3.7-6.4-8.7-14.3-5-7.8-13.5-23.1-18.9-34-5.4-10.9-11.7-25-14-31.3l-4.2-11.6c-29.5-14.6-43.6-22.6-50.5-27.2-6.8-4.5-19.5-14-28.2-21.1-8.6-7-16-13.6-16.3-14.6-0.4-1-0.7-1.3-0.8-0.7zm716.3 4.7c-1.8 2.8-3.3 5.5-3.3 5.9 0 0.4-1.5 2.1-3.3 3.7-1.8 1.7-2.3 2.6-1.1 2.1 1.2-0.6 0.1 0.7-2.5 2.8-2.7 2.1-4.5 4.5-4.1 5.3 0.4 0.8-1.2 3.6-3.6 6.2-2.4 2.6-4.4 5.3-4.4 5.9 0 0.6-0.9 1.1-1.9 1.1-1 0 0.2-2.1 2.6-4.8l4.4-4.8c-7.2 6.9-9 9.5-8.7 10.3 0.4 0.8-4.4 6.4-10.7 12.4-9.8 9.6-10.3 9.9-3.3 2.2 5.1-5.5 3-3.9-5.6 4.4-13 12.6-13.6 13.5-12.9 18.3 0.4 2.8 0.3 5.7-0.2 6.4-0.6 0.7-2.5 8.3-4.2 16.8-1.7 8.6-4.5 19.3-6.2 23.7-1.7 4.4-2.9 8.2-2.7 8.4 0.2 0.2 7.6-6.4 16.6-14.6 8.9-8.3 19.1-18.3 22.5-22.4 3.5-4 9.2-11.6 12.7-16.8 3.5-5.2 8.3-14.8 10.8-21.2 2.5-6.5 6.1-18.7 7.9-27.1 1.9-8.5 3.9-18.5 4.3-22.4 0.5-3.8 0.7-6.9 0.5-6.9-0.2 0-1.8 2.3-3.6 5.1zm-63.3 43.9c-0.5 16-0.5 16.1-1.5 5.9l-0.9-10.3c-0.5 16-1.4 18.9-5.1 24.2-2.4 3.6-6.5 8.1-9.1 9.9-2.6 1.9-7.6 6.1-11.2 9.4-4.1 3.7-5.1 5.1-2.6 3.6 2.2-1.3 4.3-2.4 4.8-2.4 0.4 0 0.3 0.8-0.3 1.8-0.7 1.4-0.4 1.4 1.1 0 1.2-1.1 2.1-2.7 2.1-3.6 0-0.9 1-2 2.2-2.4 1.6-0.6 1.8-0.2 0.8 1.4-0.7 1.1 0.1 0.8 1.8-0.9 1.8-1.6 2.9-3.4 2.5-4-0.4-0.6 0.3-1.9 1.5-2.9 1.2-1 2.7-1.3 3.3-0.7 0.6 0.6 2.8-0.7 5-2.9 2.2-2.3 3.6-4.8 3-5.6-0.6-0.8-0.3-1 0.8-0.3 1 0.6 2.1 0.3 2.5-0.8 0.5-1 0.6-9.4 0.4-18.6l-0.5-16.9zm-665.7 7.4c2.3 4 7.1 11.6 10.6 16.8 3.5 5.2 7.7 11.2 9.4 13.2 1.7 2 2.6 2.7 1.9 1.5-0.9-1.6-0.7-1.9 0.6-1.1 1 0.6 1.8 2.4 1.8 4 0 1.6 1.7 4.7 3.9 6.9 2.1 2.2 5.5 6.2 7.6 8.8 3.3 4 4.2 4.5 6.1 3 1.9-1.6 1.9-1.5 0.4 0.7-1.6 2.1-1.2 3.4 2.4 8 2.3 3 6.6 7.8 9.5 10.6 2.9 2.9 5.3 4.8 5.3 4.4 0-0.4-2.3-3.2-5.1-6.2-2.9-3-5.2-6.1-5.2-6.9 0-0.9 2.6 1.3 5.9 4.7 3.2 3.4 6 7.3 6.2 8.5 0.2 1.3 5.5 7.9 11.9 14.7 6.3 6.8 10.6 10.9 9.5 9.3-1.1-1.7-3.9-5.4-6.2-8.1-2.2-2.7-8.4-11.2-13.7-18.9-5.3-7.6-12-18.3-14.9-23.6-3.9-7.2-11.5-16.1-28.7-33.7-19.6-20.1-22.7-22.8-19.2-16.6zm115.1 11.3c0 0.2 1.7 4.7 3.8 9.9 2.1 5.2 8.3 18.4 13.7 29.3 5.4 10.8 13.5 25.7 18 32.9 4.5 7.3 9.3 14.6 10.8 16.4 1.8 2.1 9.3 5.3 21.8 9.2 10.5 3.3 29.2 8.7 41.7 11.9 13.2 3.4 24.2 5.5 26.4 5 2.9-0.7 3.2-0.5 1.4 0.8-1.6 1.2-0.4 1.4 5.2 0.9 5.1-0.6 6.4-0.4 4.4 0.6-2.2 1-1.2 1.1 3.6 0.6 5-0.5 5.9-0.4 3.7 0.7-2.2 1.1-0.5 1.3 5.8 0.8 5.5-0.4 7.4-0.2 5.2 0.5-3 0.9-1.8 1.3 5.8 2.2 5.2 0.5 12.5 1.5 16.1 2 6.3 0.9 6.5 0.8 4.8-1.9-0.9-1.5-3.2-4.5-5.1-6.6-1.8-2-2.7-2.7-1.9-1.4 1.3 2 1.2 2-1.2 0-1.4-1.2-2.2-3-1.8-4 0.5-1 0-2.3-1-2.9-1.3-0.8-1.5-0.5-0.5 1.1 1.3 1.9 1.1 1.9-1.1 0-1.4-1.2-2.5-2.7-2.5-3.3 0-0.6 0.9-0.6 1.9-0.1 1.5 0.8 1.5 0.5 0-1.5-1-1.3-2.5-2.1-3.3-1.7-0.8 0.4-2.3-0.5-3.3-2-1.4-2-4.5-2.9-12.8-3.6-6-0.5-16.9-2.3-24.2-4-7.2-1.7-18.6-4.7-25.2-6.6-6.7-2-12.1-3.9-12.1-4.3 0-0.4 3-6.3 6.6-13.2 5.3-9.9 6.1-12.6 4.4-13.2-1.4-0.4-1.9 0-1.5 1.1 0.4 1.1-1.9 6.7-5.1 12.5-5.7 10.4-6 10.6-10.6 9.7-2.6-0.6-6.8-2-9.2-3.2-2.4-1.2-8.2-4.9-12.8-8.2-4.7-3.3-12.3-9.2-16.9-13-4.6-3.9-9.5-7.3-10.9-7.7-1.4-0.4-2.2-1.3-1.8-2.1 0.4-0.8-0.5-3-1.9-4.7l-2.5-3.3c5.6 3.9 8.6 6 10.2 7.2 1.6 1.2 5.3 2.5 8.1 3l5.1 0.9c-9.1-4.6-13.7-7.6-16.1-9.8-3.6-3.2-4-4.1-2.2-5.2 1.2-0.7 1.5-1.2 0.7-1.2-0.8 0-0.4-1 0.8-2.3 1.2-1.3 3.1-2 4.4-1.5 1.2 0.4 2.8 0.1 3.6-0.7 0.8-0.8 3.8-1.2 6.6-0.9 2.8 0.3 10.1 1.7 16.1 3.2 6 1.5 12.6 4.1 14.7 5.8 2 1.8 5.9 3.6 8.7 4.1 2.9 0.5 4.2 0.5 3 0.1-1.2-0.5-4.5-2.5-7.4-4.4-2.8-1.9-9-4.5-13.9-5.8-4.8-1.3-16.2-4.5-25.2-7.3-11.5-3.5-16.2-5.6-15.4-6.8 0.8-1.3 0.1-1.4-2.6-0.5-2.7 1-3.3 0.9-2.5-0.4 0.7-1.1 0.1-1.8-1.5-2-1.4-0.1-3.3-0.3-4.2-0.3-0.9-0.1-1.4-0.7-1.1-1.3 0.3-0.6-0.1-1.1-0.9-1.1-0.8 0-6.4-2-12.5-4.4-6-2.4-11.3-4.4-11.7-4.4-0.4 0-0.7 0.2-0.7 0.4zm122.4 9.2c0.6 4 1.1 8.9 1.2 10.9 0.1 3.6-0.1 3.7-10.1 3.6l-10.3-0.2c16.8 4.1 19.5 5.3 17.6 5.8-1.6 0.4 0 0.4 3.7 0.1 5-0.5 6-0.2 4.3 1-1.7 1.3-1.2 1.6 2.6 1.2 2.6-0.3 4.7 0 4.8 0.6 0 0.6 0.6 1.1 1.4 1.1 0.9 0 0.8-1.4-0.3-3.6-1-2-2.2-3.3-2.6-3-0.4 0.4-3.6-5.1-7.1-12.1l-6.3-12.8zm426.7-1.1c0.1 0.6-2.6 4.3-5.8 8.1-3.3 3.8-6.6 6.9-7.4 6.9-0.8 0-1-0.8-0.5-1.8 0.6-1-0.4-0.5-2.2 1.1-1.8 1.6-3.3 3.3-3.3 3.7 0 0.4 1.2-0.3 2.6-1.4 1.5-1.2 1-0.4-1 1.8-2 2.2-4.1 4-4.7 4-0.7 0-0.7-0.9-0.2-1.9 0.7-1.3 0.4-1.3-1.1 0.1-1.1 1.1-2 2.7-2 3.7 0 0.9-1.4 1.7-3 1.7-1.6 0-2.9 1-2.9 2.1 0 1.1-1 2.4-2.2 2.9-1.7 0.5-1.8 0.2-0.7-1.4 1-1.5 1-1.8-0.4-1-1 0.6-1.5 1.6-1.1 2.2 0.4 0.6-0.1 1.9-1.1 3-1 1-2.3 1.8-2.9 1.8-0.6 0-0.7-0.9-0.2-1.9 0.6-1 0.5-1.3-0.3-0.6-0.7 0.7-1.3 1.9-1.3 2.8 0 0.9-1 1.9-2.2 2.4-1.7 0.6-1.9 0.2-0.9-1.4 0.8-1.2 0.8-1.6 0-0.9-0.7 0.7-1.3 2-1.3 2.8 0 0.9-1 2-2.2 2.4-1.7 0.6-1.9 0.2-0.9-1.3 0.8-1.3 0.8-1.7 0-0.9-0.7 0.6-1.3 1.9-1.3 2.8 0 0.8-1 1.9-2.2 2.3-1.7 0.6-1.9 0.3-0.8-1.3 1.1-1.5 1-1.8-0.3-1-1 0.6-1.5 1.7-1.1 2.5 0.4 0.8-1.1 2.7-3.3 4.2-2.2 1.5-9 5.6-15 9-6.1 3.4-10 5.1-8.8 3.7 2-2.2 1.9-2.4-0.4-1.6-1.7 0.6-2.5 2.4-2.5 5.6 0 3.7 0.3 4.2 1.5 2.6 1-1.6 1.2-0.3 0.6 4.4-0.6 5-0.4 5.9 0.8 3.6 1.2-2.3 1.3-1.9 0.7 2.2-0.5 2.8-0.1 9.7 0.9 15.4 0.9 5.6 1.9 10.4 2.2 10.6 0.3 0.2 9-5.2 19.2-11.9 10.3-6.7 24.2-16.3 30.8-21.2 6.6-5 13-10.5 14.2-12.3 1.2-1.8 3.9-8.2 5.9-14.3 2.1-6 4.7-14.9 5.8-19.7 1.1-4.9 2.4-12.6 3-17.2 0.5-4.7 0.5-8.5 0.1-8.5-0.5 0-0.8 0.5-0.8 1.1zm-412.9 0.8c0 0.6 1.6 4.9 3.7 9.5 2 4.6 3.6 8.6 3.6 8.8 0 0.2-0.7 0-1.5-0.4-0.8-0.4-0.6 0.9 0.4 2.9 1 2 2.3 3.3 2.9 2.9 0.6-0.4 5.6-0.2 11 0.4 9 0.9 9.4 1.1 4.8 2.1q-5.2 1.1 2.9 0.3c4.4-0.4 9.4-1.8 11-3 2.8-2.1 2.8-2.2-0.8-1.1-2 0.6-5.3 1-7.3 0.9-2-0.2-6.9-1.2-11-2.4-4-1.1-8.1-2.9-9.2-4-1-1-1.9-4.9-1.8-8.5 0-6-0.2-6.3-2-3.7-1.9 2.9-2 2.8-4.3-1.4-1.3-2.5-2.3-3.9-2.4-3.3zm-35.9 25.6c0.8 0.8 5.4 2.2 10.2 3.2 4.9 1 10.5 2 12.5 2.2 2 0.2 4.3 0.4 5.1 0.6 0.8 0.1 2.8 1.4 4.4 2.9 1.6 1.4 4.4 3.4 6.2 4.4 1.8 0.9 4.6 4.3 6.3 7.6 1.6 3.2 3.2 5.8 3.6 5.8 0.4 0-0.6-2.6-2.2-5.8-1.6-3.3-2.9-6.2-2.9-6.6 0-0.4 0.6-0.4 1.5 0 0.8 0.4 0.1-1.9-1.5-5.2-2.9-5.6-3.1-5.8-9.2-5.1-4.9 0.6-5.5 0.4-2.5-0.7 2.8-1 2.1-1.1-3-0.5-3.6 0.4-10.5 0-15.3-0.9-4.9-1-10.1-2.1-11.7-2.5-2-0.6-2.5-0.3-1.5 0.6zm479.3 1.6c-0.3 0.6-6.4 6.4-13.7 12.8-7.2 6.4-16.1 14-19.6 16.8-4.2 3.3-8.1 8.3-11.2 14.6-2.6 5.2-6.9 12.4-9.6 16.1-2.6 3.6-5 5.7-5.2 4.7-0.3-1-4.5 1.9-9.7 6.7-5 4.7-13.4 11.4-18.6 14.8-5.3 3.5-10.9 7-12.5 7.8-1.6 0.9-0.8-0.5 1.9-3.1 2.6-2.5 5-4.6 5.5-4.6 0.4 0 3.5-2.2 6.9-4.8 3.4-2.7 8.5-6.8 11.2-9.2 2.7-2.4 7.2-6.6 9.9-9.4 3-3.2 4.9-4.3 4.9-2.9 0 1.9 0.2 1.9 2 0 1.1-1.3 4.4-6.7 7.4-12.1l5.2-9.9c-14.1 11.1-27.2 20.1-38.2 27.3-11 7.1-21 13.6-22.2 14.4-1.7 1.1-2.4 4.7-2.8 13.5l-0.5 11.9c4.6-4.8 9.9-7.9 14.7-10.1 4.8-2.1 11.7-6.3 15.4-9.3 3.6-2.9 9.4-7.6 12.8-10.4 3.9-3.3 5.8-5.8 5.1-6.9q-1.1-1.8 0.7-0.7c1.2 0.7 6.9-4 16-13.2 7.8-7.9 13-12.5 11.7-10.3-1.3 2.2-2.2 4.1-2 4.1 0.2 0 5.3-5.7 11.3-12.8 6-7.1 13.8-16.5 17.2-20.9 3.4-4.5 6.5-9.9 6.9-12.1 0.3-2.2 0.4-4 0.1-4-0.3 0-0.8 0.5-1 1.2zm-639.3 2.2c-0.2 0.5 4 7.4 9.4 15.2 5.3 7.9 13.3 18.9 17.8 24.6 4.5 5.6 12.8 14.2 18.5 19.2 5.7 4.9 21.9 16.7 36 26.2 14.1 9.5 27.7 18.1 30.3 19.2 2.7 1.1 15.8 5.2 29.3 9.1 13.5 3.9 25.9 7.6 27.5 8.2 1.6 0.7-0.2-0.9-4-3.4-3.9-2.5-16-13.3-26.9-24-11-10.7-23.3-23.5-27.5-28.6-7.2-8.7-8.3-9.4-24.3-15.9-9.3-3.7-23.8-10.4-32.3-14.8-8.4-4.5-21.3-12.1-28.5-16.9-7.3-4.8-15.8-11.1-19.1-13.9-3.2-2.8-6-4.7-6.2-4.2zm208 4.6c1 1.9 2.3 3.3 2.9 2.9 0.6-0.4 2.1 1.3 3.3 3.7 1.2 2.4 2.2 4.7 2.2 5.1 0 0.4-0.7 0.4-1.5 0q-1.5-0.7 0 2.2c0.8 1.6 1.8 3 2.2 3 0.4 0 0.4-1 0-2.2-0.4-1.3-0.4-2.2 0-2.2 0.4 0 2 2.6 3.7 5.8 1.6 3.2 3.2 5.9 3.6 5.9 0.4 0-0.6-2.8-2.3-6.3-2.7-5.4-2.8-6.7-1.1-10.4 1.1-2.4 3.3-4.8 4.9-5.4 2.5-1 2.3-1.2-1.5-1.4-4.4-0.2-4.4-0.3-0.7-1.5 2.6-0.9 1.6-1.1-3.7-0.6-5.2 0.6-6.7 0.4-5.1-0.7 1.7-1.2 0.9-1.5-3.2-1.5-5.3 0-5.4 0.1-3.7 3.6zm59.6-2.6c4.4 0.3 11 0.3 14.7 0 3.6-0.3 0-0.5-8.1-0.5-8 0-11 0.2-6.6 0.5zm31.5 0c4.8 0.3 13.1 0.3 18.3 0 5.2-0.2 1.3-0.5-8.8-0.5-10.1 0-14.3 0.3-9.5 0.5zm248.2 5.4c-2.8 1.8-8.4 5.1-12.5 7.3-4 2.2-8.1 3.6-9.1 3.2-1.1-0.5-1.8 0.3-1.8 2.1 0 1.9 0.7 2.7 2 2.2 1.2-0.4 1.8 0 1.3 0.9-0.6 1.1 0.1 1.1 2.3 0 1.7-0.9 2.8-2.3 2.4-3.1-0.4-0.8 1.3-2.5 3.7-3.7 2.4-1.2 4.7-2.2 5.1-2.2 0.4 0 0.3 0.9-0.2 1.9-0.6 1-0.4 1.3 0.3 0.6 0.8-0.7 1.4-2 1.4-2.8 0-0.9 0.7-1.9 1.6-2.3 0.9-0.4 1.4 0.1 1.1 1-0.4 1.2 0.3 1.2 2.4 0.2 1.6-0.8 2.7-2.2 2.5-3.1-0.2-1 0.4-2 1.3-2.4 0.9-0.4 1.3 0.1 0.9 1.2-0.5 1.2-0.2 1.5 0.5 0.8 0.8-0.7 1.4-2.1 1.4-3.3 0.1-1.1-0.2-2-0.7-1.9-0.4 0-3.1 1.6-5.9 3.4zm-30.7 28.7c-0.9 1.7-2.5 2.6-3.7 2.2-1.2-0.4-2.6 0.2-3 1.5-0.4 1.2-6.8 5.2-14.2 8.8-7.5 3.7-14.4 6.4-15.4 5.9-1-0.5-1.5-0.3-1.2 0.3 0.4 0.6-0.9 1.9-2.9 2.9-2 1-5.1 1.5-6.9 1.1-1.8-0.4-2.3-0.3-1.1 0.2 1.5 0.7 0 2-5.1 4.4-4 1.9-6 3.1-4.4 2.7 1.6-0.5 4.2-1.2 5.9-1.6 2.4-0.6 3.1 0.3 4.3 5.9q1.5 6.6 0 6.5c-0.8-0.1-2.6-0.1-4 0-1.4 0.1-2.2 0.9-1.8 1.7 0.4 0.8-3 2.1-7.7 2.9-4.6 0.8-11.1 2.2-14.3 3-3.2 0.8-5.5 1.8-5.1 2.1 0.4 0.3 5 0 10.3-0.8 5.2-0.7 11.1-1.3 13.1-1.2 2 0.1-0.3 1-5.1 2-5.2 1.1-7.3 2-5.1 2.2 3.5 0.3 3.4 0.4-0.8 1.5-2.4 0.6-7.8 1.2-12 1.3-6.9 0.1-7.7-0.2-7.4-2.8 0.2-1.6 1.4-3 2.6-3 1.3-0.1 0.8-0.7-1.1-1.5-1.8-0.7-3.9-1-4.7-0.6-0.9 0.4-1.5 0.2-1.5-0.4 0.1-0.6 1.2-1.9 2.6-2.9 2.1-1.4 2.1-1.8 0.3-1.8-1.9-0.1-1.9-0.3 0-1.6 1.7-1.2 1.1-1.4-2.2-0.6-2.4 0.5-6.3 1.2-8.8 1.6-3.7 0.5-3.9 0.4-1.4-0.9 2.3-1.2 1.8-1.3-2.2-0.6-2.8 0.5-5.3 1.2-5.5 1.5-0.2 0.3 0.6 2.2 1.8 4.2 1.2 2 2.9 3.3 3.7 2.9 0.8-0.4 1.8 0.3 2.2 1.5 0.4 1.2 0 1.9-0.8 1.5-0.8-0.4-1.1 0.2-0.7 1.4 0.4 1.3 1.5 1.8 2.6 1.1q1.8-1.1 0.7 0.8c-0.7 1.1 2.3 6.3 7.7 13.5 8.4 11.2 9 11.7 13.5 10.9 2.6-0.4 11.7-3.4 20.2-6.7 8.4-3.3 26.8-11.7 40.8-18.6 14-7 25.8-13.3 26.1-14.1 0.3-0.8-0.4-8.9-1.7-18-1.2-9-2.8-16.2-3.4-15.9-0.6 0.4-0.9-1.6-0.6-4.4 0.2-2.7 0.1-4.9-0.4-4.9-0.4 0-1.4 1.3-2.2 2.9zm-242.5 6.6c1.5 2.4 7.2 10.3 12.8 17.6 5.5 7.2 11.8 15.4 14.1 18.1l4 5c-19.3-1.3-28.9-2.8-33.7-4-5.2-1.4-9.7-3.5-11-5.3-1.2-1.6-3-3-4-2.9-1 0-3-1.1-4.3-2.5-2.3-2.5-1.9-2.7 7.7-4.3l10.1-1.7c-20.3 1.6-20.6 1.5-24.5-3-2.2-2.5-4-3.9-4-3.1 0 0.8-0.9 1-1.9 0.4q-1.8-1.1-0.7 0.7c0.6 1 1.8 1.5 2.6 1.1 0.8-0.4 1.3 0.4 1.1 1.8-0.2 1.4 0.3 2.5 1.1 2.6 0.8 0 2.2 0.5 3.3 1.1 1 0.6 1.8 1.9 1.8 2.9 0.1 1.3-0.6 1.2-2.5-0.4-2.4-2-2.5-1.9-0.8 0.4 1 1.4 2.6 2.4 3.5 2.2 0.9-0.2 2 0.6 2.5 1.8q0.8 2.2-1 1.1c-0.9-0.6-1.7-0.9-1.8-0.7 0 0.2 1.1 1.4 2.5 2.6 2.3 1.9 2.4 1.9 1.2 0-1-1.6-0.9-1.9 0.4-1.1 1 0.6 1.5 1.9 1.2 2.9-0.4 1 0.9 3.8 2.9 6.2l3.6 4.4c49.3 0.1 60.1-0.2 55.6-0.5-5.9-0.4-7.3-0.8-5.1-1.7 2.7-1.1 2.6-1.3-0.7-1.4-2.8-0.1-6.5-3.6-15.4-14.8-6.4-8.1-13.7-17.6-16.1-21-2.4-3.5-5-7-5.8-7.7-0.7-0.6-0.2 0.8 1.3 3.2zm-154.5 24.9c4 4.8 14 15.4 22.3 23.5 8.4 8.1 19.8 18 25.4 22.1 5.7 4.1 11.6 8.1 13.2 9 1.6 0.9 10.5 3.5 19.8 6 9.2 2.4 26.7 5.8 38.8 7.5 12.4 1.7 33.3 3.4 48.3 3.8 21.2 0.6 25.8 0.4 23.4-1.1-1.6-0.9-6.9-4.7-11.7-8.3-4.8-3.6-16.4-14.1-25.6-23.4l-16.9-16.7c-13.8 1.4-15.5 1.2-13.9 0.1 1.6-1.1-0.7-1.3-8-0.7-5.7 0.4-8.7 0.3-6.8-0.3 2.4-0.7-0.5-1.6-10.3-2.9-7.5-1.1-21.9-3.8-32-6.1-10-2.3-23.6-5.6-30-7.3-6.4-1.8-17.6-5.1-24.9-7.4-7.2-2.3-14.3-4.7-15.7-5.4-1.4-0.6 0.7 2.8 4.6 7.6zm284 0.7q0.9 2.2-0.9 1.1c-1.4-0.8-1.5-0.4-0.4 1.8 0.8 1.6 2.3 3 3.3 2.9q1.9 0-0.3-1.5c-1.6-1.1-0.6-1.3 3.6-0.7 4.3 0.6 5.1 0.5 2.9-0.5l-2.9-1.4c4.6-0.2 6.9-0.9 8.1-1.6 1.5-0.9-0.4-1.5-6.1-1.8-6.8-0.4-8.1-0.1-7.3 1.7zm-13.1 3c-1.2 0.7-3.4 1.6-5 2.2-1.6 0.6-2.3 1.3-1.5 1.6 0.8 0.3 4.3-0.1 7.7-0.9 3.4-0.8 6.5-1 6.7-0.4 0.3 0.6 0.2 0.4-0.1-0.4-0.3-0.8-1-1.4-1.6-1.5-0.5 0-1.7-0.4-2.5-0.9-0.9-0.5-2.6-0.4-3.7 0.3zm-337.6 5.2c0.4 0.7 6.3 5.1 13.2 9.7 7 4.7 13 8.3 13.4 8.1 0.4-0.2-4.7-4-11.4-8.5-6.6-4.5-12.9-8.7-13.9-9.4-1-0.7-1.6-0.6-1.3 0.1zm344.3 4.9c2.3 0.9 1 1.6-5.9 3-4.8 1-10.7 2.4-13.1 3-2.7 0.7-3.3 1.2-1.5 1.2 1.6 0 6.1-0.4 9.9-1 3.8-0.5 6.9-0.5 6.9 0.1 0 0.6 1.4 0.8 3 0.4 1.6-0.4 3.2-0.1 3.6 0.7 0.4 0.8-0.2 1.5-1.4 1.5-1.2 0-1.9 0.6-1.5 1.4 0.4 0.8 1.7 1.2 2.9 0.8 1.2-0.4 1.9-0.1 1.5 0.7-0.4 0.8-0.1 2.5 0.7 3.7 1.3 1.8-0.2 2.4-9.1 3.7-5.9 0.8-14.6 2.2-19.4 3-4.9 0.9-12.8 1.6-17.6 1.6-8.7 0.1-8.7 0.1-2.9 1.5 3.8 0.9 10.2 0.8 18.3-0.2 6.8-0.9 13.7-1.5 15.4-1.4 1.6 0.1 0.2 0.7-3 1.3-3.2 0.6-10.8 1.9-16.8 2.8-6.1 1-12.6 1.4-14.7 0.9-2.7-0.7-2.1 0.1 2.2 2.8 3.3 2 5.4 3.7 4.8 3.7-0.6 0-6.9-3.1-13.9-6.9-7.1-3.7-16.4-8.9-20.9-11.5-5.3-3.1-7.3-5-5.8-5.5 1.2-0.4-10.7-0.8-26.4-0.9l-28.5-0.1c11.3 11.7 20.6 20.1 28 26.2 7.3 6.1 17.2 13.5 22 16.3l8.8 5.1c20.2-1.7 35.6-3.9 47.3-5.9 11.7-2 28.8-5.7 38.1-8.1 9.2-2.4 17.7-4.9 18.8-5.5 1.5-0.7-0.4-4.2-7.1-13.4-5-6.9-9.5-12.8-9.9-13.2-0.5-0.4-0.3 0.3 0.3 1.5 0.5 1.2-0.1 0.8-1.4-0.8-1.3-1.6-3-4.1-3.8-5.5-0.8-1.6-0.8-2.3 0.2-1.8q1.4 0.7 0-2.2c-0.9-1.6-1.8-2.9-2.2-2.9-0.4 0-0.4 0.8 0.1 1.8 0.4 1-0.1 0.7-1.1-0.7-1.1-1.3-3.3-2.4-4.9-2.4h-2.9zm122.9 3.3c-2.4 1.6-10.3 5.9-17.5 9.5-7.3 3.7-19.8 9.5-27.8 12.9-8.1 3.5-19.1 8-24.5 10.1-5.5 2.1-10.8 3.9-11.8 3.9-1 0 0.2 1.6 2.6 3.6 2.4 2.1 7 5.3 10.2 7.3 3.3 1.9 7.9 4 10.3 4.6 3.3 0.9 4.1 0.7 3.3-0.6-0.9-1.4-0.3-1.4 2.2-0.1 2.6 1.3 4.2 1.2 7.7-0.6 2.4-1.2 6.5-3.1 9.1-4.2 2.7-1.1 4.6-2.2 4.4-2.4-0.2-0.2-4 0.7-8.4 2-5.9 1.8-10.2 2.2-16.1 1.5-4.4-0.6-8.8-1.5-9.8-2.1-0.9-0.5 4-1 11-1 11.7 0 13.6-0.4 24.1-5.5 6.2-3 11.6-5.5 12-5.5 0.4 0-1 1.7-3.3 3.8-3.5 3.2-2.4 2.9 7.7-2.1 6.5-3.2 13.2-7.3 14.9-9.2 1.8-1.9 3.9-5.3 4.8-7.5 0.9-2.2 1.6-7.6 1.7-12 0.1-4.4-0.5-8.2-1.2-8.6-0.7-0.3-3.3 0.7-5.6 2.2zm-410.4 25.2c-0.1 0.5 5.2 4 11.8 7.7 6.7 3.8 16.4 9 21.6 11.6 5.3 2.6 13.2 6.1 17.6 7.8 4.4 1.6 8.3 2.7 8.7 2.3 0.3-0.4-0.2-0.7-1.1-0.7-1 0-1.7-0.5-1.7-1.1 0-0.6 3.5-0.5 7.7 0.2 4.2 0.7 10.3 2.7 13.5 4.6 3.2 1.8 8.5 3.8 11.7 4.4 3.2 0.6 7.8 2.1 10.3 3.3 2.4 1.2 5.5 2.4 6.9 2.7 1.4 0.3 2.6 0.2 2.6-0.2 0-0.4-5.1-3.1-11.4-5.9-6.2-2.9-15-7.6-19.4-10.3-4.4-2.8-12.6-6.5-18.3-8.1-5.6-1.7-16.8-4.9-24.9-7.1-8-2.2-18.2-5.3-22.7-7-4.4-1.7-9.1-3.5-10.4-4.1-1.2-0.5-2.4-0.6-2.5-0.1zm317.4 14.7c-0.4 0.4-6.2 2.3-13.1 4.3-6.8 2-21 5.3-31.5 7.4-10.4 2.2-25.9 4.7-34.4 5.8l-15.4 1.8c11.4 5.8 20 9.3 26.4 11.4 8.2 2.7 14.8 3.9 22 3.9 5.6 0 17.1-1.1 25.6-2.3 8.4-1.2 23.6-4.9 33.7-8.2 10-3.3 18.9-6.6 19.7-7.3 0.8-0.8-0.5-1.3-3.3-1.3-3.4 0-7.3-2-13.7-7-4.9-3.8-9.2-7.4-9.5-8-0.3-0.6-1.8-1.1-3.2-1.1-1.5 0-3 0.3-3.3 0.6zm-214.4 17c9.6 5 22.5 10.6 28.5 12.6 6.1 2 18.6 5.2 27.9 7.3 9.2 2 23 4 30.7 4.4 7.7 0.5 20.5 0.1 28.6-0.8 8-0.8 15.2-2.2 16-3 0.8-0.8 2.4-1.5 3.6-1.5 1.8 0.1 1.7 0.6-0.6 2.4-2.9 2.3-2.9 2.3 0.7 1.5 2-0.5 6.3-1 9.5-1.1l5.9-0.1c-10.2-2.9-19.8-7-27.8-11.1l-14.7-7.3c-57.9-1.4-75.3-2.6-89.3-4.7-11.3-1.7-23.1-3.8-26.3-4.7-3.3-0.9-6.9-1.9-8.1-2.2-1.2-0.4 5.7 3.4 15.4 8.3z"/><path class="b" d="m560 109.3c1.2 0.8 3.4 1.5 4.8 1.5 1.4 0 2.5 0.7 2.5 1.5 0 0.8 2 1.3 4.4 1.1 2.7-0.2 4.4 0.3 4.4 1.5 0 1-2.1 2-4.7 2.3-4.6 0.5-4.6 0.5 0.7 0.7 5.3 0.2 5.5 0.1 5.5-4.9 0-2.8-0.7-5.1-1.5-5.1-0.8 0-1.4 1-1.4 2.2 0 1.2-0.4 2.2-0.8 2.2-0.4 0-2.2-0.6-4-1.3-1.8-0.6-5.3-1.6-7.7-2.2-3.2-0.7-3.8-0.6-2.2 0.5zm-156.5 102.2c-0.1 1-1.6 2.1-3.5 2.5-1.8 0.4-5.4 2.8-8.1 5.5-2.6 2.6-4.8 5.8-4.7 7 0 1.2-0.3 4.2-0.8 6.6-0.8 3.9-0.4 4.6 3.6 6.2 2.7 1.1 5.3 1.3 6.4 0.6 1-0.8 3.8-1.7 6.2-2.2 2.4-0.5 5.9-2.2 7.7-3.9 1.8-1.6 3-3.7 2.7-4.7-0.3-1-1.1-4.3-1.7-7.4-0.6-3-1.4-5.7-1.9-6-0.5-0.3-0.7 1.2-0.4 3.3 0.3 2.1-0.2 4.3-1.1 4.9-1.1 0.8-1.7-0.2-1.8-2.9-0.1-2.2-0.7-5.7-1.3-7.7-0.6-2-1.2-2.8-1.3-1.8zm425.3 41.7c9.7 9.9 21.4 22.3 26.1 27.5 4.7 5.2 7.7 8.2 6.6 6.6-1.1-1.6-5.9-7.6-10.7-13.2-4.8-5.6-15-16.7-22.7-24.5-7.7-7.9-14.7-14.3-15.5-14.3-0.8 0 6.5 8 16.2 17.9zm-502.9 14.3c-2.7 1.3-4.5 3.4-4.5 5.1-0.1 2.5-0.3 2.6-1.5 0.8-1.1-1.8-1.4-1.5-1.4 1.4 0 2 1.2 9.3 2.7 16.1 1.5 6.9 3.7 14.8 4.9 17.6 2 4.8 2.5 5.1 7.7 4.4 3.6-0.5 6.7-2.1 9-4.8 2.4-2.7 3.4-5.8 3.4-9.8 0-3.3 0.6-7.4 1.3-9.2 0.7-1.8 1.4-7.5 1.4-12.6 0.1-7.7-0.3-9.5-2.4-10-1.3-0.3-5.5-0.7-9.3-0.9-3.8-0.1-8.9 0.7-11.3 1.9zm-13 17.9c-0.9 2.7-1.4 5.3-1 5.9 0.4 0.6 0 1.1-0.8 1.1-0.8 0-1.1 2.1-0.7 4.8 0.4 2.6 0.9 5.5 1.1 6.6 0.2 1 2.5 2.8 5.1 4 2.6 1.2 5.1 2 5.5 1.8 0.4-0.2-0.5-6.8-2.1-14.6-1.6-7.9-3.5-14.3-4.2-14.3-0.7 0-2 2.1-2.9 4.7zm-72 46.9c0.8 2.6 1.4 6.1 1.4 7.7-0.1 2-0.4 2.3-1.1 1-0.7-1.2-2.4-1.7-4.1-1.2-1.6 0.4-4 2.9-5.3 5.6-1.6 3-2 5.7-1.3 7 0.8 1.5 0.3 3.5-1.5 5.9-1.5 2-2.3 4.2-1.7 4.8 0.6 0.6 0.2 1.1-0.8 1.1-1 0-1.5 0.6-1.1 1.4 0.4 0.8-0.2 3.3-1.4 5.5-1.2 2.2-2.2 5.7-2.2 7.7 0 2 0.6 4.6 1.4 5.8q1.4 2.2 2.8 0.8c0.8-0.8 3.2-5.3 5.2-9.9 2.1-4.6 3.3-8.4 2.7-8.4-0.7 0.1 1.2-2.7 4.1-6.2 2.8-3.4 6.6-8.6 8.4-11.4l3.2-5.1c-4.6-5.7-6.2-9.5-6.5-12.1-0.3-2.6-1.2-4.8-2-4.8-1 0-1 1.7-0.2 4.8zm62.8 5.1c-6.6 2-12 4.7-13.5 6.6-1.8 2.3-2.6 5.7-2.6 11 0 4.2-0.6 8-1.4 8.4-0.8 0.4-1.4-0.7-1.4-2.5 0-1.9-0.5-2.8-1.1-2.2-0.6 0.6-0.2 3.8 1 7 1.2 3.2 2.6 5.8 3 5.8 0.4 0 7.3-2.9 15.3-6.3 8.1-3.5 19.2-8.3 24.8-10.7 6.2-2.6 10.5-5.4 11.2-7.2 0.6-1.8 0.1-4.6-1.4-7.3-1.3-2.4-2.4-4.5-2.4-4.6 0-0.1-2.1-0.6-4.7-1.1-4.2-0.8-4.8-0.5-4.8 2.4-0.1 3.2-0.1 3.2-1.8 0.4-1.1-1.7-3.5-3-5.6-3-2-0.1-8.6 1.4-14.6 3.3zm-54.1 13.2c-2.5 3-7.8 11.9-11.8 19.8-4 7.8-7.2 15.6-7.2 17.2 0 1.6 0.6 2.9 1.4 2.9 0.8 0 1.5-0.8 1.5-1.8 0-1.4 0.3-1.4 1.1-0.1 0.6 1 2.7 1.6 4.6 1.5 1.9-0.2 5-2.3 6.9-4.7 2-2.5 3.9-7.7 4.6-12.1 0.6-4.2 0.9-8.1 0.6-8.8-0.3-0.6 0.2-1.4 1-1.8 0.8-0.4 1.7-4.5 2.1-9.2 0.3-4.6 0.4-8.4 0.2-8.4-0.2 0-2.5 2.5-5 5.5zm79.8 5.7c-4.8 2-15.1 6.4-22.7 9.6-7.7 3.3-15.4 6.5-17.2 7.2-2.4 0.9-2.9 1.8-1.8 3.1 0.7 1 1 2.2 0.6 2.6-0.4 0.4-0.1 7.6 0.8 16.1 0.8 8.5 2.2 19.3 3.1 24.2 1.1 6.8 2.2 9.1 4.7 10.2 2.7 1.2 6.3-0.1 21.1-7.7l18-9.1c1.2-29 1.7-41.7 2-46.9 0.3-5.2 0.8-10.3 1.3-11.3 0.4-1 0.3-1.8-0.2-1.8-0.5 0-4.9 1.7-9.7 3.8zm-48.9 10c-0.1 2.5-0.9 5.3-1.9 6.3-1.4 1.4-1.1 1.8 1.4 1.8q3.3 0 3.1-2.6c-0.1-1.4-0.6-4.2-1.3-6.2-1.1-3.6-1.2-3.6-1.3 0.7zm-2.2 12.5c-1.6 1.8-2.8 6.6-3.4 12.8-0.5 5.9-0.1 12.8 0.9 17.2 1 4 2.9 8.5 4.3 9.9 1.3 1.5 3.6 2.6 5 2.6 1.5 0 3.1 1.6 3.9 4 1 3.1 1.4 3.3 1.5 1.1 0-1.6-0.9-10.9-2.2-20.5-1.2-9.7-2.4-20.4-2.7-23.8-0.2-4.5-1-6.2-2.6-6.2-1.2 0-3.3 1.3-4.7 2.9zm41.6 44.1c-5.3 2.5-11.2 5.8-13.2 7.3l-3.7 2.8c8-1.5 12.6-1.1 15.4-0.2 4.5 1.5 5.4 1.4 7-0.9 1-1.4 1.8-3.1 1.8-3.7 0-0.6-1.3-0.4-2.9 0.4-1.6 0.8-3.3 1.1-3.7 0.7-0.4-0.4 1.4-2 4-3.5 2.7-1.5 5.6-3.8 6.6-5.1 1.4-1.9 1.4-2.4 0-2.4-1 0-6.1 2.1-11.3 4.6zm-112.1-1.8c-0.3 0.5-2.2 0.7-4.2 0.5-3.4-0.3-3.8 0.2-3.8 4.4 0.1 2.6-0.2 4.4-0.6 4-0.4-0.4-1-2.3-1.4-4.4-0.4-2-0.8-3.9-0.9-4.3-0.2-0.5-1.4 3.2-2.8 8-2.2 7.6-2.3 9.6-0.6 14.3 1.7 4.8 1.6 5.4-0.3 4.7-1.3-0.4-2.2 0.2-2.2 1.5 0 1.2 0.5 2.2 1.1 2.2 0.6 0 1.3 1.3 1.5 2.9 0.2 1.6-0.3 2.6-1.1 2.2-0.8-0.4-1.5 0.1-1.6 1.1-0.1 1-0.1 5 0 8.8 0.1 3.8-0.5 7-1.3 7-0.8 0-1.5 2.4-1.4 5.5 0.1 3 0.5 4.5 1 3.2 0.4-1.2 3.3-5.3 6.4-9.1 3.1-3.8 6.5-7 7.5-7 1.1 0 0.5 1.3-1.3 3.3-1.7 1.8-3.8 4.8-4.7 6.6-0.9 1.8-1.7 8.1-1.7 13.9 0 5.9 0.7 13 1.6 15.8 1.3 3.8 2 4.5 2.8 2.9 0.9-1.8 1.6-1.7 4.2 1.1 2.6 2.7 2.8 3.7 1.3 5.8-1.5 2-1.5 2.3 0 1.4 1.3-0.7 2 0.8 2.3 5.2 0.3 3.5 0.6-9.2 0.8-28.1 0.2-30.8 0-34.1-1.9-31.5-1.6 2.2-2.2 2.3-2.2 0.7 0-1.2 1.2-3.5 2.6-5.1 1.9-2.1 3.2-7.2 4.4-17.2 0.9-7.9 1.6-15.8 1.4-17.7-0.1-1.9-1.1-3.4-2.3-3.4-1.2 0-2.4 0.4-2.6 0.8zm9.1 1.5c-0.4 0.7-1.5 7.9-2.6 16-1.1 8.1-1.5 15.2-0.9 15.9 0.6 0.6 5.2-0.7 10.2-2.9 5-2.2 10-4.5 11-5.1 1.4-0.9 1.5-2.2 0.1-6.2-0.9-2.8-2.7-6.3-4-7.8-1.3-1.4-3.2-2.2-4.2-1.8-1 0.5-2.1-0.6-2.6-2.5-0.4-1.8-2-4.1-3.6-5.1-1.6-1-3.1-1.2-3.4-0.5zm8.5 30.2c-4 1.9-8.8 3.5-10.6 3.5l-3.3 0.1c0.4 57.3 0.7 71.5 1 68.4 0.3-3 1.1-5.4 2-5.4 0.8 0 1.3 0.4 1.2 1.1-0.1 0.6-0.1 2 0 3.2 0.1 1.7 0.7 1.6 2.5-0.7 2.2-2.8 2.3-2.8 1.8 1.1-0.3 3 0.2 4 2.1 4 1.4 0 2.3-0.6 1.9-1.4-0.4-0.8-0.1-2.5 0.7-3.7 0.8-1.2 2.1-1.9 2.9-1.4 0.8 0.4 1.5-1 1.5-3 0-2 0.5-3.6 1.1-3.6 0.6 0 1.2-0.9 1.2-1.9 0.1-1 0.9-8.4 1.8-16.4 1-8.1 2-22.1 2.3-31.2 0.4-11.5 0-16.4-1.1-16.3-0.9 0.1-4.9 1.7-9 3.6zm677.4 95.2c-0.8 2.1-1.4 6.4-1.5 9.5-0.1 3.2 0.5 5.8 1.3 5.8 0.8 0 1.8-1.2 2.1-2.6 0.3-1.4 1.1-3.9 1.8-5.5 0.9-2.1 0.7-2.6-0.6-1.8-1.3 0.8-1.6-0.3-1.2-4 0.3-2.8 0.3-5.2 0-5.2-0.4 0-1.2 1.7-1.9 3.8zm-698 17.5l0.7 7.3c-4.2-9.1-5.5-11.1-5.6-10.3 0 0.9 0.6 3.7 1.4 6.3 1.3 4.2 1.1 4.6-1.1 3.9-2.1-0.7-2.2-0.5-0.8 1.1 1 1 1.4 2.5 0.8 3.3-0.6 0.7-0.3 0.9 0.7 0.3 1.2-0.6 1.9 0.2 2 2.4 0.1 1.8 0.1 4.2 0 5.4-0.2 1.7 0.1 1.6 1.3-0.3 0.8-1.4 1.9-6.4 2.3-11 0.5-5 0.2-9.9-0.7-12.1-1.4-3.1-1.6-2.6-1 3.7zm-16.6-0.8c-0.1 1.3 0.8 5.5 2.1 9.6 1.2 4 2.2 7.6 2.2 8 0 0.4-2.8-1.9-6.2-5.1-3.4-3.2-5.9-5.4-5.5-4.8 0.4 0.5 7.1 7.6 15 15.7 7.8 8.1 14.3 14.2 14.3 13.6 0-0.6-3.9-5-8.7-9.9-4.9-4.8-8.5-9.1-8.2-9.5 0.3-0.4-0.7-5-2.2-10.2-1.5-5.3-2.8-8.6-2.8-7.4zm25.5 14c0.4 4.8 1.4 9.6 2.2 10.6 0.8 1 1 2.1 0.4 2.4-0.6 0.3-2.4-0.4-4-1.6-1.7-1.2-3.4-4.2-4-6.8-0.7-3.5-0.9-2.6-0.7 3.2l0.3 7.9c16.4 11.1 21.5 14.3 21.9 14.3 0.4 0 0.7-1.2 0.7-2.6 0-1.4-1.1-3.9-2.5-5.6-1.4-1.7-3.7-3.5-5.1-4.1-2-0.7-2.6-2.6-2.6-8.6 0-5.9-0.8-8.8-3.7-12.8l-3.7-5.1zm4.7 27.1c0.9 1.2 2 7.8 2.4 14.6 0.5 8.2 1.4 12.8 2.7 13.5 1.2 0.6 2.3 0 2.9-1.5 0.8-1.9 1-1.6 1.1 1.2 0 2.4 1.3 4.3 3.8 5.5 2 1 4.2 1.8 4.8 1.9 0.6 0 0.1-1-1.1-2.3-1.7-1.8-1.8-2.7-0.5-3.4 1.3-0.7 1.4-2.5 0.3-6.8-0.8-3.3-1.6-7.6-1.7-9.7-0.2-2-1.3-4.9-2.5-6.3-1.2-1.4-3.5-2.9-5.2-3.3-1.6-0.5-4.2-1.9-5.8-3.2-2.2-1.8-2.5-1.9-1.2-0.2zm636.8 63.3c-13.9 15.5-15.4 17.5-5.8 7.6 7.1-7.3 14.9-15.5 17.2-18.3 2.4-2.8 5.2-6.2 6.4-7.6 1.2-1.4 1.9-2.6 1.6-2.6-0.4 0-9.1 9.4-19.4 20.9zm-55.7 60.6c-2.2 2.3-5.4 6.8-7 10l-3 5.9c7.1-7.4 9.2-10 9.2-10.6 0-0.6 1.5-2.6 3.3-4.4 1.8-1.8 2.9-3.7 2.4-4.2-0.4-0.5-2.7 1-4.9 3.3zm-10.2 6c-1.1 2.2-2.8 6-3.8 8.4-0.9 2.5-1 3.8-0.2 3 0.8-0.8 2.8-4.6 4.3-8.5 1.6-3.8 2.6-6.9 2.3-6.9-0.2 0-1.4 1.8-2.6 4zm-477.5 12c1.6 1.6 3.6 2.8 4.4 2.6 0.8-0.2 1.3 0.5 1.1 1.5-0.2 1 0.2 1.6 0.8 1.2 0.6-0.3 2.7 2.3 4.7 5.9 2 3.6 4.2 6.5 4.8 6.5 0.6 0 2.6 1.6 4.4 3.7 1.8 2 3.9 3.6 4.7 3.6 0.8 0 3.8 2 6.6 4.5 2.8 2.4 6 4.3 7 4.3 1 0 3.1 0.8 4.7 1.8 2.4 1.6 3.4 1.3 6.6-1.8 2.1-2 3.7-4.2 3.7-4.8 0-0.6-3.2-1.7-7-2.5-3.8-0.8-8.7-2.8-11-4.4-2.2-1.7-4.6-2.6-5.5-2.2-0.8 0.4-2.9-0.7-4.7-2.3l-3.3-3c6.8 4.1 8.2 4.4 7.6 3.4-0.5-1-3.2-2.7-5.8-3.9-2.6-1.1-8.5-5.4-13.2-9.5-4.6-4.1-9.5-7.5-10.9-7.5-2.3 0-2.3 0.3 0.3 2.9zm457.2 1.2c-2.9 2.2-5.4 4.5-5.4 5.1 0 0.6 0.6 0.8 1.4 0.4 0.8-0.4 1.5-0.3 1.5 0.3 0 0.6-1.2 2.2-2.6 3.4-1.4 1.3-4.2 2.9-6.2 3.6-2.7 0.9-3.4 0.8-2.6-0.5 0.7-1 0.3-1.6-0.9-1.3-1.2 0.2-2.6 0.9-3.3 1.7-0.7 0.7-0.5 0.9 0.6 0.3 1-0.5 2.1-0.3 2.5 0.5 0.4 0.8-0.3 2-1.5 2.6-1.2 0.6-2.5 1.8-2.7 2.6-0.3 0.8 0.9 1.2 2.6 1 1.7-0.2 5.2-2.4 7.9-4.8 2.6-2.3 5.5-4.3 6.5-4.3 1 0 3.2-0.9 4.8-2.1 1.6-1.2 2.1-2.2 1.1-2.2-1-0.1-1.5-0.7-1.1-1.6 0.4-0.8 1.4-1.1 2.2-0.7 0.8 0.4 1.5-0.2 1.5-1.5 0-1.2-0.9-2.1-1.9-2.1-1.4 0.1-1.4-0.4 0.1-2.2 1.1-1.2 1.7-2.2 1.4-2.2-0.3 0-3 1.8-5.9 4zm-404.1 32.2c-1.2 1.4-2.7 3.5-3.4 4.7-0.9 1.4-0.8 1.9 0.1 1.2 0.8-0.5 4.4 1 8.1 3.4 3.6 2.4 8.2 4.7 10.2 5.2 2 0.4 8.6 1.9 14.7 3.4 6 1.6 12.9 3.1 15.3 3.5 2.5 0.3 5.7 1.2 7.4 1.8l2.9 1.1c-4.6-4.9-5.5-6.7-5.1-7.2 0.4-0.4 2.9 1.1 5.5 3.3 2.7 2.3 5.2 3.8 5.6 3.4 0.4-0.4-1.3-2.5-3.8-4.8-2.4-2.2-3.9-4-3.3-4 0.6 0 2.6 1 4.4 2.2 1.8 1.2 4.4 2.1 5.8 1.9 1.4-0.1 4.1 0.2 5.9 0.8 1.8 0.5 3.3 2 3.3 3.2 0 1.2 1 2.2 2.2 2.2 1.6 0 2-1.2 1.5-4.8-0.4-2.6-1.8-5.6-3.3-6.6-1.4-1-6.1-1.9-10.3-1.8-4.2 0-18.7-2.7-32.2-6-13.5-3.3-25.6-6.6-27-7.3-1.7-0.9-3-0.5-4.5 1.2zm340.8 7.7c-3.2 1.5-7 2.7-8.4 2.8-2.1 0.1-2.3 0.7-1.1 3q1.5 3 0 2.2c-0.8-0.4-1.8 0-2.2 0.8-0.4 0.8 0.9 2.4 2.9 3.6 2.8 1.7 4.3 1.8 6.2 0.7 2.3-1.5 2.3-1.5-0.3-0.8-2.4 0.7-2.2 0.2 1.1-2.8q4-3.7 1.8-3.7c-1.4 0-0.4-1.6 2.6-4.3 2.6-2.4 4.4-4.3 4-4.3-0.4 0-3.4 1.3-6.6 2.8zm-17.1 3.9c-0.5 0.7-0.2 3.4 0.8 6 0.9 2.6 2.2 4.8 2.8 4.8 0.6-0.1 1-0.6 1-1.2-0.1-0.6-1-3.2-1.9-5.9-1-2.7-2.2-4.3-2.7-3.7zm-7.1 5.3c0.1 1.8 0.6 4.7 1.2 6.6 0.6 1.9 1.8 3 2.9 2.6 1-0.5 2.1 0 2.5 1 0.4 1 0.5 0.5 0.2-1.1-0.4-1.6-1-4.7-1.5-7-0.5-2.2-1.9-4.3-3.1-4.7-1.6-0.5-2.3 0.3-2.2 2.6zm-177.9 21.5l-7.3 1c10.2 0.2 14.9-0.3 16.9-1 2.8-0.9 2.9-1.1 0.7-1.1-1.6 0.1-6.2 0.6-10.3 1.1zm0.4 8.4l17.9 0.4c9.7 7.9 12.8 10.2 13.3 10.2 0.4 0.1 6.8 3 14.2 6.7 7.5 3.6 13.6 6.4 13.6 6.2 0-0.2-8.3-5.3-18.5-11.4-10.2-6-18.8-11.4-19.1-12-0.3-0.6-9.3-1-19.9-0.8l-19.4 0.3z"/></svg>